<?xml version="1.0" encoding="utf-8"?>
<!-- Generator: Adobe Illustrator 20.0.0, SVG Export Plug-In . SVG Version: 6.00 Build 0)  -->
<svg version="1.1" id="Layer_1" xmlns="http://www.w3.org/2000/svg" xmlns:xlink="http://www.w3.org/1999/xlink" x="0px" y="0px"
	 viewBox="0 0 448.6 146.4" style="enable-background:new 0 0 448.6 146.4;" xml:space="preserve">
<style type="text/css">
	.st0{fill:#FFFFFF;}
</style>
<g>
	<path class="st0" d="M17.2,76.5L17.2,76.5C17.2,76.5,17.2,76.5,17.2,76.5"/>
	<path class="st0" d="M129.1,59.6c0,1.5,0,7.9,0.1,9c-0.4,0.6-1.1,0.8-1.7,0.7c-0.8-1.1-2.3-2.8-6-7l-12-13.7
		c-3.3-3.7-5-5.7-5.9-6.5c-0.2,0-0.2,0.6-0.2,3.3v10c0,3.9,0.1,8.6,0.9,10.1c0.5,0.8,1.3,1.1,2.6,1.3l1.1,0.1
		c0.5,0.4,0.4,1.3-0.1,1.5c-1.9-0.1-3.9-0.2-5.9-0.2c-2.1,0-3.5,0.1-5.3,0.2c-0.4-0.3-0.5-1.1-0.1-1.5l1.1-0.2
		c1-0.2,1.9-0.4,2.3-1.2c0.7-1.6,0.7-6.1,0.7-10.1V43.3c0-4,0.1-4.8-1.7-6.3c-0.6-0.5-2-0.9-2.7-1l-0.8-0.2
		c-0.4-0.3-0.3-1.3,0.2-1.5c1.9,0.2,4.8,0.2,6.1,0.2c1.1,0,2.3-0.1,3.5-0.2c0.9,2.2,6.5,8.7,8.3,10.6l5.1,5.6
		c2.2,2.4,6.9,7.8,7.5,8.1c0.1-0.2,0.1-0.4,0.1-1.2v-10c0-3.8,0-8.6-1-10.1c-0.5-0.8-1.3-1.1-2.6-1.3l-1.2-0.2
		c-0.5-0.4-0.4-1.3,0.1-1.5c2,0.1,3.9,0.2,5.9,0.2c2.2,0,3.5-0.1,5.4-0.2c0.4,0.3,0.5,1.1,0.1,1.5l-1.2,0.3c-1,0.1-1.8,0.4-2.2,1.2
		c-0.7,1.6-0.7,6.1-0.7,10.1V59.6z"/>
	<path class="st0" d="M154.5,35.7c8.2,0,11.7,9,11.7,16.7c0,10.3-4.7,14.7-10.6,14.7c-8.8,0-11.8-9.7-11.8-16.7
		C143.7,39.4,149.3,35.7,154.5,35.7 M155.1,33.6c-10.8,0-18.4,7.8-18.4,18.2c0,9.2,6.7,17.3,18.3,17.3c10.4,0,18.1-7.5,18.1-17.7
		C173.1,42.2,167,33.6,155.1,33.6"/>
	<path class="st0" d="M189,38.8c0-2.2,0-2.3-1.4-2.3h-1.5c-4.7,0-6.1,0.6-8,4.7c-0.4,0.3-1.4,0.2-1.6-0.4c0.9-2.8,1.6-6,2-7.8
		c0.1-0.1,0.3-0.2,0.6-0.2c0.2,0,0.4,0,0.5,0.2c0.3,1.3,1,1.4,4.5,1.4h18.2c2.5,0,3.3-0.2,3.9-1.4c0.2-0.1,0.4-0.2,0.6-0.2
		c0.3,0,0.6,0.1,0.7,0.2c-0.5,2.1-0.9,6.5-0.8,8.2c-0.3,0.4-1.1,0.5-1.6,0.2c-0.7-4-1.6-5-7.1-5h-1.6c-1.3,0-1.4,0.1-1.4,2.3V61
		c0,5.4,0.5,5.6,2.9,5.9l1.8,0.2c0.4,0.4,0.3,1.3-0.1,1.5c-3-0.1-5.3-0.2-7.5-0.2c-2.3,0-4.7,0.1-8,0.2c-0.4-0.2-0.5-1.2-0.1-1.5
		l2.2-0.2c2.4-0.2,2.9-0.4,2.9-5.8V38.8z"/>
	<path class="st0" d="M222.6,38.9c0-2.4,0.1-2.5,2.7-2.5c4.5,0,7.1,3.5,7.1,7.6c0,4.9-2.3,7.3-7.4,7.3c-2.5,0-2.5-0.1-2.5-1.7V38.9z
		 M216.6,61c0,5.4-0.5,5.6-2.9,5.9l-1.1,0.1c-0.5,0.4-0.3,1.3,0.1,1.5c2.4-0.1,4.7-0.2,6.9-0.2c2.3,0,4.6,0.1,6.8,0.2
		c0.4-0.2,0.5-1.1,0.1-1.5l-1.1-0.1c-2.4-0.3-2.9-0.5-2.9-5.9v-6.6c0-1.1,0.1-1.1,1.6-1.1c1.7,0,2.3,0.2,3.2,1.7
		c1.2,2,2.7,4.8,4.1,7c3.1,4.8,5.8,6.8,10.7,6.8c1.8,0,2.8-0.2,3.4-0.3c0.1-0.3,0.1-0.8-0.1-1c-0.6-0.1-2.1-0.4-3.5-1.6
		c-2.4-2-5-6.4-9.1-13.3c-0.2-0.3-0.3-0.7,0-0.9c2.5-1,6.2-3.4,6.2-8.1c0-3.7-1.9-6.1-4.5-7.5c-2.3-1.2-5.7-1.8-9.8-1.8
		c-4.2,0-8.6,0.2-11.8,0.5c-0.4,0.3-0.4,1.1,0,1.4l1.3,0.1c2.4,0.3,2.5,0.9,2.5,5.8V61z"/>
	<path class="st0" d="M254.3,41.9c0-5.4-0.5-5.6-2.9-6l-0.8-0.1c-0.3-0.3-0.3-1.3,0.1-1.5c1,0,2.1,0.1,3.2,0.1
		c1.1,0.1,2.3,0.1,3.4,0.1h9.8c3.3,0,6.3-0.1,6.9-0.2c0.2,0.9,0.5,4.9,0.8,7.1c-0.2,0.4-1.2,0.5-1.6,0.2c-0.8-3-1.6-4.3-3.2-4.7
		c-1.2-0.4-2.7-0.5-4.1-0.5h-3.4c-2.2,0-2.2,0.1-2.2,3v8.7c0,1.3,0.1,1.4,1.2,1.4h2.5c4.5,0,5.3-0.1,5.7-2.3l0.4-1.7
		c0.4-0.4,1.4-0.4,1.6,0.1c-0.1,1.4-0.1,3.2-0.1,5.1c0,1.9,0.1,3.8,0.1,5.4c-0.3,0.4-1.2,0.4-1.6,0l-0.4-2.1
		c-0.4-2.1-1.2-2.2-5.7-2.2h-2.5c-1.2,0-1.2,0.1-1.2,1.4v6.5c0,2.6,0.1,4.5,0.9,5.3c0.6,0.7,1.5,1.1,5.8,1.1
		c6.5,0.1,7.7-1.4,9.4-5.6c0.5-0.4,1.3-0.2,1.6,0.3c-0.3,2.2-1.4,6.1-2.2,7.5c-1.1-0.1-2.8-0.1-4.9-0.1c-2.1-0.1-4.7-0.1-7.8-0.1
		h-5.9c-2.2,0-5.4,0.1-7.7,0.2c-0.4-0.2-0.5-1.1-0.1-1.5l1.9-0.2c2.4-0.3,2.9-0.4,2.9-5.8V41.9z"/>
	<path class="st0" d="M306.2,40.9c0-2.4,0-3.5,0.4-3.8c0.4-0.3,2-0.7,4.2-0.7c8.6,0,14.5,4.9,14.5,15.1c0,8.7-4.1,15.1-13.2,15.1
		c-5.5,0-5.8-2.7-5.8-7.6V40.9z M300.2,61c0,5.4-0.5,5.6-2.9,5.9l-1.1,0.1c-0.3,0.4-0.3,1.3,0.1,1.5c2.3-0.1,4.6-0.2,6.5-0.2
		c1,0,2.1,0.1,3.3,0.2c1.2,0,2.6,0.1,4.2,0.1c4.7,0,9.1-0.6,12.7-2.5c6.4-3.2,9.2-9.1,9.2-14.8c0-7.7-4.4-13.1-10.5-15.3
		c-3.7-1.3-7.2-1.8-12.1-1.8c-5,0-9.2,0.2-12.8,0.5c-0.4,0.3-0.4,1.2-0.1,1.4l1.1,0.1c2.4,0.3,2.5,0.9,2.5,5.9V61z"/>
	<path class="st0" d="M345.7,53.5c-1.2,0-1.4,0-0.8-1.5l2.2-6c0.9-2.4,1.3-3.7,1.5-4.1h0.1c0.3,0.4,0.6,1.3,1.4,4.1l2.2,6.2
		c0.4,1.2,0.2,1.3-1.2,1.3H345.7z M351.7,55.8c1.4,0,1.6,0,2.1,1.4l2.4,7c0.7,2.2,0.5,2.5-1.3,2.7l-1.1,0.1
		c-0.3,0.3-0.3,1.2,0.2,1.5c1.8-0.1,4-0.1,6.3-0.1c2.7,0,4.6,0.1,6.7,0.1c0.4-0.3,0.4-1.1-0.1-1.5l-0.8-0.1
		c-2.6-0.5-2.9-0.8-4.1-4.3l-7.4-21.5c-0.8-2.3-1.5-4.7-2.3-7c-0.2-0.3-0.5-0.4-0.9-0.4c-0.1,0-1.8,2.1-3.6,2.5
		c0.2,0.9-0.3,2.1-1,3.8l-7,18.3c-1.1,2.8-1.9,4.9-2.5,6.3c-0.8,1.7-1.3,2.2-2.8,2.4l-1.6,0.2c-0.3,0.5-0.3,1.2,0.1,1.5
		c1.8-0.1,3.4-0.1,5.1-0.1c2.1,0.1,3.8,0.1,5.4,0.1c0.4-0.2,0.5-1.1,0.1-1.5l-1.5-0.2c-1.9-0.3-2.1-0.4-1.1-3.5l2.1-6.2
		c0.5-1.4,0.4-1.4,1.7-1.4H351.7z"/>
	<path class="st0" d="M413.9,67c0.5,0.2,0.5,1.3-0.1,1.5c-2.2-0.1-4.2-0.1-6.3-0.1c-2.4,0-4.6,0.1-6.9,0.1c-0.4-0.2-0.6-1.2-0.1-1.5
		l1.4-0.2c2.1-0.3,2.2-0.7,2.2-4.2V46.3v-4.8h-0.1c-1.4,2.8-2.1,4.4-3.1,6.4l-4.4,9c-1.7,3.6-4.3,9.3-5.2,11.7c-0.2,0.2-1,0.2-1.3,0
		c-0.9-2.8-3.1-7.8-4.3-10.4l-4.6-9.9c-1-2.2-2.4-5.4-3-6.9h-0.1c-0.1,2.5-0.2,6.5-0.3,8.7c-0.1,3.1-0.2,7.7-0.2,11.9
		c0,3.4,0.1,4.2,2.3,4.6l1.7,0.3c0.4,0.3,0.4,1.3,0,1.5c-1.9-0.1-3.5-0.1-5.4-0.1c-1.6,0-3.5,0.1-5.5,0.1c-0.5-0.3-0.5-1.2-0.2-1.5
		l0.9-0.1c2.5-0.3,2.9-1.1,3.2-4.2c0.4-3.2,0.5-6.5,0.8-11.9c0.2-3.5,0.5-7.8,0.5-10.9c0-2.4-0.8-3.5-2.8-3.8l-1.8-0.3
		c-0.3-0.4-0.3-1.3,0.2-1.5c1.5,0.1,2.9,0.2,4.8,0.2c1.8,0,3.6,0,5.5-0.2c0.2,3.1,1.5,5.7,2.8,8.5l5.7,11.9c0.4,0.9,1.7,3.4,2.4,4.6
		c0.8-1.5,1.5-2.9,2.7-5.3l4.8-9.9c1.6-3.4,3.3-6.4,4.1-9.8c1.4,0.1,3.1,0.2,4.2,0.2c2.2,0,4-0.1,5.4-0.2c0.6,0.2,0.7,1.2,0.2,1.5
		l-1.7,0.3c-2.2,0.3-2.8,1.2-2.8,3.9c0,7.6,0.1,15.2,0.5,22.8c0.2,3.4,0.7,3.8,2.4,4L413.9,67z"/>
	<path class="st0" d="M424.9,41.9c0-5.4-0.5-5.6-2.9-6l-0.8-0.1c-0.3-0.3-0.3-1.3,0.1-1.5c1,0,2.1,0.1,3.2,0.1
		c1.1,0.1,2.3,0.1,3.4,0.1h9.8c3.3,0,6.3-0.1,6.9-0.2c0.2,0.9,0.5,4.9,0.8,7.1c-0.2,0.4-1.2,0.5-1.7,0.2c-0.8-3-1.6-4.3-3.2-4.7
		c-1.2-0.4-2.7-0.5-4.1-0.5h-3.4c-2.2,0-2.2,0.1-2.2,3v8.7c0,1.3,0,1.4,1.2,1.4h2.5c4.5,0,5.3-0.1,5.7-2.3l0.4-1.7
		c0.4-0.4,1.4-0.4,1.6,0.1c-0.1,1.4-0.1,3.2-0.1,5.1c0,1.9,0.1,3.8,0.1,5.4c-0.2,0.4-1.2,0.4-1.6,0l-0.4-2.1
		c-0.4-2.1-1.2-2.2-5.7-2.2h-2.5c-1.2,0-1.2,0.1-1.2,1.4v6.5c0,2.6,0.1,4.5,0.9,5.3c0.6,0.7,1.5,1.1,5.8,1.1
		c6.5,0.1,7.6-1.4,9.4-5.6c0.5-0.4,1.3-0.2,1.6,0.3c-0.3,2.2-1.5,6.1-2.2,7.5c-1.1-0.1-2.8-0.1-4.9-0.1c-2.2-0.1-4.7-0.1-7.8-0.1
		H428c-2.3,0-5.4,0.1-7.7,0.2c-0.4-0.2-0.5-1.1-0.1-1.5l1.9-0.2c2.4-0.3,2.9-0.4,2.9-5.8V41.9z"/>
	<path class="st0" d="M99,5.9c0-3.2-0.2-3.3-2.2-3.7l-0.7-0.1c-0.3-0.2-0.3-1,0.1-1.2c1.6,0.1,3,0.1,4.5,0.1c1.5,0,2.9-0.1,4.7-0.1
		c0.4,0.1,0.4,0.9,0.1,1.2l-0.9,0.1c-2,0.3-2.2,0.5-2.2,3.7v6.6c0,4.6,1.5,7.8,6,7.8c4.2,0,6-3.2,6-7.8V8.2c0-4.7-0.3-5.7-2.3-6
		l-1-0.1c-0.3-0.3-0.3-0.9,0.1-1.2c1.5,0.1,2.6,0.1,3.9,0.1c1.3,0,2.4-0.1,3.9-0.1c0.4,0.2,0.4,0.9,0,1.2l-1.4,0.1
		c-1.2,0.1-1.6,1.4-1.6,6v4.6c0,5.9-2.8,9.1-8.7,9.1c-3,0-5.2-0.6-6.6-1.9c-1.4-1.4-2-3.5-2-6.6V5.9z"/>
	<path class="st0" d="M150,8.2c0-4.7-0.3-5.8-2-6l-1.5-0.1c-0.3-0.3-0.3-0.9,0.1-1.2c1.7,0.1,2.8,0.1,4.1,0.1c1.3,0,2.4-0.1,3.8-0.1
		c0.4,0.2,0.4,0.9,0,1.2l-1.4,0.1c-1.2,0.1-1.6,1.4-1.6,6V16c0,0.9,0,4.7,0.1,5.4c-0.1,0.3-0.6,0.5-1,0.4c-0.5-0.6-1.5-1.6-4.3-4.7
		l-7.1-7.5c-1.8-1.9-3-3.1-3.6-3.6c-0.2,0-0.2,0.5-0.2,2V14c0,4.7,0.3,5.9,2,6l1.5,0.1c0.4,0.3,0.3,0.9-0.1,1.2
		c-1.7-0.1-2.8-0.2-4.1-0.2c-1.4,0-2.2,0.1-3.9,0.2c-0.4-0.2-0.4-0.9,0-1.2l1.4-0.1c1.2-0.1,1.6-1.4,1.6-6V5.7c0-1.5,0-2.2-1-2.9
		c-0.4-0.3-1.2-0.6-1.7-0.7l-0.7-0.1c-0.3-0.3-0.3-1,0.1-1.2c1.8,0.1,3,0.1,4,0.1c0.6,0,1.3-0.1,1.9-0.1c0.9,1.8,2.7,3.8,4.5,5.7
		l4.4,4.5c1,1,3.7,4,4.2,4.3c0.3-0.1,0.3-0.8,0.3-1.9V8.2z"/>
	<path class="st0" d="M170,5.9c0-3.2-0.2-3.4-2.2-3.7l-0.9-0.1c-0.3-0.2-0.3-1,0.1-1.2c1.8,0.1,3.2,0.1,4.7,0.1
		c1.5,0,2.9-0.1,4.7-0.1c0.4,0.1,0.4,0.9,0.1,1.2l-0.9,0.1c-2,0.3-2.2,0.5-2.2,3.7v10.4c0,3.2,0.2,3.4,2.2,3.7l0.9,0.1
		c0.3,0.2,0.3,1-0.1,1.2c-1.8-0.1-3.3-0.2-4.7-0.2c-1.5,0-2.9,0-4.7,0.2c-0.4-0.2-0.4-0.9-0.1-1.2l0.9-0.1c2-0.3,2.2-0.5,2.2-3.7
		V5.9z"/>
	<path class="st0" d="M191.4,6c-1.4-3.1-1.6-3.3-2.7-3.6l-1.5-0.4c-0.3-0.3-0.3-0.9,0-1.2C188.5,1,190,1,191.4,1
		c1.7,0,3-0.1,4.5-0.1c0.4,0.2,0.4,0.9,0,1.2l-1,0.1c-1.2,0.2-1.2,0.8-0.2,3.1l2.3,5.2c1.2,2.7,1.9,4.4,2.6,5.9
		c0.9-1.9,1.7-3.9,2.6-5.8c1-2.1,2.3-5.4,2.7-6.7c0.3-1,0.3-1.3-1.1-1.6l-0.7-0.1c-0.4-0.3-0.3-0.9,0.1-1.2c1.4,0.1,2.6,0.1,3.8,0.1
		c1.5,0,2.6-0.1,3.3-0.1c0.5,0.2,0.6,0.9,0.2,1.2l-1.3,0.3c-1.4,0.3-1.7,0.7-3.2,3.8l-3.5,7.6c-1.4,3-2.7,6.4-3.3,7.9
		c-0.1,0.1-0.3,0.2-0.6,0.2c-0.2,0-0.4,0-0.6-0.2c-0.4-1.2-0.9-2.7-1.5-4L191.4,6z"/>
	<path class="st0" d="M223.7,5.9c0-3.2-0.2-3.3-2-3.7L221,2.1c-0.3-0.2-0.3-1,0.1-1.2c0.7,0,1.4,0.1,2.1,0.1C224,1,224.7,1,225.5,1
		h6.6c2,0,3.9-0.1,4.3-0.1c0.1,0.6,0.3,2.7,0.5,4.7c-0.2,0.4-1,0.4-1.2,0.1c-0.3-1.2-0.6-1.8-0.8-2.2c-0.7-1.1-2.8-1.1-3.9-1.1h-2.1
		c-1.6,0-1.7,0-1.7,1.5V9c0,0.8,0,0.9,0.9,0.9h2.2c2.5,0,2.7-0.4,3.1-1.8l0.2-0.9c0.2-0.4,0.9-0.3,1.2,0.1c-0.1,1.4-0.1,2.2-0.1,3.3
		c0,1.2,0,2,0.1,3.3c-0.2,0.4-0.9,0.4-1.2,0.1l-0.2-0.9c-0.4-1.4-0.6-1.8-3.1-1.8h-2.2c-0.9,0-0.9,0.1-0.9,1.1v3.4
		c0,1.4,0.1,2.8,0.5,3.3c0.4,0.5,1.3,0.7,3.9,0.7c3,0,4.7-0.1,6-3.9c0.3-0.3,1.1-0.2,1.2,0.2c-0.2,1.9-0.9,4.3-1.4,5.2
		c-1.4-0.1-2.8-0.1-4.1-0.1c-1.3,0-2.6,0-3.8,0h-4.1c-1.5,0-2.9,0-5.2,0.2c-0.4-0.2-0.4-0.9-0.1-1.2l1.3-0.1c2-0.2,2.2-0.5,2.2-3.7
		V5.9z"/>
	<path class="st0" d="M257.1,3.5c0-1.2,0.3-1.3,2.1-1.3c3.2,0,4.9,2,4.9,4.4c0,3.2-1.6,4.4-4.6,4.4c-2.3,0-2.3,0-2.3-1.2V3.5z
		 M253.6,16.3c0,3.2-0.2,3.3-2.2,3.7l-0.7,0.1c-0.4,0.2-0.4,1,0.1,1.2c1.6-0.1,3.1-0.2,4.6-0.2c1.4,0,3,0.1,4.9,0.2
		c0.4-0.2,0.4-0.9,0.1-1.2l-1.1-0.1c-2-0.3-2.2-0.5-2.2-3.7V13c0-0.7,0.1-0.7,1.3-0.7c0.7,0,1.5,0.2,1.9,0.7c1,1.5,2.2,3.5,3.4,5
		c2,2.6,3.7,3.5,6.5,3.5c0.9,0,1.5-0.1,2-0.2c0.2-0.1,0.2-0.6,0-0.7c-0.7,0-1.6-0.3-2.5-1c-1.5-1.3-3.6-3.5-5.9-7.4
		c-0.1-0.2-0.2-0.5,0-0.7c1.8-0.7,4.1-2,4.1-5c0-4.9-4.7-5.6-9-5.6c-2.6,0-5.1,0.1-7.7,0.3c-0.5,0.1-0.4,1.1,0,1.2l1.3,0.2
		c1.1,0.1,1.1,0.9,1.1,4V16.3z"/>
	<path class="st0" d="M287.3,11.7c-2.2-1.2-4.1-3-4.1-5.6c0-3.4,2.6-5.8,7.3-5.8c1.6,0,2.7,0.4,4.3,0.7c0.4,0.8,0.7,2.5,0.7,4.6
		c-0.1,0.4-1,0.4-1.2,0.1c-0.4-1.6-1.6-4-4.3-4c-2.7,0-3.8,1.6-3.8,3.2c0,1.7,1.3,2.7,3.1,3.7l2.9,1.5c1.7,0.9,3.7,2.8,3.7,5.9
		c0,3.6-3,5.9-7.6,5.9c-2.8,0-4.7-1-5.4-1.4c-0.4-0.7-1-2.3-1-4.8c0.2-0.5,0.9-0.5,1.2-0.1c0.4,1.7,2.4,5,5.5,5
		c2.4,0,3.9-1.2,3.9-3.4c0-1.5-0.6-3-3.2-4.4L287.3,11.7z"/>
	<path class="st0" d="M311.7,5.9c0-3.2-0.2-3.4-2.2-3.7l-0.9-0.1c-0.3-0.2-0.3-1,0.1-1.2c1.8,0.1,3.3,0.1,4.7,0.1
		c1.5,0,2.9-0.1,4.8-0.1c0.4,0.1,0.4,0.9,0.1,1.2l-0.9,0.1c-2,0.3-2.2,0.5-2.2,3.7v10.4c0,3.2,0.2,3.4,2.2,3.7l0.9,0.1
		c0.3,0.2,0.3,1-0.1,1.2c-1.8-0.1-3.3-0.2-4.8-0.2c-1.5,0-2.9,0-4.7,0.2c-0.4-0.2-0.4-0.9-0.1-1.2l0.9-0.1c2-0.3,2.2-0.5,2.2-3.7
		V5.9z"/>
	<path class="st0" d="M338.3,3.6c0-1.2-0.1-1.2-1-1.2h-1.4c-2.8,0-4,0.3-5.2,3.5c-0.5,0.3-1,0.2-1.1-0.2c0.5-2,1-4.3,1.2-5.5
		c0.2-0.2,0.7-0.2,0.8,0c0,0.9,0.7,0.9,2.6,0.9h12.9c1.7,0,2.1,0,2.4-0.9c0.3-0.2,0.7-0.1,0.8,0.1c-0.4,1.2-0.6,3.7-0.5,5.4
		c-0.2,0.4-1,0.4-1.2,0.1c-0.3-3-1.5-3.4-4.3-3.4h-1.6c-0.9,0-1,0-1,1.2v12.7c0,3.2,0.2,3.5,2.2,3.7l1.3,0.2c0.3,0.2,0.3,1-0.1,1.2
		c-1.9-0.1-3.7-0.2-5.1-0.2c-1.5,0-3.2,0-5.1,0.2c-0.4-0.2-0.4-0.9-0.1-1.2l1.3-0.2c2-0.2,2.2-0.5,2.2-3.7V3.6z"/>
	<path class="st0" d="M369,15c0-1.4-0.1-1.8-1.3-4l-3.4-6.3c-1-1.9-1.4-2.3-2.7-2.5l-1.2-0.2c-0.3-0.3-0.2-1,0.1-1.2
		c1.5,0.1,2.6,0.1,4.3,0.1c1.4,0,2.5-0.1,4-0.1c0.4,0.2,0.5,0.9,0,1.2l-0.6,0.1c-1,0.2-1.2,0.5-0.4,2l1.7,3.3
		c0.7,1.4,1.4,2.7,2.1,3.9c0.7-1.3,1.4-2.4,2.2-3.9l1.9-3.4c0.7-1.3,0.8-1.7-0.3-1.9l-1-0.1c-0.4-0.2-0.4-1,0.1-1.2
		C375.9,1,376.9,1,378,1c1,0,2-0.1,3.3-0.1c0.4,0.1,0.5,0.9,0.1,1.2l-1.1,0.2c-1.4,0.3-1.7,0.6-3.1,2.9l-2.9,4.6
		c-1.7,2.7-1.8,3.1-1.8,4.5v2.5c0,2.7,0.2,3,2.2,3.3l1.2,0.1c0.3,0.2,0.3,1-0.1,1.2c-2-0.1-3.6-0.2-5-0.2c-1.5,0-2.9,0.1-5,0.2
		c-0.4-0.2-0.4-0.9-0.1-1.2l1.2-0.1c2-0.2,2.2-0.5,2.2-3.3V15z"/>
	<path class="st0" d="M408.8,1.6c5.1,0,7.5,5,7.5,10c0,6.4-3.4,8.8-6.9,8.8c-5.4,0-7.6-5.2-7.6-10C401.8,3.9,405.4,1.6,408.8,1.6
		 M409.1,0.2c-6.7,0-11.5,4.7-11.5,10.9c0,5.9,4.3,10.5,11.5,10.5c6.5,0,11.3-4.6,11.3-10.8C420.4,5.2,416.6,0.2,409.1,0.2"/>
	<path class="st0" d="M432.2,5.9c0-3.2-0.2-3.3-2-3.7L429.6,2c-0.3-0.2-0.3-1,0.1-1.2c0.6,0,1.3,0.1,2,0.1c0.7,0,1.5,0,2.2,0h6.5
		c2.1,0,3.8,0,4.5-0.1c0,0.6,0.1,2.7,0.2,4.8c-0.2,0.5-0.9,0.5-1.2,0.1c-0.3-1.2-0.6-1.8-0.8-2.2c-0.8-1.2-2.8-1.1-4-1.1h-1.8
		c-1.4,0-1.6,0-1.6,1.6v5.4c0,0.9,0,0.9,0.9,0.9h2.5c2.5,0,2.7-0.4,3.1-1.8l0.2-0.9c0.2-0.3,0.9-0.3,1.2,0.1
		c-0.1,1.4-0.1,2.2-0.1,3.3c0,1.2,0,2,0.1,3.3c-0.2,0.4-0.9,0.4-1.2,0.1l-0.2-0.9c-0.4-1.4-0.6-1.8-3.1-1.8h-2.5
		c-0.9,0-0.9,0.1-0.9,1.1v3.5c0,3.2,0.2,3.5,2.2,3.7l1.4,0.1c0.3,0.2,0.3,1-0.1,1.2c-2.3-0.1-3.9-0.2-5.3-0.2
		c-1.5,0-2.9,0.1-4.7,0.2c-0.4-0.2-0.4-0.9-0.1-1.2L430,20c2-0.3,2.2-0.5,2.2-3.7V5.9z"/>
	<path class="st0" d="M13.8,13.7c-0.8-0.2-5.1-1-5.1-1s2.9,3.3,3.4,3.9c-0.5,0.6-3.4,3.9-3.4,3.9s4.3-0.8,5.1-1
		c0.3,0.7,1.7,4.9,1.7,4.9s1.4-4.2,1.7-4.9c0.8,0.2,5.1,1,5.1,1s-2.9-3.3-3.4-3.9c0.5-0.6,3.4-3.9,3.4-3.9s-4.3,0.9-5.1,1
		c-0.3-0.8-1.7-4.9-1.7-4.9S14.1,13,13.8,13.7 M15.5,12.5c0.3,1,0.9,2.6,0.9,2.6s1.6-0.3,2.6-0.5c-0.7,0.8-1.8,2-1.8,2
		s1.1,1.2,1.8,2c-1-0.2-2.6-0.5-2.6-0.5s-0.5,1.5-0.9,2.5c-0.3-1-0.9-2.5-0.9-2.5S13,18.4,12,18.6c0.7-0.8,1.8-2,1.8-2
		s-1.1-1.2-1.8-2c1.1,0.2,2.6,0.5,2.6,0.5S15.1,13.6,15.5,12.5"/>
	<path class="st0" d="M26.3,49.4c0.3-0.7,0.5-1.1,0.7-1.4c0.1-0.2,0.2-0.2,0.4-0.3l0.2,0c0-0.1,0-0.1,0-0.2c-0.2,0-0.4,0-0.6,0
		c-0.2,0-0.4,0-0.7,0c0,0-0.1,0.1,0,0.2l0.2,0c0.2,0.1,0.2,0.1,0.1,0.4c-0.3,0.9-0.7,1.8-1.1,2.6c-0.1-0.1-0.2-0.5-0.4-0.8l-0.5-1.2
		c-0.3-0.7-0.3-0.8-0.3-0.9c0-0.1,0.1-0.1,0.2-0.1l0.2,0c0.1,0,0.1-0.1,0-0.2c-0.3,0-0.5,0-0.8,0c-0.2,0-0.5,0-0.8,0
		c-0.1,0-0.1,0.1,0,0.2l0.2,0c0.3,0.1,0.3,0.1,0.5,0.6l1.1,2.7c0.1,0.3,0.2,0.6,0.3,0.9c0,0,0.1,0,0.1,0c0,0,0.1,0,0.1,0
		c0.1-0.3,0.4-1.1,0.7-1.7L26.3,49.4z"/>
	<path class="st0" d="M29.2,50.9c0,0.7,0.1,0.7,0.4,0.7l0.1,0c0,0.1,0,0.2,0,0.2c-0.3,0-0.6,0-0.8,0c-0.3,0-0.6,0-0.9,0
		c-0.1,0-0.1-0.1,0-0.2l0.1,0c0.3,0,0.4-0.7,0.4-0.7v-2.4c0-0.7-0.1-0.7-0.4-0.8l-0.1,0c0,0,0-0.2,0-0.2c0.3,0,0.6,0,0.9,0
		c0.3,0,0.6,0,0.8,0c0.1,0,0.1,0.1,0,0.2l-0.1,0c-0.3,0-0.4,0.1-0.4,0.8V50.9z"/>
	<path class="st0" d="M31.8,48.1c0-0.3,0-0.3-0.2-0.3h-0.4c-0.6,0-0.8,0.1-1,0.6c0,0.1-0.2,0-0.2,0c0.1-0.4,0.2-0.8,0.3-1
		c0,0,0,0,0.1,0c0,0,0.1,0,0.1,0c0,0.2,0.1,0.2,0.6,0.2h2.6c0.3,0,0.4,0,0.5-0.2c0,0,0,0,0.1,0c0,0,0.1,0,0.1,0
		c-0.1,0.3-0.1,0.8-0.1,1c0,0.1-0.1,0.1-0.2,0c-0.1-0.5-0.2-0.6-0.9-0.6h-0.4c-0.2,0-0.2,0-0.2,0.3v2.8c0,0.7,0,0.7,0.3,0.7l0.2,0
		c0,0,0,0.2,0,0.2c-0.4,0-0.7,0-0.9,0c-0.3,0-0.6,0-1,0c-0.1,0-0.1-0.2,0-0.2l0.3,0c0.3,0,0.4,0,0.4-0.7V48.1z"/>
	<path class="st0" d="M36.1,50.3c0.2,0,0.2,0,0.3,0.2l0.3,0.8c0.1,0.3,0.1,0.3-0.2,0.3l-0.1,0c0,0,0,0.2,0,0.2c0.2,0,0.5,0,0.8,0
		c0.3,0,0.6,0,0.8,0c0,0,0-0.2,0-0.2l-0.1,0c-0.3-0.1-0.5-0.5-0.5-0.5l-0.9-2.7c-0.1-0.3-0.2-0.6-0.3-0.9c0,0,0,0-0.1,0
		c0,0-0.2,0.3-0.5,0.3c0,0.1,0,0.3-0.1,0.5l-0.9,2.3c-0.1,0.3-0.2,0.6-0.3,0.8c-0.1,0.2-0.2,0.3-0.4,0.3l-0.2,0c0,0.1,0,0.2,0,0.2
		c0.2,0,0.4,0,0.6,0c0.3,0,0.5,0,0.7,0c0.1,0,0.1-0.2,0-0.2l-0.2,0c-0.2,0-0.3-0.1-0.1-0.4l0.2-0.7c0.1-0.2,0.1-0.2,0.3-0.2H36.1z
		 M35.4,50c-0.2,0-0.2,0-0.1-0.3l0.3-0.8c0.1-0.3,0.2-0.5,0.2-0.5h0c0,0,0.1,0.2,0.2,0.5l0.3,0.8c0.1,0.2,0,0.3-0.2,0.3H35.4z"/>
	<path class="st0" d="M25.4,55.7c0-0.3,0-0.5,0-0.5c0,0,0.2-0.1,0.5-0.1c1,0,1.7,0.6,1.7,1.9c0,1.1-0.5,1.9-1.5,1.9
		c-0.6,0-0.7-0.4-0.7-1V55.7z M24.7,58.2c0,0.7-0.1,0.7-0.3,0.8l-0.1,0c0,0,0,0.2,0,0.2c0.3,0,0.5,0,0.8,0c0.1,0,0.2,0,0.4,0
		c0.1,0,0.3,0,0.5,0c0.5,0,1-0.1,1.5-0.3c0.7-0.4,1.1-1.2,1.1-1.9c0-1-0.5-1.7-1.2-2c-0.4-0.2-0.8-0.2-1.4-0.2c-0.6,0-1.1,0-1.5,0.1
		c0,0,0,0.2,0,0.2l0.1,0c0.3,0,0.3,0.1,0.3,0.8V58.2z"/>
	<path class="st0" d="M29.3,55.8c0-0.7-0.1-0.7-0.4-0.8l-0.1,0c0,0,0-0.1,0-0.2c0.3,0,0.5,0,0.8,0c0.3,0,0.6,0,0.8,0
		c0,0,0.1,0.1,0,0.2l-0.1,0c-0.3,0-0.3,0.1-0.3,0.8v1.5c0,0.9,0.3,1.7,1.1,1.7c0.8,0,1.2-0.6,1.2-1.6v-0.8c0-0.5,0-1.1-0.1-1.3
		c-0.1-0.1-0.2-0.1-0.3-0.2l-0.1,0c-0.1-0.1,0-0.2,0-0.2c0.2,0,0.5,0,0.7,0c0.3,0,0.4,0,0.7,0c0,0,0.1,0.1,0,0.2L33,55
		c-0.1,0-0.2,0.1-0.3,0.2c-0.1,0.2-0.1,0.8-0.1,1.3v0.8c0,0.6-0.1,1.1-0.4,1.5c-0.3,0.4-0.8,0.5-1.2,0.5c-0.6,0-1-0.1-1.3-0.4
		c-0.3-0.3-0.4-0.7-0.4-1.4V55.8z"/>
	<path class="st0" d="M35,55.8c0-0.7,0-0.7,0.4-0.7l0.1,0c0,0,0-0.2,0-0.2c-0.3,0-0.6,0-0.8,0c-0.3,0-0.6,0-0.9,0
		c-0.1,0-0.1,0.1,0,0.2l0.2,0c0.3,0.1,0.4,0.1,0.4,0.7v2.4c0,0.7-0.1,0.7-0.4,0.7l-0.2,0c-0.1,0,0,0.2,0,0.2c0.3,0,0.6,0,0.9,0h0.7
		c0.4,0,0.7,0,0.9,0c0.3,0,0.5,0,0.6,0c0.1-0.2,0.2-0.7,0.3-1c0-0.1-0.1-0.1-0.2,0c-0.3,0.7-0.4,0.7-1.1,0.7c-0.5,0-0.6-0.1-0.7-0.1
		C35,58.6,35,58.4,35,58.1V55.8z"/>
	<path class="st0" d="M36.2,57L36.2,57l0.2,0l0,0c0.1-0.2,0.1-0.4,0.4-0.4c0.1,0,0.2,0,0.4,0.2l0.1,0c0.5,0.2,0.6,0.3,0.8,0.3
		c0.3,0,0.6-0.2,0.7-0.7l0,0l-0.2,0l0,0c-0.1,0.3-0.2,0.4-0.4,0.4c-0.1,0-0.2,0-0.6-0.2c-0.4-0.2-0.6-0.2-0.7-0.2
		C36.9,56.3,36.4,56.3,36.2,57"/>
	<path class="st0" d="M64.2,42.3v-3.4c0,0-4.5,2-12.2,0.9c-7.3-1.1-10.3,1-10.3,1s-3-2-10.3-1c-7.7,1.1-12.2-0.9-12.2-0.9v3.4h-2v26
		h21.2c0,0,1,1.3,3.3,1.3c2.3,0,3.3-1.3,3.3-1.3h21.2v-26H64.2z M40.8,65.7c0,0-2.6-1.8-9.9-0.8c-7.3,0.9-9.9-0.7-9.9-0.7V41.3
		c0,0,3.1,1.2,10.4,0.3c7.3-0.9,9.4,0.8,9.4,0.8V65.7z M62.5,64.2c0,0-2.6,1.7-9.9,0.7c-7.3-0.9-9.9,0.8-9.9,0.8V42.4
		c0,0,2.1-1.8,9.4-0.8c7.3,0.9,10.4-0.3,10.4-0.3V64.2z"/>
	<path class="st0" d="M47.7,48.7c0,0.1-0.1,0.1-0.2,0c-0.1-0.4-0.3-0.9-1.1-0.9c-0.7,0-1.4,0.6-1.4,1.8c0,1.3,0.8,2,1.5,2
		c0.7,0,1-0.5,1.2-0.9c0-0.1,0.1,0,0.2,0c0,0.4-0.2,0.8-0.3,0.9c-0.1,0-0.1,0-0.2,0c-0.1,0-0.5,0.2-0.9,0.2c-0.6,0-1-0.1-1.4-0.4
		c-0.5-0.3-0.8-0.9-0.8-1.7c0-0.7,0.3-1.3,0.7-1.6c0.4-0.3,1-0.5,1.6-0.5c0.3,0,0.7,0.1,1,0.1c0.1,0,0.1,0,0.2,0
		C47.7,47.9,47.7,48.2,47.7,48.7"/>
	<path class="st0" d="M48.8,48.5c0-0.7,0-0.7-0.4-0.8l-0.1,0c0,0,0-0.2,0-0.2c0.1,0,0.2,0,0.4,0c0.1,0,0.3,0,0.4,0h1.1
		c0.4,0,0.8,0,0.9,0c0,0.1,0.1,0.6,0.1,0.9c0,0.1-0.2,0.1-0.2,0c-0.1-0.4-0.2-0.5-0.4-0.6c-0.2,0-0.3-0.1-0.5-0.1h-0.3
		c-0.3,0-0.3,0-0.3,0.4v1.2c0,0.2,0,0.2,0.2,0.2h0.2c0.6,0,0.7,0,0.7-0.3l0-0.2c0,0,0.2,0,0.2,0c0,0.2,0,0.4,0,0.7
		c0,0.2,0,0.5,0,0.7c0,0-0.2,0-0.2,0l0-0.3c-0.1-0.3-0.2-0.3-0.7-0.3h-0.2c-0.1,0-0.2,0-0.2,0.2v0.7c0,0.3,0,0.6,0.1,0.7
		c0.1,0.1,0.1,0.1,0.6,0.1c0.8,0,0.9-0.2,1.1-0.7c0.1,0,0.2,0,0.2,0c0,0.3-0.2,0.8-0.3,1c-0.1,0-0.2,0-0.5,0c-0.3,0-0.5,0-0.9,0
		h-0.7c-0.3,0-0.7,0-0.9,0c0,0-0.1-0.1,0-0.2l0.2,0c0.3,0,0.4-0.1,0.4-0.8V48.5z"/>
	<path class="st0" d="M53.2,48.4c0-0.3,0-0.4,0.1-0.5c0,0,0-0.1,0.3-0.1c1,0,1.7,0.6,1.7,1.9c0,1.1-0.5,1.9-1.6,1.9
		c-0.6,0-0.5-0.3-0.5-1V48.4z M52.5,50.9c0,0.7-0.1,0.7-0.3,0.7l-0.1,0c0,0.1,0,0.2,0,0.2c0.3,0,0.5,0,0.8,0c0.1,0,0.2,0,0.4,0
		c0.2,0,0.2,0,0.4,0c0.5,0,1-0.1,1.4-0.3c0.8-0.4,1.1-1.2,1.1-1.9c0-1-0.5-1.7-1.2-2c-0.4-0.2-0.7-0.2-1.3-0.2c-0.6,0-1,0-1.4,0.1
		c0,0,0,0.1,0,0.2l0.1,0c0.3,0,0.3,0.1,0.3,0.7V50.9z"/>
	<path class="st0" d="M58.7,47.7c0.9,0,1.3,1.1,1.3,2.1c0,1.3-0.5,1.9-1.2,1.9c-1,0-1.4-1.2-1.4-2.1C57.5,48.2,58.1,47.7,58.7,47.7
		 M58.8,47.4c-1.2,0-2.1,1-2.1,2.3c0,1.2,0.8,2.2,2.1,2.2c1.2,0,2.1-1,2.1-2.2C60.8,48.5,60.1,47.4,58.8,47.4"/>
	<path class="st0" d="M45.9,59c-0.1-0.1-0.2-0.6-0.2-1c0-0.1,0.2-0.1,0.2,0c0.1,0.3,0.5,1,1.1,1c0.5,0,0.7-0.3,0.7-0.7
		c0-0.4-0.2-0.7-0.6-0.9l-0.3-0.2c-0.5-0.3-0.9-0.7-0.9-1.3c0-0.6,0.5-1.2,1.4-1.2c0.3,0,0.6,0.1,0.9,0.1c0.1,0.1,0.1,0.6,0.1,0.9
		c0,0.1-0.2,0.1-0.2,0C48,55.4,47.8,55,47.2,55c-0.5,0-0.7,0.3-0.7,0.7c0,0.3,0.2,0.6,0.6,0.8l0.4,0.2c0.4,0.2,0.9,0.6,0.9,1.3
		c0,0.7-0.6,1.3-1.5,1.3C46.3,59.2,46,59.1,45.9,59"/>
	<path class="st0" d="M49.6,55.8c0-0.6,0-0.7-0.3-0.7l-0.2,0c0,0,0-0.1,0-0.2c0.4-0.1,0.8-0.1,1.4-0.1c0.6,0,1,0.1,1.3,0.3
		c0.3,0.2,0.5,0.5,0.5,1c0,1-0.9,1.3-1.4,1.3c-0.1,0-0.1,0-0.2,0c0,0,0-0.1,0-0.2c0.6-0.1,0.8-0.5,0.8-1.1c0-0.5-0.3-1-0.9-1
		c-0.3,0-0.3,0-0.3,0.3v2.8c0,0.7,0,0.7,0.3,0.7l0.2,0c0,0.1,0,0.2,0,0.2c-0.4,0-0.7,0-0.9,0c-0.3,0-0.6,0-0.8,0c0,0-0.1-0.1,0-0.2
		l0.1,0c0.3,0,0.4-0.1,0.4-0.8V55.8z"/>
	<path class="st0" d="M53.3,58.2c0,0.7-0.1,0.7-0.4,0.7l-0.2,0c0,0,0,0.2,0,0.2c0.3,0,0.7,0,0.9,0h0.7c0.4,0,0.7,0,1,0
		c0.3,0,0.4,0,0.5,0c0.1-0.2,0.2-0.7,0.3-0.9c0-0.1-0.2-0.1-0.2,0c-0.2,0.5-0.3,0.7-1.1,0.7c-0.5,0-0.6,0-0.7-0.1
		c-0.1-0.1-0.1-0.3-0.1-0.7v-0.7c0-0.2,0-0.2,0.1-0.2h0.3c0.6,0,0.7,0,0.7,0.3l0,0.3c0.1,0,0.2,0,0.2,0c0-0.2,0-0.4,0-0.7
		c0-0.2,0-0.5,0-0.6c0-0.1-0.1-0.1-0.2,0l0,0.2c0,0.3-0.2,0.3-0.7,0.3h-0.3c-0.1,0-0.1,0-0.1-0.2v-1.2c0-0.4,0-0.4,0.3-0.4h0.4
		c0.2,0,0.4,0,0.5,0c0.2,0.1,0.3,0.2,0.4,0.6c0.1,0,0.2,0,0.2,0c0-0.3-0.1-0.8-0.1-0.9c-0.1,0-0.4,0-0.9,0h-1.2c-0.1,0-0.3,0-0.4,0
		c-0.1,0-0.3,0-0.4,0c-0.1,0-0.1,0.1,0,0.2l0.1,0c0.3,0,0.4,0.1,0.4,0.8V58.2z"/>
	<path class="st0" d="M57,59c-0.1-0.1-0.2-0.6-0.2-1c0-0.1,0.1-0.1,0.2,0c0.1,0.3,0.5,1,1.1,1c0.5,0,0.8-0.3,0.8-0.7
		c0-0.4-0.2-0.7-0.6-0.9l-0.3-0.2c-0.5-0.3-0.9-0.7-0.9-1.3c0-0.6,0.5-1.2,1.4-1.2c0.3,0,0.6,0.1,0.9,0.1c0.1,0.1,0.1,0.6,0.1,0.9
		c0,0.1-0.1,0.1-0.2,0c-0.1-0.3-0.3-0.8-0.9-0.8c-0.5,0-0.7,0.3-0.7,0.7c0,0.3,0.2,0.6,0.6,0.8l0.4,0.2c0.4,0.2,0.9,0.6,0.9,1.3
		c0,0.7-0.6,1.3-1.5,1.3C57.4,59.2,57.1,59.1,57,59"/>
	<path class="st0" d="M41.7,1H0l0,37.9C0,75.1,23,94.4,41.7,105c18.7-10.6,41.7-29.9,41.7-66.1l0-37.9H41.7z M41.7,98.3
		c-2.1-1.2-4.1-2.4-6.2-3.9c1.7-0.7,3.1-1.9,6.2-1.9c3.1,0,4.5,1.1,6.2,1.9C45.8,95.9,43.8,97.1,41.7,98.3 M56.2,87.9
		c-1.1,0.9-1.6,1.2-2.6,1.4c-0.5,0.1-1.5,0.1-1.5,0.1c-4.2,0-5.2-2.6-10.4-2.6c-5.2,0-6.1,2.6-10.4,2.6c0,0-1,0-1.5-0.1
		c-1-0.2-1.5-0.5-2.6-1.4c-2.1-1.8-3.9-3.7-5.8-5.9c3.9,0,4.9,2.4,9.9,2.4c4.2,0,5.2-2.5,10.4-2.5c5.2,0,6.1,2.5,10.4,2.5
		c5.1,0,6-2.3,9.9-2.4C60.1,84.2,58.3,86.1,56.2,87.9 M77.7,39.5c0,15.3-4.7,27.5-11.5,37.1c0,0,0,0,0,0S64.9,76,62.9,76
		c-4.3,0-5.6,2.5-10.8,2.5c-3.1,0-4.5-1.4-7-2.1v-6.2c0,0-0.8,1.1-3.3,1.1c-2.6,0-3.3-1.1-3.3-1.1v6.2c-2.6,0.7-3.9,2.1-7,2.1
		c-5.2,0-6.5-2.5-10.8-2.5c-2.1,0-3.4,0.5-3.4,0.5s0,0,0,0C10.4,67,5.7,54.8,5.7,39.5l0-32.8h36h36L77.7,39.5z"/>
	<path class="st0" d="M45,32.2h14.4l4.8,2.8V23.5l-4.8,2.8H45l0,0V15.2l2.8-4.9H35.6l2.8,4.9v11.1H24l-4.8-2.8V35l4.8-2.8h14.4V38
		c0,0,1.9,0.2,3.3,1c1.4-0.8,3.3-1,3.3-1L45,32.2L45,32.2z"/>
	<path class="st0" d="M107.7,119.7c-2.3,0-2.4,0.1-2.4,1.3v6.7c0,4.8,0.4,4.9,2.5,5.2l1.4,0.2c0.3,0.3,0.3,1.1-0.1,1.3
		c-2.4-0.1-4.4-0.1-6.4-0.1c-2,0-4,0-5.8,0.1c-0.4-0.2-0.4-1-0.1-1.3l0.6-0.1c2.1-0.3,2.5-0.5,2.5-5.3v-16.9c0-4.8-0.4-4.9-2.5-5.2
		l-1-0.1c-0.3-0.2-0.3-1.1,0.1-1.3c2,0.1,4.1,0.1,6.1,0.1c2,0,4-0.1,5.8-0.1c0.4,0.2,0.4,1.1,0.1,1.3l-0.8,0.1
		c-2.1,0.4-2.5,0.4-2.5,5.2v5.5c0,1.3,0.1,1.4,2.4,1.4h10.6c2.3,0,2.4-0.1,2.4-1.4v-5.5c0-4.8-0.4-4.9-2.5-5.2l-1-0.1
		c-0.3-0.2-0.3-1.1,0.1-1.3c2.1,0.1,4.1,0.1,6.1,0.1c2,0,4-0.1,5.8-0.1c0.4,0.2,0.4,1.1,0.1,1.3l-0.8,0.1c-2.1,0.4-2.5,0.4-2.5,5.2
		v16.9c0,4.8,0.4,4.9,2.5,5.2l1,0.1c0.3,0.3,0.3,1.1-0.1,1.3c-2-0.1-4-0.1-6-0.1c-2.1,0-4.1,0-6.1,0.1c-0.4-0.2-0.4-1-0.1-1.3l1-0.1
		c2.1-0.3,2.5-0.4,2.5-5.2V121c0-1.2-0.1-1.3-2.4-1.3H107.7z"/>
	<path class="st0" d="M138.9,121.6c1.3,0,1.9-0.1,2.2-0.3c0.3-0.2,0.5-0.5,0.5-1c0-1.6-1-2.9-3-2.9c-3,0-4.4,2.9-4.4,3.9
		c0,0.2,0.1,0.3,0.6,0.3H138.9z M134.7,123.4c-0.9,0-1,0-1,0.6c0,4.1,2.8,7.3,6.8,7.3c1.8,0,3.3-0.6,4.4-2.3c0.5-0.1,0.9,0.3,1,0.7
		c-1.5,3.6-4.9,5-7.7,5c-5.3,0-8.7-3.9-8.7-9.1c0-5.1,3.5-10.1,9.6-10.1c3.4,0,6.8,2.2,6.8,6.1c0,0.4,0,0.7-0.2,1
		c-0.3,0.4-1.3,0.6-3.1,0.6H134.7z"/>
	<path class="st0" d="M148.9,133.4c-0.4-0.9-0.7-3.2-0.6-5.1c0.3-0.4,1-0.4,1.3-0.1c0.8,2.5,2.5,4.9,4.9,4.9c1.4,0,2.5-1,2.5-2.5
		c0-1.7-1.5-2.8-3.1-3.5c-2.4-1.1-4.8-2.8-4.8-5.7c0-3.5,3-5.6,6.8-5.6c1.9,0,3.6,0.5,4.2,0.9c0.5,1,0.7,2.4,0.7,4.4
		c-0.1,0.4-0.9,0.5-1.2,0.2c-0.7-2.1-2.1-3.8-3.9-3.8c-1.5,0-2.5,1-2.5,2.4c0,1.3,1.3,2.3,3,3.1c2.4,1.2,5,2.7,5,6.3
		c0,3.9-3.5,5.7-7.1,5.7C152.2,134.8,150.3,134.5,148.9,133.4"/>
	<path class="st0" d="M169.4,126.9c0,2,0.3,3.6,1,4.5c0.6,0.9,1.7,1.5,3,1.5c3,0,4.7-2.9,4.7-6.7c0-5.3-2.8-8.2-6-8.2
		c-0.9,0-1.9,0.3-2.2,0.6c-0.4,0.3-0.5,0.9-0.5,2.4V126.9z M169.4,116.3c0,0.6,0.1,0.8,0.4,0.8c1.4-0.8,2.9-1.4,4.8-1.4
		c5.3,0,8.7,3.9,8.7,9c0,6.4-4.8,10.2-10.7,10.2c-3.4,0-5.5-1.2-6-1.2c-0.5,0-0.9,0.4-1.1,0.7c-0.1,0-0.2,0-0.3,0
		c-0.2,0-0.5-0.2-0.5-0.3c0-0.2,0.1-2.6,0.1-4.3v-20.4c0-3-0.1-3.3-1-3.9l-0.6-0.4c-0.3-0.2-0.3-0.9,0-1c1.7-0.5,4.1-1.5,5.9-2.2
		c0.3,0,0.5,0.1,0.6,0.4c-0.1,1.8-0.1,4.6-0.1,6.6V116.3z"/>
	<path class="st0" d="M202.7,127.5c0,2.5,0,4.8,1.1,4.8c0.6,0,1.3-0.1,1.9-0.3c0.4,0.2,0.5,1.2-0.1,1.5c-2,0.2-5.5,0.8-7.4,1.7
		c-0.2,0-0.4-0.2-0.4-0.5c0.1-0.5,0.2-1.2,0.1-1.7c0-0.4-0.2-0.5-0.5-0.5c-1.9,1.1-3.9,2.2-6.2,2.2c-4.1,0-5.4-2.3-5.4-6v-7.1
		c0-3.2-0.2-3.5-1.3-3.8l-0.6-0.2c-0.3-0.2-0.3-1,0.1-1.2c2.7,0,5.3-0.5,6.3-0.8c0.2,0,0.4,0.2,0.5,0.4c-0.1,0.5-0.1,1.6-0.1,3.8v7
		c0,2.7,0.5,5.2,3.7,5.2c1,0,2.2-0.4,3-1.1c0.5-0.5,0.5-0.9,0.5-2.5v-6.8c0-2.9-0.3-3.1-2-3.6l-0.7-0.2c-0.3-0.2-0.3-1,0-1.2
		c3,0,6.2-0.4,7.1-0.8c0.2,0,0.4,0.2,0.4,0.4c-0.1,0.9-0.1,2.2-0.1,3.8V127.5z"/>
	<path class="st0" d="M210.1,122.1c0-2,0-2.6-1.1-3.3l-0.5-0.3c-0.1-0.2-0.1-0.8,0-1c1.9-0.6,4.3-1.6,5.7-2.5c0.3,0,0.5,0.1,0.6,0.4
		c0,0.9-0.1,1.6-0.1,2c0,0.3,0.2,0.5,0.5,0.5c1.4-1,2.9-2.4,4.4-2.4c1.6,0,2.5,1,2.5,2.2c0,1.8-1.3,2.6-2.5,2.6
		c-0.5,0-0.9-0.1-1.2-0.4c-1.1-0.8-1.9-0.9-2.2-0.9c-1,0-1.3,1-1.3,3.3v6.2c0,3.4,0.2,3.9,1.8,4l1.8,0.2c0.3,0.3,0.3,1.1-0.1,1.3
		c-2.7-0.1-4.3-0.1-5.9-0.1c-1.5,0-3,0-4.7,0.1c-0.4-0.2-0.4-1-0.1-1.3l0.8-0.1c1.5-0.3,1.7-0.7,1.7-4.1V122.1z"/>
	<path class="st0" d="M232.2,127.4c1.7,0,3-1.5,3-4.7c0-3.1-1.3-5.3-3.4-5.3c-1.6,0-3,1.5-3,4.6
		C228.9,125.5,230.5,127.4,232.2,127.4 M231.9,136.4c-1.6,0-2.5,0.1-3.1,0.5c-0.8,0.6-1.4,1.4-1.4,2.5c0,2.8,2.4,4.6,5.9,4.6
		c3.9,0,6-1.6,6-4.2c0-2.3-2.1-3.5-4.9-3.5H231.9z M239.5,119.7c0.1,0.5,0.2,1,0.2,1.9c0,3.8-2.5,7.5-8.3,7.5
		c-0.5,0-1.1-0.1-1.7-0.2c-0.7,0.4-1.4,1-1.4,1.8c0,0.9,0.6,1.8,2.5,1.8c1.3,0,3-0.1,5-0.1c3.3,0,7.4,0.5,7.4,5.5
		c0,2.4-1.6,4.6-2.9,5.5c-2,1.6-4.9,3-8.8,3c-6.4,0-8.5-3-8.5-5.3c0-0.7,0.1-1.3,0.6-2c0.4-0.4,2.1-1.4,2.8-2c0.4-0.3,0.7-0.9,0.3-1
		c-1.6-0.5-3-2-3-3.8c0-0.4,0.2-0.8,0.7-1.1c0.7-0.4,2.9-1.8,2.9-2.4c0-0.1,0-0.4-0.2-0.5c-1.5-0.6-3.4-2.5-3.4-5.4
		c0-4.1,3.4-7.2,8.3-7.2c1.8,0,3.4,0.4,4.6,1c1,0.5,1.5,0.7,2,0.7h4.4c0.2,0.1,0.4,0.4,0.4,0.8c0,0.9-0.4,1.5-0.7,1.5H239.5z"/>
	<path class="st0" d="M251.2,117.1c0,0.5,0.1,0.8,0.4,0.8c1.6-1.2,3.5-2.2,5.8-2.2c3.9,0,5.8,2.5,5.8,6.4v6.8c0,3.4,0.2,3.9,1.7,4.1
		l1,0.1c0.4,0.3,0.4,1.1-0.1,1.3c-1.9-0.1-3.4-0.1-5.1-0.1c-1.5,0-3,0-4.6,0.1c-0.4-0.2-0.4-1-0.1-1.3l0.7-0.1
		c1.5-0.2,1.7-0.8,1.7-4.1v-6.4c0-2.2-1-4-3.6-4c-1.5,0-2.5,0.7-3.1,1.3c-0.5,0.5-0.5,1.2-0.5,3v6.1c0,3.4,0.2,3.9,1.7,4.1l0.7,0.1
		c0.3,0.3,0.3,1.1-0.1,1.3c-1.6-0.1-3.1-0.1-4.8-0.1c-1.5,0-3,0-4.9,0.1c-0.4-0.2-0.4-1-0.1-1.3l1-0.1c1.5-0.2,1.7-0.7,1.7-4.1
		v-19.4c0-3-0.1-3.3-1-3.9l-0.6-0.4c-0.3-0.2-0.3-0.9,0-1c1.8-0.5,4.1-1.5,5.9-2.2c0.3,0,0.5,0.1,0.6,0.4c-0.1,1.8-0.1,4.6-0.1,6.6
		V117.1z"/>
	<path class="st0" d="M286.5,126.7c0,2.3,0.1,3.9,0.8,4.7c0.5,0.6,1.3,1,4.9,1c5,0,5.8-0.2,7.8-4.9c0.5-0.2,1.2-0.1,1.4,0.3
		c-0.4,1.9-1.4,5.3-1.9,6.6c-1.9-0.1-5.8-0.1-10.9-0.1H284c-2.3,0-4.6,0-6.5,0.1c-0.4-0.2-0.5-1.1-0.1-1.3l1.4-0.2
		c2.1-0.4,2.5-0.4,2.5-5.1v-16.9c0-4.7-0.4-4.9-2.5-5.2l-1.3-0.2c-0.3-0.2-0.3-1.1,0.1-1.3c2.3,0.1,4.3,0.1,6.4,0.1c2,0,4,0,6-0.1
		c0.4,0.2,0.5,1.1,0.1,1.3l-1,0.2c-2.1,0.4-2.5,0.5-2.5,5.2V126.7z"/>
	<path class="st0" d="M304.8,108.8c0-1.5,1.1-2.7,2.8-2.7c1.6,0,2.8,1.2,2.8,2.7c0,1.5-1.1,2.7-2.8,2.7
		C306,111.5,304.8,110.3,304.8,108.8 M310,128.8c0,3.4,0.2,3.8,1.7,4.1l0.8,0.1c0.3,0.3,0.3,1.1-0.1,1.3c-1.7-0.1-3.2-0.1-4.9-0.1
		c-1.5,0-3,0-4.8,0.1c-0.4-0.2-0.4-1-0.1-1.3l0.8-0.1c1.5-0.3,1.7-0.7,1.7-4.1v-6.7c0-2,0-2.6-1.1-3.3l-0.5-0.3
		c-0.1-0.2-0.1-0.8,0-1c2.4-0.7,4.6-1.7,5.9-2.5c0.3,0,0.5,0.1,0.6,0.4c-0.1,1.5-0.1,3.7-0.1,5.5V128.8z"/>
	<path class="st0" d="M320.2,126.9c0,2,0.3,3.6,1,4.5c0.6,0.9,1.7,1.5,3,1.5c3,0,4.7-2.9,4.7-6.7c0-5.3-2.8-8.2-6-8.2
		c-0.9,0-1.9,0.3-2.2,0.6c-0.4,0.3-0.5,0.9-0.5,2.4V126.9z M320.2,116.3c0,0.6,0.1,0.8,0.4,0.8c1.5-0.8,2.9-1.4,4.8-1.4
		c5.3,0,8.7,3.9,8.7,9c0,6.4-4.8,10.2-10.7,10.2c-3.4,0-5.5-1.2-6-1.2c-0.5,0-0.9,0.4-1.1,0.7c-0.1,0-0.2,0-0.3,0
		c-0.2,0-0.5-0.2-0.5-0.3c0-0.2,0.1-2.6,0.1-4.3v-20.4c0-3-0.1-3.3-1-3.9l-0.6-0.4c-0.3-0.2-0.3-0.9,0-1c1.7-0.5,4.1-1.5,5.9-2.2
		c0.3,0,0.5,0.1,0.6,0.4c-0.1,1.8-0.1,4.6-0.1,6.6V116.3z"/>
	<path class="st0" d="M337.4,122.1c0-2,0-2.6-1.1-3.3l-0.5-0.3c-0.1-0.2-0.1-0.8,0-1c1.9-0.6,4.4-1.6,5.7-2.5c0.3,0,0.5,0.1,0.6,0.4
		c0,0.9-0.1,1.6-0.1,2c0,0.3,0.2,0.5,0.5,0.5c1.4-1,2.9-2.4,4.4-2.4c1.6,0,2.5,1,2.5,2.2c0,1.8-1.3,2.6-2.5,2.6
		c-0.5,0-0.9-0.1-1.2-0.4c-1.1-0.8-1.9-0.9-2.2-0.9c-1,0-1.3,1-1.3,3.3v6.2c0,3.4,0.2,3.9,1.8,4l1.8,0.2c0.3,0.3,0.3,1.1-0.1,1.3
		c-2.7-0.1-4.3-0.1-5.9-0.1c-1.5,0-3,0-4.7,0.1c-0.4-0.2-0.4-1-0.1-1.3l0.8-0.1c1.5-0.3,1.7-0.7,1.7-4.1V122.1z"/>
	<path class="st0" d="M360.3,126.9c0-0.5-0.1-0.8-0.4-0.8c-0.4,0-1.2,0.2-2,0.5c-1.3,0.5-2.4,1.1-2.4,3c0,1.2,0.8,2.6,2.5,2.6
		c1.6,0,2.1-1.1,2.2-2.2L360.3,126.9z M364.8,128.4c-0.1,2.6,0.5,4,2.2,4c0.8,0,1.4-0.5,1.5-0.5c0.2,0,0.5,0.5,0.4,0.9
		c-0.9,1.3-3.1,2-4.5,2c-1.1,0-2.4-0.3-3.3-1.3c-0.3-0.3-0.5-0.5-0.7-0.5c-0.2,0-0.5,0.2-1.2,0.6c-0.9,0.5-2.2,1.2-3.9,1.2
		c-3.1,0-4.6-2.1-4.6-4.4c0-1.6,0.6-3.1,3.8-4.2c1.6-0.5,3.3-1.2,5-1.8c0.9-0.3,1-0.7,1-1.2l0-1.2c0.1-2.3-0.5-4.3-2.8-4.3
		c-1.3,0-2.2,0.7-2.4,2c-0.1,0.9-0.4,1.3-0.9,1.6c-0.6,0.4-1.9,0.8-2.9,0.8c-0.6,0-0.9-0.3-0.9-0.7c0-0.5,0.3-1.5,1.8-2.9
		c1.4-1.3,4.7-2.9,7-2.9c3.6,0,5.8,1.7,5.6,5.7L364.8,128.4z"/>
	<path class="st0" d="M372.3,122.1c0-2,0-2.6-1.1-3.3l-0.5-0.3c-0.1-0.2-0.1-0.8,0-1c1.9-0.6,4.4-1.6,5.7-2.5c0.3,0,0.5,0.1,0.6,0.4
		c0,0.9-0.1,1.6-0.1,2c0,0.3,0.2,0.5,0.5,0.5c1.4-1,2.9-2.4,4.4-2.4c1.6,0,2.5,1,2.5,2.2c0,1.8-1.3,2.6-2.5,2.6
		c-0.5,0-0.9-0.1-1.2-0.4c-1.1-0.8-1.9-0.9-2.2-0.9c-1,0-1.3,1-1.3,3.3v6.2c0,3.4,0.2,3.9,1.8,4l1.8,0.2c0.3,0.3,0.3,1.1-0.1,1.3
		c-2.7-0.1-4.3-0.1-5.9-0.1c-1.5,0-3,0-4.7,0.1c-0.4-0.2-0.4-1-0.1-1.3l0.8-0.1c1.5-0.3,1.7-0.7,1.7-4.1V122.1z"/>
	<path class="st0" d="M387.4,108.8c0-1.5,1.1-2.7,2.8-2.7c1.6,0,2.8,1.2,2.8,2.7c0,1.5-1.1,2.7-2.8,2.7
		C388.5,111.5,387.4,110.3,387.4,108.8 M392.5,128.8c0,3.4,0.2,3.8,1.7,4.1l0.8,0.1c0.3,0.3,0.3,1.1-0.1,1.3
		c-1.7-0.1-3.2-0.1-4.9-0.1c-1.5,0-3,0-4.8,0.1c-0.4-0.2-0.4-1-0.1-1.3l0.8-0.1c1.5-0.3,1.7-0.7,1.7-4.1v-6.7c0-2,0-2.6-1.1-3.3
		l-0.5-0.3c-0.1-0.2-0.1-0.8,0-1c2.4-0.7,4.6-1.7,5.9-2.5c0.3,0,0.5,0.1,0.6,0.4c-0.1,1.5-0.1,3.7-0.1,5.5V128.8z"/>
	<path class="st0" d="M405.3,121.6c1.3,0,1.9-0.1,2.2-0.3c0.3-0.2,0.5-0.5,0.5-1c0-1.6-1-2.9-3-2.9c-3,0-4.4,2.9-4.4,3.9
		c0,0.2,0.1,0.3,0.6,0.3H405.3z M401.1,123.4c-0.9,0-1,0-1,0.6c0,4.1,2.8,7.3,6.8,7.3c1.8,0,3.3-0.6,4.4-2.3c0.5-0.1,1,0.3,1,0.7
		c-1.5,3.6-4.9,5-7.7,5c-5.3,0-8.7-3.9-8.7-9.1c0-5.1,3.5-10.1,9.6-10.1c3.4,0,6.8,2.2,6.8,6.1c0,0.4,0,0.7-0.2,1
		c-0.3,0.4-1.3,0.6-3.1,0.6H401.1z"/>
	<path class="st0" d="M415.3,133.4c-0.5-0.9-0.7-3.2-0.6-5.1c0.3-0.4,1-0.4,1.3-0.1c0.8,2.5,2.5,4.9,4.9,4.9c1.4,0,2.5-1,2.5-2.5
		c0-1.7-1.5-2.8-3.1-3.5c-2.4-1.1-4.8-2.8-4.8-5.7c0-3.5,3-5.6,6.7-5.6c1.9,0,3.6,0.5,4.2,0.9c0.5,1,0.7,2.4,0.7,4.4
		c-0.1,0.4-0.9,0.5-1.2,0.2c-0.7-2.1-2.1-3.8-3.9-3.8c-1.5,0-2.5,1-2.5,2.4c0,1.3,1.3,2.3,3,3.1c2.4,1.2,5,2.7,5,6.3
		c0,3.9-3.5,5.7-7.1,5.7C418.6,134.8,416.8,134.5,415.3,133.4"/>
</g>
</svg>
