<?xml version="1.0" encoding="UTF-8"?>
<svg width="34px" height="34px" viewBox="0 0 34 34" version="1.1" xmlns="http://www.w3.org/2000/svg" xmlns:xlink="http://www.w3.org/1999/xlink">
    <!-- Generator: Sketch 63.1 (92452) - https://sketch.com -->
    <title>Shape</title>
    <desc>Created with Sketch.</desc>
    <g id="Page-1" stroke="none" stroke-width="1" fill="none" fill-rule="evenodd">
        <path d="M17,0 C7.60887097,0 0,7.60887097 0,17 C0,26.391129 7.60887097,34 17,34 C26.391129,34 34,26.391129 34,17 C34,7.60887097 26.391129,0 17,0 Z M17,7 C20.3136364,7 23,9.68636364 23,13 C23,16.3136364 20.3136364,19 17,19 C13.6863636,19 11,16.3136364 11,13 C11,9.68636364 13.6863636,7 17,7 Z M17,30 C12.9931741,30 9.40273038,28.1296875 7,25.2046875 C8.28327645,22.715625 10.7952218,21 13.7235495,21 C13.887372,21 14.0511945,21.028125 14.2081911,21.0773438 C15.0955631,21.3726563 16.0238908,21.5625 17,21.5625 C17.9761092,21.5625 18.9112628,21.3726563 19.7918089,21.0773438 C19.9488055,21.028125 20.112628,21 20.2764505,21 C23.2047782,21 25.7167235,22.715625 27,25.2046875 C24.5972696,28.1296875 21.0068259,30 17,30 Z" id="Shape" fill="#F8E999" fill-rule="nonzero"></path>
    </g>
</svg>