<?xml version="1.0" encoding="UTF-8"?>
<svg width="39px" height="34px" viewBox="0 0 39 34" version="1.1" xmlns="http://www.w3.org/2000/svg" xmlns:xlink="http://www.w3.org/1999/xlink">
    <!-- Generator: Sketch 63.1 (92452) - https://sketch.com -->
    <title>Shape</title>
    <desc>Created with Sketch.</desc>
    <g id="Page-1" stroke="none" stroke-width="1" fill="none" fill-rule="evenodd">
        <path d="M35.0625,0 L3.1875,0 C1.42773438,0 0,1.42773438 0,3.1875 L0,24.4375 C0,26.1972656 1.42773438,27.625 3.1875,27.625 L15.9375,27.625 L14.875,30.8125 L10.09375,30.8125 C9.21054687,30.8125 8.5,31.5230469 8.5,32.40625 C8.5,33.2894531 9.21054687,34 10.09375,34 L28.15625,34 C29.0394531,34 29.75,33.2894531 29.75,32.40625 C29.75,31.5230469 29.0394531,30.8125 28.15625,30.8125 L23.375,30.8125 L22.3125,27.625 L35.0625,27.625 C36.8222656,27.625 38.25,26.1972656 38.25,24.4375 L38.25,3.1875 C38.25,1.42773438 36.8222656,0 35.0625,0 Z M34,21.6484375 L4.25,21.6484375 L4.25,4.25 L34,4.25 L34,21.6484375 Z" id="Shape" fill="#F8E999" fill-rule="nonzero"></path>
    </g>
</svg>