<?xml version="1.0" encoding="utf-8"?>
<!-- Generator: Adobe Illustrator 23.0.1, SVG Export Plug-In . SVG Version: 6.00 Build 0)  -->
<svg version="1.1" id="Layer_1" xmlns="http://www.w3.org/2000/svg" xmlns:xlink="http://www.w3.org/1999/xlink" x="0px" y="0px"
	 width="550.4px" height="267.5px" viewBox="0 0 550.4 267.5" style="enable-background:new 0 0 550.4 267.5;" xml:space="preserve"
	>
<style type="text/css">
	.Arched_x0020_Green{fill:url(#SVGID_1_);stroke:#FFFFFF;stroke-width:0.25;stroke-miterlimit:1;}
	.st0{fill:#0E1F44;}
</style>
<linearGradient id="SVGID_1_" gradientUnits="userSpaceOnUse" x1="-35.8184" y1="623.5679" x2="-35.1113" y2="622.8608">
	<stop  offset="0" style="stop-color:#20AC4B"/>
	<stop  offset="0.9831" style="stop-color:#19361A"/>
</linearGradient>
<g>
	<path class="st0" d="M159.7,4v259.5h-59.6V157.4H59.6v106.1H0V4h59.6v100.5h40.6V4H159.7z"/>
	<path class="st0" d="M274.5,215.6c18.3,0,24.6-7.7,25.3-42.6l58.9,7.3c-0.7,63.6-18.6,87.2-82.5,87.2c-55.6,0-86.5-29.9-86.5-133.8
		C189.7,29.9,220.6,0,276.2,0c63.9,0,81.9,23.6,82.5,87.2l-58.9,7.3c-0.7-34.9-7-42.6-25.3-42.6c-19,0-24.6,28.6-24.6,81.9
		S255.6,215.6,274.5,215.6z"/>
	<path class="st0" d="M466.2,215.6c18.3,0,24.6-7.7,25.3-42.6l58.9,7.3c-0.7,63.6-18.6,87.2-82.5,87.2c-55.6,0-86.5-29.9-86.5-133.8
		C381.3,29.9,412.3,0,467.8,0c63.9,0,81.9,23.6,82.5,87.2l-58.9,7.3c-0.7-34.9-7-42.6-25.3-42.6c-19,0-24.6,28.6-24.6,81.9
		S447.2,215.6,466.2,215.6z"/>
</g>
</svg>
