<?xml version="1.0" encoding="utf-8"?>
<!-- Generator: Adobe Illustrator 24.0.3, SVG Export Plug-In . SVG Version: 6.00 Build 0)  -->
<svg version="1.1" id="Layer_1" xmlns="http://www.w3.org/2000/svg" xmlns:xlink="http://www.w3.org/1999/xlink" x="0px" y="0px"
	 viewBox="0 0 50 37" style="enable-background:new 0 0 50 37;" xml:space="preserve">
<style type="text/css">
	.st0{fill:#F7E998;}
</style>
<path class="st0" d="M33,26V5H17v21H0v11h18v-9h14v9h18V26H33z M25,6.7c1,0,1.9,0.8,1.9,1.8c0,0.5-0.2,1-0.6,1.4h-0.5
	c0.5-0.3,0.8-0.8,0.8-1.4C26.6,7.7,25.9,7,25,7c-0.9,0-1.6,0.7-1.6,1.6c0,0.6,0.3,1.1,0.8,1.4h-0.5c-0.4-0.3-0.6-0.8-0.6-1.4
	C23.1,7.5,24,6.7,25,6.7z M25.4,9.2l0.2-0.5l0,0.4L25.4,9.2L25.4,9.2L25.4,9.2z M25.3,9.3L25.3,9.3L25,9.4l-0.2-0.1l0,0l-0.2-0.7
	l0.1-0.5h0.7l0.1,0.5L25.3,9.3z M25.5,7.9h-0.9l-0.2,0.6l-0.1-0.4l0.4-0.4h0.6L25.5,7.9l0.2,0.3l-0.1,0.4L25.5,7.9z M24.7,9.3
	l-0.1-0.1l0-0.4L24.7,9.3z M24.7,9.4L25,9.6l0.3-0.1l0.1,0.5h-0.7L24.7,9.4z M25.6,10.1L25.6,10.1l-1.8,3.2l0.1-0.7L25.6,10.1z
	 M25.5,10.8l-0.4,1l-1.7,4.4l0.3-2.6L25.5,10.8z M25.9,10.1L25.9,10.1l-2.6,8.1l0.1-1.4L25.9,10.1z M20.6,9.7l0.3-0.4l-0.3-0.5
	l-0.2-0.1l-0.2-0.5l-0.2-0.5l0.2-0.2l0.5,0.6L20.9,8L21,8.3l-0.1,0.3l0.2,0.3l1.1,1.4l0.6-0.1h2.5l-1.5,2.1l0-0.5l-2-0.7L20.6,9.7z
	 M29.7,8.3l-0.2,0.5l-0.2,0.1l-0.2,0.4l0.2,0.4L28,10.9l-1.9,0.8l0.4,8.5l-3.2-1.4l1.2-3.6l1.7-5.1h0.9l0.6,0.1l1.1-1.4l0.2-0.3
	L29,8.3L29.1,8l0.1,0.1l0.5-0.6L30,7.8L29.7,8.3z"/>
<rect id="Rectangle" x="16" class="st0" width="18" height="4"/>
<rect id="Rectangle_2_" x="13" y="6" class="st0" width="3" height="19"/>
<rect id="Rectangle_3_" x="34" y="6" class="st0" width="3" height="19"/>
<g id="Group" transform="translate(20.000000, 29.000000)">
	<rect id="Rectangle_6_" x="4" class="st0" width="1" height="8"/>
	<rect id="Rectangle_7_" class="st0" width="1" height="8"/>
	<rect id="Rectangle_8_" x="8" class="st0" width="1" height="8"/>
</g>
</svg>
