<?xml version="1.0" encoding="utf-8"?>
<!-- Generator: Adobe Illustrator 23.0.1, SVG Export Plug-In . SVG Version: 6.00 Build 0)  -->
<svg version="1.1" id="Layer_1" xmlns="http://www.w3.org/2000/svg" xmlns:xlink="http://www.w3.org/1999/xlink" x="0px" y="0px"
	 width="396px" height="352.8px" viewBox="0 0 396 352.8" style="enable-background:new 0 0 396 352.8;" xml:space="preserve">
<style type="text/css">
	.st0{fill:#0E1F44;}
</style>
<path class="st0" d="M359.3,72h-42.5V50.4h28.8V0h-108v50.4h28.8V72h-81.7L147.5,0H72v50.4h28.8V72H0v50.4h21.6v108H0v50.4h100.8
	v21.6H72v50.4h108v-50.4h-28.8v-21.6h81.7l37.1,72h46.7l0,0v-72h42.5l36.7-36.7V108.7L359.3,72z M345.6,129.6v93.7l-7.2,7.2h-21.6
	v-108h21.6L345.6,129.6z M266.4,122.4v108l-55.6-108C210.8,122.4,266.4,122.4,266.4,122.4z M72,230.4v-108h28.8v108H72z
	 M151.2,230.4v-108l55.7,108H151.2z"/>
</svg>
