<?xml version="1.0" encoding="UTF-8"?>
<svg width="27px" height="34px" viewBox="0 0 27 34" version="1.1" xmlns="http://www.w3.org/2000/svg" xmlns:xlink="http://www.w3.org/1999/xlink">
    <!-- Generator: Sketch 63.1 (92452) - https://sketch.com -->
    <title>Shape</title>
    <desc>Created with Sketch.</desc>
    <g id="Page-1" stroke="none" stroke-width="1" fill="none" fill-rule="evenodd">
        <path d="M19.4726601,1.32250186 L1.80246989,6.06117909 C1.02669422,6.44100991 1.15330449,6.92212895 1.80246989,7.40209699 C3.43459142,8.60719659 6.87263585,7.85444097 8.67970975,7.36986892 L25.1022132,2.96843541 L26.1070384,3.51401059 L26.1070384,28.6749249 C19.6556695,30.3968247 13.2089045,32.1359894 6.7575356,33.8590401 C4.68227811,34.238871 0.372924806,34.0017645 0,31.2382075 L0,6.53424112 C0.0287750622,5.63530817 0.735490589,5.06325994 1.55270235,4.84456947 C7.53331127,3.24352501 13.5173732,1.64823556 19.4956801,0.0356810771 L19.6280454,0 L20.6305686,0.540971169 L20.6593436,1.96476124 L19.4738111,1.32365286 L19.4726601,1.32250186 Z M13.3757999,7.84868595 L13.3677429,11.7172053 C13.3654409,13.1858845 13.3619879,14.6557147 13.3596859,16.1243938 C13.0915023,16.0219546 12.8198657,15.9160624 12.5528331,15.8113212 C12.2834985,15.7054289 12.014164,15.5972347 11.7459804,15.4867385 C11.4754948,15.748016 11.2061602,16.0104446 10.9368256,16.2717222 C10.668642,16.5341507 10.3981565,16.7988813 10.1299729,17.0624609 C10.1299729,15.5488926 10.1299729,14.0341733 10.1299729,12.520605 L10.1299729,8.71654183 L8.57957253,9.13205373 L8.57957253,32.1946905 C14.0238143,30.6488942 19.5129452,29.2676912 24.980207,27.8070691 L24.980207,4.73752623 L13.3769509,7.84753495 L13.3757999,7.84868595 Z" id="Shape" fill="#F8E999"></path>
    </g>
</svg>