<?xml version="1.0" encoding="UTF-8"?>
<svg width="30px" height="36px" viewBox="0 0 30 36" version="1.1" xmlns="http://www.w3.org/2000/svg" xmlns:xlink="http://www.w3.org/1999/xlink">
    <title>noun_Chair_589403</title>
    <g id="Page-1" stroke="none" stroke-width="1" fill="none" fill-rule="evenodd">
        <g id="Group" transform="translate(-41.200000, 0.000000)" fill="#FAEA8D" fill-rule="nonzero">
            <g id="noun_Chair_589403" transform="translate(42.000000, 0.000000)">
                <path d="M4,19.8500763 L4,19.8500763 C4,18.3551972 5.39534884,18.1950316 6.5,18.0882545 C7.89534884,17.9280889 9.23255814,18.034866 10.627907,18.034866 L16.0348837,18.034866 C17.5465116,18.034866 19.0581395,18.034866 20.627907,18.034866 C21.8488372,18.034866 24,18.034866 24,19.8500763 L24,19.9034648 C24,20.9712356 23.1860465,21.3449553 22.372093,21.6652866 C20.627907,22.305949 18.5930233,22.7864458 16.3837209,23 L11.7906977,23 C9.58139535,22.7864458 7.48837209,22.3593375 5.80232558,21.7186751 C4.93023256,21.2915668 4,21.0246241 4,19.8500763 Z" id="Path"></path>
                <path d="M25,34.2846443 C25,35.283625 24.1509434,36.106315 23.1886792,35.9887878 C22.2830189,35.9300243 21.6037736,35.1073343 21.6603774,34.1671171 C21.6603774,33.9908264 21.7169811,33.8145357 21.7735849,33.638245 C19.3962264,32.815555 17.1320755,32.4629736 15.0943396,32.40421 C15.6603774,32.6980278 16.0566038,33.4031907 16,34.1671171 C15.8867925,34.9310436 15.3207547,35.5774428 14.5283019,35.69497 C13.509434,35.8124971 12.6603774,34.9898071 12.6603774,33.9908264 C12.6603774,33.3444271 13,32.7567914 13.5660377,32.4629736 C10.7924528,32.5805007 8.58490566,33.1681364 7.22641509,33.638245 C7.33962264,33.9908264 7.39622642,34.3434078 7.28301887,34.6959893 C7.11320755,35.4011521 6.49056604,35.9300243 5.75471698,35.9887878 C4.79245283,36.0475514 4,35.283625 4,34.2846443 C4,33.638245 4.33962264,33.0506093 4.90566038,32.7567914 L4.56603774,32.0516286 C4.67924528,31.992865 6.88679245,30.8175936 10.4528302,30.2299578 C11.1320755,30.1124307 11.8679245,30.0536671 12.6603774,29.9949036 L12.6603774,25.5876357 C12.6603774,25.2938179 12.8867925,25 13.2264151,25 L15.8867925,25 C16.1698113,25 16.4528302,25.2350543 16.4528302,25.5876357 L16.4528302,29.9949036 C18.8867925,30.1711943 21.6037736,30.75883 24.490566,32.0516286 L24.2075472,32.815555 C24.6603774,32.9918457 25,33.5794814 25,34.2846443 Z" id="Path"></path>
                <path d="M22.981371,13.09 L22.0359067,2.26666667 C21.3685201,0.396666667 19.7000537,0.283333333 19.7000537,0.283333333 C18.4208961,0.113333333 14.9727322,0 14.5278078,0 L14.5278078,0 C14.5278078,0 14.5278078,0 14.5278078,0 C14.5278078,0 14.5278078,0 14.5278078,0 L14.5278078,0 C14.0828834,0 10.6347195,0.113333333 9.29994633,0.283333333 C9.29994633,0.283333333 7.63147991,0.34 6.96409334,2.26666667 L6.01862904,13.09 C6.01862904,13.09 5.6293202,15.0733333 8.41009757,15.5833333 C8.41009757,15.5833333 13.0818035,15.8666667 13.4711124,15.8666667 L13.4711124,17 L14.4721922,17 L14.5278078,17 L15.5288876,17 L15.5288876,15.8666667 C15.973812,15.8666667 20.5899024,15.5833333 20.5899024,15.5833333 C23.3706798,15.0733333 22.981371,13.09 22.981371,13.09 Z" id="Path"></path>
                <path d="M3.51851852,16 L1.48148148,16 C0.679012346,16 0,15.3265306 0,14.5306122 L0,14.4693878 C0,13.6734694 0.679012346,13 1.48148148,13 L3.51851852,13 C4.32098765,13 5,13.6734694 5,14.4693878 L5,14.5306122 C5,15.3265306 4.32098765,16 3.51851852,16 Z" id="Path"></path>
                <path d="M4.21126761,19.5272727 L3.36619718,19.5272727 C2.91549296,19.5272727 2.57746479,19.2 2.57746479,18.7636364 L2.57746479,15.7636364 C2.57746479,15.3272727 2.23943662,15 1.78873239,15 C1.33802817,15 1,15.3272727 1,15.7636364 L1,18.7636364 C1,20.0181818 2.01408451,21 3.30985915,21 L4.21126761,21 C4.66197183,21 5,20.6727273 5,20.2363636 C4.94366197,19.8545455 4.6056338,19.5272727 4.21126761,19.5272727 Z" id="Path"></path>
                <path d="M25.4814815,16 L27.5185185,16 C28.3209877,16 29,15.3265306 29,14.5306122 L29,14.4693878 C29,13.6734694 28.3209877,13 27.5185185,13 L25.4814815,13 C24.6790123,13 24,13.6734694 24,14.4693878 L24,14.5306122 C24,15.3265306 24.6790123,16 25.4814815,16 Z" id="Path"></path>
                <path d="M23.7428571,19.5272727 L24.6,19.5272727 C25.0571429,19.5272727 25.4,19.2 25.4,18.7636364 L25.4,15.7636364 C25.4,15.3272727 25.7428571,15 26.2,15 C26.6571429,15 27,15.3272727 27,15.7636364 L27,18.7636364 C27,20.0181818 25.9714286,21 24.6571429,21 L23.8,21 C23.3428571,21 23,20.6727273 23,20.2363636 C23,19.8545455 23.3428571,19.5272727 23.7428571,19.5272727 Z" id="Path"></path>
            </g>
        </g>
    </g>
</svg>