<?xml version="1.0" encoding="utf-8"?>
<!-- Generator: Adobe Illustrator 25.1.0, SVG Export Plug-In . SVG Version: 6.00 Build 0)  -->
<svg version="1.1"
	 id="Layer_1" xmlns:cc="http://creativecommons.org/ns#" xmlns:dc="http://purl.org/dc/elements/1.1/" xmlns:rdf="http://www.w3.org/1999/02/22-rdf-syntax-ns#" xmlns:svg="http://www.w3.org/2000/svg"
	 xmlns="http://www.w3.org/2000/svg" xmlns:xlink="http://www.w3.org/1999/xlink" x="0px" y="0px" viewBox="0 0 37.2 46"
	 style="enable-background:new 0 0 37.2 46;" xml:space="preserve">
<style type="text/css">
	.st0{opacity:0.99;fill:#F7E998;enable-background:new    ;}
</style>
<path class="st0" d="M16.6,0c-2.9,0-5.3,2.4-5.3,5.3s2.4,5.3,5.3,5.3s5.3-2.4,5.3-5.3C21.9,2.4,19.6,0,16.6,0z M10,8.6
	c-1.6,0-2.9,1.6-3.5,2.9c-0.7,1.6-3.3,7.1-3.4,17c0,1.2-0.1,2.8,1.4,3.4c0.4,0.2,0.8,0.4,1.3,0.4H16l0.8,3.1v-8.2v-0.7h-6.5
	c-0.2-3.5,0.5-6.8,1.3-9.3l3.4,3.4c0.2,0.2,0.4,0.4,0.7,0.5c0.4,0.4,0.9,0.6,1.5,0.6h7.7c1.3,0,2.3-1,2.3-2.3s-1-2.3-2.3-2.3H18
	l-4.5-4.5c0.2-1.8-1-3.5-2.8-3.8h-0.1C10.4,8.6,10.2,8.6,10,8.6L10,8.6z M30,10.8l-0.8,0.7l2.7,2.5L30,10.8z M27.9,11L23,16.5h0.7
	h0.1h1c1.3,0,2.4,0.9,2.7,2.1l3.9-4.4L27.9,11L27.9,11z M32.5,14.3c-0.4,0.4-0.8,0.1-0.8,0.1l-4.1,4.5c0,0.1,0,0.3,0,0.4
	s0,0.3,0,0.4L32.5,14.3L32.5,14.3z M0,16.2v17v2.3V46h2.7V36h9.8v10h2.7V35.5v-2.3c0-0.3-0.2-0.5-0.5-0.5h-12V16.2H0L0,16.2z
	 M11.9,22c-0.3,0-0.5,0.2-0.5,0.5v2.6c0,0.3,0.2,0.5,0.5,0.5h5.5V46h2.7V25.5h8.4V46h2.7V25.5h5.5c0.3,0,0.5-0.2,0.5-0.5v-2.6
	c0-0.3-0.2-0.5-0.5-0.5H11.9V22z M20.9,28.2V46c0.3,0.1,0.7,0,1,0l1.2-0.3c1.2-0.3,2-1.6,1.6-2.8L21,28.4
	C21,28.3,20.9,28.3,20.9,28.2L20.9,28.2z"/>
</svg>
