<?xml version="1.0" encoding="UTF-8"?>
<svg width="35px" height="34px" viewBox="0 0 35 34" version="1.1" xmlns="http://www.w3.org/2000/svg" xmlns:xlink="http://www.w3.org/1999/xlink">
    <!-- Generator: Sketch 63.1 (92452) - https://sketch.com -->
    <title>Shape</title>
    <desc>Created with Sketch.</desc>
    <g id="Page-1" stroke="none" stroke-width="1" fill="none" fill-rule="evenodd">
        <path d="M33.2909219,8.49991323 L16.2910954,8.49991323 C14.8743275,8.49991323 14.8743275,8.49991323 14.8743275,9.91668113 L14.8743275,11.333449 C14.8743275,12.7502169 14.8743275,12.7502169 16.2910954,12.7502169 L33.2909219,12.7502169 C34.7076898,12.7502169 34.7076898,12.7502169 34.7076898,11.333449 L34.7076898,9.91668113 C34.7076898,8.49991323 34.7076898,8.49991323 33.2909219,8.49991323 Z M33.2909219,21.2497831 L16.2910954,21.2497831 C14.8743275,21.2497831 14.8743275,21.2497831 14.8743275,22.666551 L14.8743275,24.0833189 C14.8743275,25.5000868 14.8743275,25.5000868 16.2910954,25.5000868 L33.2909219,25.5000868 C34.7076898,25.5000868 34.7076898,25.5000868 34.7076898,24.0833189 L34.7076898,22.666551 C34.7076898,21.2497831 34.7076898,21.2497831 33.2909219,21.2497831 Z M33.2909219,29.7496963 L16.2910954,29.7496963 C14.8743275,29.7496963 14.8743275,29.7496963 14.8743275,31.1664642 L14.8743275,32.5832321 C14.8743275,34 14.8743275,34 16.2910954,34 L33.2909219,34 C34.7076898,34 34.7076898,34 34.7076898,32.5832321 L34.7076898,31.1664642 C34.7076898,29.7496963 34.7076898,29.7496963 33.2909219,29.7496963 Z M33.2909219,0 L16.2910954,0 C14.8743275,0 14.8743275,0 14.8743275,1.4167679 L14.8743275,2.83353579 C14.8743275,4.25030369 14.8743275,4.25030369 16.2910954,4.25030369 L33.2909219,4.25030369 C34.7076898,4.25030369 34.7076898,4.25030369 34.7076898,2.83353579 L34.7076898,1.4167679 C34.7076898,0 34.7076898,0 33.2909219,0 Z M7.79152928,0 L4.95834056,0 L0,12.7498698 L3.54157267,12.7498698 L6.37476138,4.24995662 L9.2079501,12.7498698 L12.7495228,12.7498698 L7.79152928,0 Z M9.20829718,7.79152928 L3.54157267,7.79152928 L2.83318872,10.624718 L9.91633405,10.624718 L9.20829718,7.79152928 Z M11.3331019,21.2497831 L0.708383949,21.2497831 L0.708383949,24.7913557 L6.37510846,24.7913557 L0.708383949,31.7328937 L0.708383949,33.9996529 L11.3331019,33.9996529 L11.3331019,30.4580803 L5.94993926,30.4580803 L11.3331019,23.5165423 L11.3331019,21.2497831 Z" id="Shape" fill="#F8E999" fill-rule="nonzero"></path>
    </g>
</svg>