<?xml version="1.0" standalone="no"?>
<!DOCTYPE svg PUBLIC "-//W3C//DTD SVG 20010904//EN"
 "http://www.w3.org/TR/2001/REC-SVG-20010904/DTD/svg10.dtd">
<svg version="1.0" xmlns="http://www.w3.org/2000/svg"
 width="260.000000pt" height="260.000000pt" viewBox="0 0 260.000000 260.000000"
 preserveAspectRatio="xMidYMid meet">
<metadata>
Created by potrace 1.11, written by Peter Selinger 2001-2013
</metadata>
<g transform="translate(0.000000,260.000000) scale(0.100000,-0.100000)"
fill="#000000" stroke="none">
<path d="M0 1300 l0 -1300 1300 0 1300 0 0 1300 0 1300 -1300 0 -1300 0 0
-1300z m500 535 l0 -415 265 0 265 0 0 415 0 415 120 0 120 0 0 -945 0 -945
-120 0 -120 0 -2 413 -3 412 -262 3 -263 2 0 -415 0 -415 -125 0 -125 0 0 945
0 945 125 0 125 0 0 -415z m1310 -420 l0 -835 270 0 270 0 0 -115 0 -115 -395
0 -395 0 0 950 0 950 125 0 125 0 0 -835z"/>
</g>
</svg>
