<?xml version="1.0" encoding="utf-8"?>
<!-- Generator: Adobe Illustrator 22.0.1, SVG Export Plug-In . SVG Version: 6.00 Build 0)  -->
<svg version="1.0" id="Layer_1" xmlns="http://www.w3.org/2000/svg" xmlns:xlink="http://www.w3.org/1999/xlink" x="0px" y="0px"
	 width="341px" height="300px" viewBox="0 0 341 300" style="enable-background:new 0 0 341 300;" xml:space="preserve">
<style type="text/css">
	.st0{fill:#333333;}
</style>
<g>
	<path class="st0" d="M341,280c0,3,0,6,0,9c-5.2,7.8-12.5,10.9-21.7,10.3c-4.1-0.3-8.3-0.1-12.5,0c-7.3,0.2-14.5,0.5-21.8,0.8
		c-91.7,0-183.3,0-275,0c-3.7-2.8-9.3-4-9-10.1c0.2-3.7,0.4-7.8,1.9-11.1c4.5-10,9.2-20,14.7-29.4C64.2,168.3,111,87.4,157.9,6.5
		c1.5-2.7,4.7-4.4,7.1-6.5c1,0,2,0,3,0c10.7-0.1,14.8,7.8,19.2,15.6c3.1,5.5,6.1,11.1,9.3,16.5c46.9,80.8,93.7,161.5,140.6,242.3
		C338.2,276.3,339.7,278.1,341,280z M188.9,138.4c0-15.8,0.1-31.6-0.1-47.5c0-2.9-0.5-6.1-1.9-8.6c-3.2-5.6-14.3-9.2-20.9-7.4
		c-8.2,2.2-13.6,8.8-13.7,17c-0.1,32-0.1,63.9,0.1,95.9c0,3.4,1.4,7.3,3.5,10c4.4,6,13.9,8.3,20.8,5.8c6.7-2.4,12.2-10.3,12.2-17.8
		C188.9,170.1,188.9,154.2,188.9,138.4z M190.7,246.5c-0.1-11.8-8.8-21.1-20-21.2c-11.3-0.1-20.5,9.5-20.4,21.3
		c0.1,11.6,8.9,20.2,20.3,20.1C182.1,266.6,190.8,257.9,190.7,246.5z"/>
	<path class="st0" d="M285,300c7.3-0.3,14.5-0.6,21.8-0.8c4.2-0.1,8.3-0.3,12.5,0c9.2,0.6,16.6-2.5,21.7-10.3c0,3.7,0,7.3,0,11
		C322.3,300,303.7,300,285,300z"/>
</g>
</svg>
