<?xml version="1.0" encoding="utf-8"?>
<!-- Generator: Adobe Illustrator 23.0.2, SVG Export Plug-In . SVG Version: 6.00 Build 0)  -->
<svg version="1.1" id="Layer_1" xmlns="http://www.w3.org/2000/svg" xmlns:xlink="http://www.w3.org/1999/xlink" x="0px" y="0px"
	 width="421.9px" height="512px" viewBox="0 0 421.9 512" style="enable-background:new 0 0 421.9 512;" xml:space="preserve">
<style type="text/css">
	.st0{fill:#000;}
</style>
<g>
	<path class="st0" d="M325,512c-1.3,0-2.7,0-4,0c-2.7-1.6-5.5-3.1-8.2-4.7c-45-27.2-90.1-54.3-135-81.6c-9.1-5.5-17.6-5.6-26.6,0.1
		c-10.8,6.8-21.9,13.3-32.9,19.9C81.5,467.8,44.7,489.9,8,512c-1.3,0-2.7,0-4,0c-3.9-3.2-3.3-7.7-3.3-12c0-130.1,0-260.3,0-390.4
		c0-2.2-0.5-4.6,0.4-6.4c1.5-3.1,3.4-6.5,6-8.5c2.1-1.6,5.7-1.6,8.6-1.6C114.9,93,214,93,313.2,93c1.7,0,3.4-0.1,5,0.2
		c5.5,0.9,9.2,4.7,9.8,10.4c0.2,2,0.2,4,0.2,6c0,130.1,0,260.3,0,390.4c0,1.5,0.3,3.1-0.1,4.5C327.3,507.1,326,509.5,325,512z
		 M182,282.9c13.7,0,26.6,0.1,39.6,0c9.5-0.1,14-4.6,14.2-14.1c0-1.5,0-3,0-4.5c0-12.3-4.1-16.3-16.5-16.3c-12.3,0-24.6,0-37.3,0
		c0-11.6,0-22.7,0-33.8c0-17.4-2.9-20.2-20.4-19.8c-10.2,0.2-14.4,4.4-14.4,14.7c-0.1,11.2,0,22.3,0,33.5c0,1.7,0,3.5,0,5.4
		c-7.3,0-13.8,0-20.3,0c-6.7,0-13.3-0.1-20,0c-8.5,0.1-12.9,4.3-13.4,12.7c-0.2,3-0.2,6,0,9c0.4,8.7,4.7,13,13.5,13.2
		c6,0.1,12,0,18,0c7.3,0,14.5,0,22.2,0c0,11.8,0,22.9,0,34c0,17.2,2.4,19.6,19.7,19.5c11.1-0.1,15.2-4.2,15.2-15.4
		C182,308.5,182,296,182,282.9z"/>
	<path class="st0" d="M413,0c6.6,3.3,8.4,8.9,8.4,16c-0.1,131.8-0.1,263.6-0.1,395.4c0,3.7,1.4,8.9-2.9,10.1
		c-2.9,0.8-7.2-1.4-10.1-3.3c-11-7.2-21.7-14.9-32.6-22.3c-8.6-5.8-12.6-13.6-12.6-24c0.1-99.1,0-198.3,0-297.4
		c0-12.6-3.8-16.4-16.3-16.5c-79,0-158,0-236.9,0c-2.8,0-5.8,0-8.4-0.8C97,55.7,94,52.4,94,47.5c-0.2-12.3-0.1-24.6,0-37
		c0-5.4,4.1-8,8-10.6C205.6,0,309.3,0,413,0z"/>
</g>
</svg>
