<?xml version="1.0" encoding="utf-8"?>
<!-- Generator: Adobe Illustrator 23.0.2, SVG Export Plug-In . SVG Version: 6.00 Build 0)  -->
<svg version="1.1" id="Layer_1" xmlns="http://www.w3.org/2000/svg" xmlns:xlink="http://www.w3.org/1999/xlink" x="0px" y="0px"
	 width="327.7px" height="419px" viewBox="0 0 327.7 419" style="enable-background:new 0 0 327.7 419;" xml:space="preserve">
<style type="text/css">
	.st0{fill:#000;}
</style>
<g>
	<g>
		<path class="st0" d="M307.6,20v368.2c-10-6.1-20.1-12.1-30.1-18.2c-29.5-17.8-60-36.2-89.9-54.4l0,0l0,0c-7.7-4.7-15.7-7-23.7-7
			c-8.2,0-16.2,2.5-23.9,7.3c-7.9,5-16.2,9.9-24.2,14.7c-2.8,1.7-5.5,3.3-8.3,4.9c-22.8,13.6-45.9,27.6-68.3,41
			c-6.3,3.8-12.7,7.6-19,11.5V20H307.6 M314.6,0c-0.7,0-1.4,0-2,0C213.5,0,114.3,0,15.2,0c-2.9,0-6.5,0-8.6,1.6
			C3.9,3.6,2,7,0.5,10.2c-0.9,1.8-0.4,4.2-0.4,6.4c0,130.1,0,260.3,0,390.4c0,4.3-0.6,8.8,3.3,12c1.3,0,2.7,0,4,0
			c36.8-22.1,73.5-44.3,110.3-66.3c11-6.6,22.1-13.1,32.9-19.9c4.5-2.8,8.9-4.2,13.3-4.2c4.4,0,8.8,1.4,13.3,4.2
			c44.9,27.3,90,54.4,135,81.6c2.7,1.6,5.5,3.1,8.2,4.7c1.3,0,2.7,0,4,0c1-2.5,2.3-5,3.1-7.5c0.4-1.4,0.1-3,0.1-4.5
			c0-130.1,0-260.3,0-390.4c0-2,0-4-0.2-6c-0.6-5.7-4.3-9.5-9.8-10.4C316.6,0,315.6,0,314.6,0L314.6,0z"/>
	</g>
</g>
</svg>
