<?xml version="1.0" encoding="utf-8"?>
<!-- Generator: Adobe Illustrator 23.0.2, SVG Export Plug-In . SVG Version: 6.00 Build 0)  -->
<svg version="1.1" id="Layer_1" xmlns="http://www.w3.org/2000/svg" xmlns:xlink="http://www.w3.org/1999/xlink" x="0px" y="0px"
	 width="327.7px" height="419px" viewBox="0 0 327.7 419" style="enable-background:new 0 0 327.7 419;" xml:space="preserve">
<style type="text/css">
	.st0{fill:#000;}
</style>
<g>
	<path class="st0" d="M324.4,419c-1.3,0-2.7,0-4,0c-2.7-1.6-5.5-3.1-8.2-4.7c-45-27.2-90.1-54.3-135-81.6
		c-9.1-5.5-17.6-5.6-26.6,0.1c-10.8,6.8-21.9,13.3-32.9,19.9C80.9,374.7,44.2,396.9,7.4,419c-1.3,0-2.7,0-4,0
		c-3.9-3.2-3.3-7.7-3.3-12c0-130.1,0-260.3,0-390.4c0-2.2-0.5-4.6,0.4-6.4C2,7,3.9,3.6,6.6,1.6c2.1-1.6,5.7-1.6,8.6-1.6
		C114.3,0,213.5,0,312.6,0c1.7,0,3.4-0.1,5,0.2c5.5,0.9,9.2,4.7,9.8,10.4c0.2,2,0.2,4,0.2,6c0,130.1,0,260.3,0,390.4
		c0,1.5,0.3,3.1-0.1,4.5C326.7,414,325.4,416.5,324.4,419z"/>
</g>
</svg>
