<?xml version="1.0" encoding="utf-8"?>
<!-- Generator: Adobe Illustrator 23.0.2, SVG Export Plug-In . SVG Version: 6.00 Build 0)  -->
<svg version="1.1" id="Layer_1" xmlns="http://www.w3.org/2000/svg" xmlns:xlink="http://www.w3.org/1999/xlink" x="0px" y="0px"
	 width="496px" height="496px" viewBox="0 0 496 496" style="enable-background:new 0 0 496 496;" xml:space="preserve">
<style type="text/css">
	.st0{fill:#FFFFFF;}
</style>
<g transform="translate(0,496) scale(0.1,-0.1)" class="st0" stroke="none">
    <path d="M2195 4949 c-542 -73 -1023 -295 -1395 -644 -242 -226 -410 -453
    -555 -750 -122 -248 -198 -504 -232 -780 -10 -78 -10 -512 0 -590 58 -467 256
    -928 552 -1285 341 -412 831 -720 1333 -836 237 -55 273 -59 587 -58 285 0
    307 1 436 27 586 115 1085 404 1454 842 52 61 128 162 169 224 75 112 199 347
    249 471 68 169 128 401 154 595 10 78 10 552 0 630 -55 408 -221 821 -463
    1151 -323 442 -790 768 -1318 920 -241 70 -362 86 -646 90 -140 1 -286 -2
    -325 -7z m470 -559 c303 -32 636 -149 870 -306 521 -348 839 -912 862 -1529 7
    -205 -4 -320 -54 -530 -85 -361 -270 -680 -547 -943 -572 -541 -1428 -676
    -2135 -337 -217 105 -366 210 -537 380 -226 224 -382 483 -477 790 -21 69 -32
    114 -62 265 -31 152 -31 450 0 600 3 14 8 41 11 60 25 142 86 324 159 475 185
    383 482 685 860 875 332 166 702 237 1050 200z"/>
    <path d="M1240 3718 l-245 -248 495 -495 495 -495 -498 -497 -497 -498 250
    -250 250 -250 498 498 497 497 495 -495 495 -495 247 248 248 247 -495 495
    -495 495 497 497 498 498 -250 250 -250 250 -495 -495 -495 -495 -495 495
    c-272 272 -497 494 -500 493 -3 -1 -115 -113 -250 -250z"/>
</g>
</svg>
