<svg id="Layer_1" data-name="Layer 1" xmlns="http://www.w3.org/2000/svg" viewBox="0 0 489.9 177.24"><defs><style>.cls-1{font-size:21.14px;}.cls-1,.cls-10{font-family:GillSansMT, Gill Sans MT;}.cls-2{letter-spacing:0em;}.cls-3{letter-spacing:-0.02em;}.cls-4{letter-spacing:0em;}.cls-5{letter-spacing:-0.1em;}.cls-6{letter-spacing:0em;}.cls-7{letter-spacing:-0.02em;}.cls-8{letter-spacing:0em;}.cls-9{letter-spacing:0em;}.cls-10{font-size:22.69px;}.cls-11{letter-spacing:0em;}.cls-12{letter-spacing:-0.1em;}.cls-13{letter-spacing:-0.02em;}.cls-14{fill:#1b3665;}.cls-15{fill:#939393;}.cls-16{fill:#f89b43;}.cls-17{fill:#6d8b3e;}.cls-18{letter-spacing:0em;}.cls-19{letter-spacing:-0.01em;}.cls-20{fill:#43505f;}.cls-21{fill:none;stroke:#43505f;stroke-miterlimit:10;}.cls-22{letter-spacing:0em;}.cls-23{fill:#640e0e;}.cls-24{fill:#8e68ad;}</style></defs><title>key</title><text class="cls-1" transform="translate(31.52 49.2)">Re<tspan class="cls-2" x="22.9" y="0">s</tspan><tspan x="31.1" y="0">t</tspan><tspan class="cls-3" x="38.14" y="0">r</tspan><tspan x="45.98" y="0">o</tspan><tspan class="cls-4" x="57.65" y="0">o</tspan><tspan x="69.36" y="0">ms</tspan><tspan class="cls-5" x="93.79" y="0">,</tspan><tspan x="96.32" y="0"> </tspan><tspan class="cls-6" x="102.19" y="0">E</tspan><tspan x="112.78" y="0">l</tspan><tspan class="cls-7" x="117.42" y="0">e</tspan><tspan x="127.21" y="0">vators </tspan><tspan class="cls-4" x="186.58" y="0">&amp;</tspan><tspan x="199.84" y="0" xml:space="preserve"> S</tspan><tspan class="cls-8" x="215.4" y="0">t</tspan><tspan x="222.48" y="0">ai</tspan><tspan class="cls-9" x="236.14" y="0">r</tspan><tspan x="244.47" y="0">s</tspan></text><text class="cls-1" transform="translate(31.52 107.91)">Graduat<tspan class="cls-4" x="70.46" y="0">e</tspan><tspan x="80.63" y="0" xml:space="preserve"> Room</tspan></text><text class="cls-10" transform="translate(31.52 19.08)">Shelves</text><text class="cls-1" transform="translate(31.52 79.6)">St<tspan class="cls-11" x="16.73" y="0">u</tspan><tspan x="27.38" y="0">dy</tspan><tspan class="cls-12" x="47.42" y="0"> </tspan><tspan x="51.27" y="0">A</tspan><tspan class="cls-13" x="65.37" y="0">r</tspan><tspan x="73.23" y="0">e</tspan><tspan class="cls-2" x="83.36" y="0">a</tspan><tspan x="92.45" y="0">s</tspan></text><rect class="cls-14" y="4.9" width="14.4" height="14.4"/><rect class="cls-15" y="33.37" width="14.4" height="14.4"/><rect class="cls-16" y="63.48" width="14.4" height="14.4"/><rect class="cls-17" y="93.72" width="14.4" height="14.4"/><text class="cls-1" transform="translate(396.08 21.91)">Re<tspan class="cls-2" x="22.9" y="0">s</tspan><tspan x="31.1" y="0">t</tspan><tspan class="cls-13" x="38.14" y="0">r</tspan><tspan x="46" y="0">o</tspan><tspan class="cls-18" x="57.67" y="0">o</tspan><tspan x="69.38" y="0">ms</tspan></text><text class="cls-1" transform="translate(396.08 53.67)">El<tspan class="cls-19" x="15.21" y="0">e</tspan><tspan x="25.08" y="0">vators</tspan></text><text class="cls-1" transform="translate(396.08 84.71)">Stairs</text><path class="cls-20" d="M372.22,6.57h1.12V21.45h-1.15V6.69C372.18,6.63,372.18,6.58,372.22,6.57Z"/><path class="cls-20" d="M378.51,6.61a1.18,1.18,0,0,1,1.26,1.12,1.21,1.21,0,0,1-2.41.07A1.15,1.15,0,0,1,378.51,6.61Z"/><path class="cls-20" d="M366.57,6.65A1.21,1.21,0,0,1,368,8.28a1.23,1.23,0,0,1-2.27-.92A1.2,1.2,0,0,1,366.57,6.65Z"/><path class="cls-20" d="M380.77,10.93h-.52c-.16,2.71.1,6,0,9,0,.76,0,1.43-.67,1.45-1,0-.71-1.8-.71-2.83V15.05h-.52c-.07,1.08,0,2.29,0,3.53,0,1,.31,2.85-.7,2.83-.82,0-.63-1.22-.63-2.16V10.93h-.56c-.07.7,0,1.57,0,2.34s.2,1.93-.59,1.78c-.49-.09-.34-1.28-.34-2.19,0-2.06-.2-3.41,1.41-3.61a21.69,21.69,0,0,1,3.42,0,1.62,1.62,0,0,1,1.45,1.3c.08.56,0,1.57,0,2.42s.15,1.94-.29,2.08c-.76.25-.64-.9-.64-1.71Z"/><path class="cls-20" d="M368.69,11h-.52c.43,1.78,1,3.71,1.53,5.54h-1.45c-.07.76,0,1.6,0,2.53,0,.72.18,2.06-.22,2.3a.81.81,0,0,1-.71,0c-.36-.3-.19-1.56-.19-2.31V16.54c-.11-.09-.38,0-.56,0V19c0,.72.19,2.06-.22,2.3a.86.86,0,0,1-.67,0c-.4-.24-.22-1.57-.22-2.3V16.5h-1.49c.51-1.83,1-3.66,1.53-5.5-.09-.09-.34,0-.49,0-.22.66-.41,1.24-.59,1.86-.11.36-.28,1.63-.78,1.67-1.07.1-.14-2,0-2.45.37-1.2.51-2.58,1.75-2.75a11.68,11.68,0,0,1,1.45,0c1.32,0,2.21,0,2.67.93a14.92,14.92,0,0,1,.6,1.89c.08.27.19.62.29,1s.49,1.44-.29,1.41c-.52,0-.71-1.24-.82-1.63C369,12.15,368.87,11.6,368.69,11Z"/><path class="cls-20" d="M365.59,51.42V41.3l3.14,3.14a.86.86,0,1,0,1.21-1.21l-4.35-4.35-.86-.86-.86.86-4.34,4.35a.86.86,0,0,0,1.21,1.21l3.13-3.14V51.42a.86.86,0,0,0,1.72,0Z"/><path class="cls-20" d="M377.43,38.88V49l-3.14-3.14a.86.86,0,0,0-1.21,1.21l4.35,4.35.85.85.86-.85,4.35-4.35a.86.86,0,0,0,0-1.21.85.85,0,0,0-1.21,0L379.14,49V38.88a.86.86,0,1,0-1.71,0Z"/><rect class="cls-21" x="356.27" y="70.67" width="31.65" height="14.75"/><line class="cls-21" x1="369.3" y1="70.67" x2="369.3" y2="85.42"/><line class="cls-21" x1="373.06" y1="71.28" x2="373.06" y2="85.42"/><line class="cls-21" x1="376.83" y1="71.28" x2="376.83" y2="84.81"/><line class="cls-21" x1="380.59" y1="71.28" x2="380.59" y2="85.42"/><line class="cls-21" x1="384.36" y1="70.67" x2="384.36" y2="84.81"/><text class="cls-10" transform="translate(32.43 138.48)">O<tspan class="cls-22" x="18.68" y="0">f</tspan><tspan x="24.37" y="0">f</tspan><tspan class="cls-22" x="30.04" y="0">i</tspan><tspan x="35.04" y="0">ces/Classrooms</tspan></text><rect class="cls-23" x="0.91" y="124.17" width="14.4" height="14.4"/><text class="cls-10" transform="translate(32.43 170.84)">Computer Cluster</text><rect class="cls-24" x="0.91" y="156.53" width="14.4" height="14.4"/></svg>