<?xml version="1.0" encoding="utf-8"?>
<!-- Generator: Adobe Illustrator 24.1.0, SVG Export Plug-In . SVG Version: 6.00 Build 0)  -->
<svg version="1.1" id="Layer_1" xmlns="http://www.w3.org/2000/svg" xmlns:xlink="http://www.w3.org/1999/xlink" x="0px" y="0px"
	 viewBox="0 0 531 208.2" style="enable-background:new 0 0 531 208.2;" xml:space="preserve">
<style type="text/css">
	.st0{enable-background:new    ;}
	.st1{fill:#1B3665;}
	.st2{fill:#939393;}
	.st3{fill:#F89B43;}
	.st4{fill:#6D8B3E;}
	.st5{fill:none;}
	.st6{fill:#43505F;}
	.st7{fill:none;stroke:#43505F;stroke-miterlimit:10;}
	.st8{fill:#640E0E;}
	.st9{fill:#8E68AD;}
	.st10{fill:#F44336;}
	.st11{fill:#FFFFFF;}
</style>
<g class="st0">
	<path d="M33.2,49.2V34.8h3.6c1.5,0,2.6,0.4,3.5,1.1c0.9,0.7,1.3,1.7,1.3,2.9c0,0.8-0.2,1.6-0.6,2.2c-0.4,0.6-1,1.1-1.8,1.4
		c0.5,0.3,0.9,0.7,1.4,1.2s1.1,1.4,1.9,2.7c0.5,0.8,0.9,1.4,1.2,1.8l0.8,1H42l-0.6-1c0,0-0.1-0.1-0.1-0.2l-0.4-0.6L40,46.5l-0.7-1.1
		c-0.4-0.6-0.8-1.1-1.2-1.4c-0.4-0.4-0.7-0.6-1-0.8S36.3,43,35.7,43h-0.5v6.3L33.2,49.2L33.2,49.2z M35.9,36.5h-0.6v4.6H36
		c1,0,1.8-0.1,2.2-0.3s0.7-0.4,0.9-0.8s0.3-0.8,0.3-1.2c0-0.5-0.1-0.9-0.4-1.2s-0.6-0.6-1-0.8S36.9,36.5,35.9,36.5z"/>
	<path d="M53.7,44.6H47c0,0.9,0.4,1.6,0.9,2.2c0.6,0.5,1.3,0.8,2.2,0.8c1.2,0,2.4-0.4,3.4-1.2v1.8c-0.6,0.4-1.2,0.7-1.7,0.8
		c-0.6,0.2-1.2,0.2-2,0.2c-1,0-1.9-0.2-2.5-0.7c-0.6-0.4-1.2-1-1.6-1.8c-0.4-0.7-0.6-1.6-0.6-2.5c0-1.4,0.4-2.6,1.2-3.5
		s1.9-1.4,3.2-1.4s2.3,0.4,3,1.3c0.8,0.9,1.1,2.1,1.1,3.5L53.7,44.6L53.7,44.6z M47.1,43.5h4.8c0-0.8-0.3-1.3-0.7-1.7
		s-0.9-0.6-1.6-0.6c-0.7,0-1.2,0.2-1.7,0.6C47.5,42.2,47.2,42.7,47.1,43.5z"/>
</g>
<g class="st0">
	<path d="M55.3,48.5v-2c0.5,0.4,1.1,0.7,1.6,0.9c0.6,0.2,1,0.3,1.4,0.3s0.7-0.1,1-0.3s0.4-0.4,0.4-0.7s-0.1-0.5-0.3-0.7
		s-0.6-0.4-1.2-0.8c-1.2-0.7-2-1.3-2.4-1.7c-0.4-0.5-0.6-1-0.6-1.6c0-0.7,0.3-1.3,0.9-1.8c0.6-0.5,1.3-0.7,2.2-0.7s1.9,0.3,2.9,0.8
		v1.9c-1.1-0.7-2-1-2.7-1c-0.4,0-0.7,0.1-0.9,0.2c-0.2,0.2-0.3,0.4-0.3,0.6c0,0.2,0.1,0.4,0.3,0.6c0.2,0.2,0.6,0.4,1.1,0.7l0.7,0.4
		c1.6,0.9,2.4,1.9,2.4,3c0,0.8-0.3,1.4-0.9,1.9s-1.4,0.7-2.3,0.7c-0.6,0-1.1-0.1-1.5-0.2S56,48.8,55.3,48.5z"/>
</g>
<g class="st0">
	<path d="M62.6,41.2l3.5-3.5v2h3v1.7h-3V46c0,1.1,0.5,1.6,1.4,1.6c0.7,0,1.4-0.2,2.1-0.7v1.8c-0.7,0.4-1.5,0.6-2.4,0.6
		s-1.6-0.3-2.1-0.8c-0.2-0.2-0.3-0.3-0.4-0.5s-0.2-0.4-0.3-0.7c-0.1-0.3-0.1-0.9-0.1-1.7v-4.2h-1.7C62.6,41.4,62.6,41.2,62.6,41.2z"
		/>
</g>
<g class="st0">
	<path d="M73,39.7v2.2l0.1-0.2c0.9-1.5,1.8-2.2,2.7-2.2c0.7,0,1.4,0.4,2.2,1.1l-1,1.7c-0.7-0.6-1.3-0.9-1.8-0.9
		c-0.6,0-1.1,0.3-1.6,0.9S73,43.4,73,44.2v5h-1.9v-9.5H73z"/>
</g>
<g class="st0">
	<path d="M83.4,39.7c1.4,0,2.6,0.5,3.6,1.4s1.4,2.1,1.4,3.5s-0.5,2.5-1.5,3.4s-2.2,1.4-3.7,1.4c-1.4,0-2.6-0.5-3.6-1.4
		s-1.4-2.1-1.4-3.4c0-1.4,0.5-2.5,1.5-3.5S81.9,39.7,83.4,39.7z M83.3,41.4c-0.9,0-1.6,0.3-2.2,0.9s-0.9,1.3-0.9,2.3
		c0,0.9,0.3,1.6,0.9,2.2c0.6,0.6,1.4,0.9,2.3,0.9s1.7-0.3,2.3-0.9c0.6-0.6,0.9-1.3,0.9-2.2s-0.3-1.6-0.9-2.2
		C85,41.7,84.2,41.4,83.3,41.4z"/>
</g>
<g class="st0">
	<path d="M95,39.7c1.4,0,2.6,0.5,3.6,1.4s1.4,2.1,1.4,3.5s-0.5,2.5-1.5,3.4s-2.2,1.4-3.7,1.4c-1.4,0-2.6-0.5-3.6-1.4
		S90,45.9,90,44.5s0.5-2.5,1.5-3.5S93.6,39.7,95,39.7z M94.9,41.4c-0.9,0-1.6,0.3-2.2,0.9s-0.9,1.3-0.9,2.3c0,0.9,0.3,1.6,0.9,2.2
		c0.6,0.6,1.4,0.9,2.3,0.9s1.7-0.3,2.3-0.9c0.6-0.6,0.9-1.3,0.9-2.2s-0.3-1.6-0.9-2.2C96.6,41.7,95.9,41.4,94.9,41.4z"/>
</g>
<g class="st0">
	<path d="M110,42.3v6.9h-1.9v-5.3c0-1.1-0.1-1.8-0.4-2.2s-0.8-0.6-1.5-0.6c-0.4,0-0.8,0.1-1.1,0.3s-0.7,0.5-1.1,0.9v6.9h-1.9v-9.5
		h1.9V41c1-1,1.9-1.4,2.8-1.4c1.2,0,2.1,0.6,2.8,1.7c1-1.2,2.1-1.7,3.1-1.7c0.9,0,1.7,0.3,2.3,1c0.6,0.7,0.9,1.7,0.9,3.1v5.6H114
		v-5.6c0-0.8-0.2-1.4-0.5-1.8c-0.3-0.4-0.8-0.6-1.4-0.6C111.4,41.1,110.7,41.5,110,42.3z"/>
	<path d="M118,48.5v-2c0.5,0.4,1.1,0.7,1.6,0.9c0.6,0.2,1,0.3,1.4,0.3s0.7-0.1,1-0.3s0.4-0.4,0.4-0.7s-0.1-0.5-0.3-0.7
		c-0.2-0.2-0.6-0.4-1.2-0.8c-1.2-0.7-2-1.3-2.4-1.7c-0.4-0.5-0.6-1-0.6-1.6c0-0.7,0.3-1.3,0.9-1.8s1.3-0.7,2.2-0.7
		c0.9,0,1.9,0.3,2.9,0.8v1.9c-1.1-0.7-2-1-2.7-1c-0.4,0-0.7,0.1-0.9,0.2c-0.2,0.2-0.3,0.4-0.3,0.6c0,0.2,0.1,0.4,0.3,0.6
		c0.2,0.2,0.6,0.4,1.1,0.7l0.7,0.4c1.6,0.9,2.4,1.9,2.4,3c0,0.8-0.3,1.4-0.9,1.9s-1.4,0.7-2.3,0.7c-0.6,0-1.1-0.1-1.5-0.2
		S118.7,48.8,118,48.5z"/>
</g>
<g class="st0">
	<path d="M126.3,51.7v-0.4c0.3-0.3,0.5-0.6,0.7-0.9c0.1-0.3,0.2-0.7,0.2-1.2c-0.7-0.2-1.1-0.7-1.1-1.4c0-0.4,0.1-0.7,0.4-1
		s0.5-0.4,0.9-0.4s0.8,0.2,1,0.6c0.3,0.4,0.4,0.8,0.4,1.4c0,0.8-0.2,1.4-0.7,2C127.7,51,127.1,51.5,126.3,51.7z"/>
</g>
<g class="st0">
	<path d="M135.3,34.8h8.2v1.8h-6.1V41h5.9v1.8h-5.9v4.5h6.3v1.8h-8.4V34.8z"/>
</g>
<g class="st0">
	<path d="M145.7,34.8h1.9v14.4h-1.9V34.8z"/>
</g>
<g class="st0">
	<path d="M158.4,44.6h-6.7c0,0.9,0.4,1.6,0.9,2.2c0.6,0.5,1.3,0.8,2.2,0.8c1.2,0,2.4-0.4,3.4-1.2v1.8c-0.6,0.4-1.2,0.7-1.7,0.8
		c-0.6,0.2-1.2,0.2-2,0.2c-1,0-1.9-0.2-2.5-0.7c-0.6-0.4-1.2-1-1.6-1.8c-0.4-0.7-0.6-1.6-0.6-2.5c0-1.4,0.4-2.6,1.2-3.5
		s1.9-1.4,3.2-1.4s2.3,0.4,3,1.3c0.8,0.9,1.1,2.1,1.1,3.5v0.5C158.3,44.6,158.4,44.6,158.4,44.6z M151.7,43.5h4.8
		c0-0.8-0.3-1.3-0.7-1.7s-0.9-0.6-1.6-0.6c-0.7,0-1.2,0.2-1.7,0.6C152.1,42.2,151.9,42.7,151.7,43.5z"/>
</g>
<g class="st0">
	<path d="M165.9,39.7h2l-4.2,9.7h-0.6l-4.3-9.7h2.1l2.6,5.8L165.9,39.7z"/>
	<path d="M175.3,43.5v4c0,0.3,0.1,0.5,0.3,0.5s0.6-0.2,1.1-0.5v1.1c-0.4,0.3-0.8,0.5-1,0.6c-0.3,0.1-0.5,0.1-0.8,0.1
		c-0.8,0-1.3-0.3-1.4-0.9c-0.8,0.6-1.6,0.9-2.5,0.9c-0.7,0-1.2-0.2-1.7-0.7c-0.4-0.4-0.7-1-0.7-1.6s0.2-1.1,0.6-1.6
		c0.4-0.5,1-0.8,1.8-1.1l2.4-0.8V43c0-1.1-0.6-1.7-1.7-1.7c-1,0-2,0.5-3,1.6v-2.1c0.7-0.9,1.8-1.3,3.1-1.3c1,0,1.8,0.3,2.5,0.8
		c0.2,0.2,0.4,0.4,0.6,0.7c0.2,0.3,0.3,0.6,0.3,0.9C175.3,42.2,175.3,42.7,175.3,43.5z M173.4,47.3v-2.8l-1.3,0.5
		c-0.6,0.3-1.1,0.5-1.4,0.8c-0.3,0.3-0.4,0.6-0.4,1s0.1,0.7,0.4,1c0.3,0.2,0.6,0.4,1,0.4C172.4,48.1,172.9,47.8,173.4,47.3z"/>
	<path d="M177,41.2l3.5-3.5v2h3v1.7h-3V46c0,1.1,0.5,1.6,1.4,1.6c0.7,0,1.4-0.2,2.1-0.7v1.8c-0.7,0.4-1.5,0.6-2.4,0.6
		s-1.6-0.3-2.1-0.8c-0.2-0.2-0.3-0.3-0.4-0.5c-0.1-0.2-0.2-0.4-0.3-0.7s-0.1-0.9-0.1-1.7v-4.2H177V41.2z"/>
	<path d="M189.9,39.7c1.4,0,2.6,0.5,3.6,1.4s1.4,2.1,1.4,3.5s-0.5,2.5-1.5,3.4s-2.2,1.4-3.7,1.4c-1.4,0-2.6-0.5-3.6-1.4
		s-1.4-2.1-1.4-3.4c0-1.4,0.5-2.5,1.5-3.5S188.5,39.7,189.9,39.7z M189.8,41.4c-0.9,0-1.6,0.3-2.2,0.9s-0.9,1.3-0.9,2.3
		c0,0.9,0.3,1.6,0.9,2.2c0.6,0.6,1.4,0.9,2.3,0.9c0.9,0,1.7-0.3,2.3-0.9c0.6-0.6,0.9-1.3,0.9-2.2s-0.3-1.6-0.9-2.2
		C191.5,41.7,190.7,41.4,189.8,41.4z"/>
	<path d="M199.1,39.7v2.2l0.1-0.2c0.9-1.5,1.8-2.2,2.7-2.2c0.7,0,1.4,0.4,2.2,1.1l-1,1.7c-0.7-0.6-1.3-0.9-1.8-0.9
		c-0.6,0-1.1,0.3-1.6,0.9s-0.7,1.3-0.7,2.1v5h-1.9v-9.5h2V39.7z"/>
	<path d="M205,48.5v-2c0.5,0.4,1.1,0.7,1.6,0.9c0.6,0.2,1,0.3,1.4,0.3s0.7-0.1,1-0.3s0.4-0.4,0.4-0.7s-0.1-0.5-0.3-0.7
		s-0.6-0.4-1.2-0.8c-1.2-0.7-2-1.3-2.4-1.7c-0.4-0.5-0.6-1-0.6-1.6c0-0.7,0.3-1.3,0.9-1.8c0.6-0.5,1.3-0.7,2.2-0.7s1.9,0.3,2.9,0.8
		v1.9c-1.1-0.7-2-1-2.7-1c-0.4,0-0.7,0.1-0.9,0.2c-0.2,0.2-0.3,0.4-0.3,0.6c0,0.2,0.1,0.4,0.3,0.6c0.2,0.2,0.6,0.4,1.1,0.7l0.7,0.4
		c1.6,0.9,2.4,1.9,2.4,3c0,0.8-0.3,1.4-0.9,1.9s-1.4,0.7-2.3,0.7c-0.6,0-1.1-0.1-1.5-0.2S205.6,48.8,205,48.5z"/>
</g>
<g class="st0">
	<path d="M228.6,49.2l-1.7-2c-0.1,0.1-0.4,0.4-0.7,0.6l0,0c-0.5,0.4-1.1,0.8-1.8,1s-1.4,0.4-2,0.4c-1,0-1.8-0.3-2.5-1s-1-1.4-1-2.4
		c0-0.7,0.2-1.3,0.5-1.8s0.9-1.1,1.7-1.7l0,0c0.5-0.3,0.8-0.6,1.2-0.8c-1.1-1.2-1.6-2.3-1.6-3.3s0.3-1.8,1-2.4
		c0.7-0.6,1.5-0.9,2.6-0.9c1,0,1.9,0.3,2.6,0.9s1,1.4,1,2.3c0,1.3-0.8,2.5-2.5,3.7L225,42l2,2.3c0.6-0.6,1.1-1.4,1.6-2.3h2.1
		c-0.5,1.3-1.3,2.5-2.3,3.8l2.9,3.4H228.6z M225.2,46.2l0.5-0.4l-2.3-2.7l-0.9,0.6c-1.1,0.7-1.6,1.5-1.6,2.2c0,0.4,0.2,0.8,0.5,1
		s0.8,0.4,1.3,0.4c0.4,0,0.8-0.1,1.3-0.3C224.4,46.9,224.8,46.6,225.2,46.2z M223.8,40.7l0.8-0.6c0.7-0.5,1.1-1.1,1.1-1.8
		c0-0.4-0.2-0.8-0.5-1.1s-0.7-0.4-1.2-0.4s-0.8,0.1-1.1,0.4c-0.3,0.3-0.4,0.6-0.4,1s0.1,0.8,0.3,1.2
		C223.1,39.9,223.4,40.3,223.8,40.7z"/>
</g>
<g class="st0">
	<path d="M242.4,43.2l-1.6-1c-1-0.6-1.7-1.2-2.1-1.8c-0.4-0.6-0.6-1.3-0.6-2c0-1.1,0.4-2.1,1.2-2.8s1.8-1.1,3.1-1.1
		c1.2,0,2.3,0.3,3.3,1V38c-1-1-2.2-1.5-3.4-1.5c-0.7,0-1.2,0.2-1.7,0.5c-0.4,0.3-0.6,0.7-0.6,1.2c0,0.4,0.2,0.8,0.5,1.2
		s0.8,0.8,1.5,1.2l1.6,0.9c1.8,1,2.6,2.4,2.6,4c0,1.2-0.4,2.1-1.2,2.8s-1.8,1.1-3,1.1c-1.4,0-2.7-0.4-3.9-1.3v-2.6
		c1.1,1.4,2.4,2.1,3.9,2.1c0.6,0,1.2-0.2,1.6-0.5c0.4-0.4,0.6-0.8,0.6-1.4C244.3,44.8,243.7,43.9,242.4,43.2z"/>
</g>
<g class="st0">
	<path d="M246.9,41.2l3.5-3.5v2h3v1.7h-3V46c0,1.1,0.5,1.6,1.4,1.6c0.7,0,1.4-0.2,2.1-0.7v1.8c-0.7,0.4-1.5,0.6-2.4,0.6
		s-1.6-0.3-2.1-0.8c-0.2-0.2-0.3-0.3-0.4-0.5c-0.1-0.2-0.2-0.4-0.3-0.7s-0.1-0.9-0.1-1.7v-4.2h-1.7V41.2z"/>
</g>
<g class="st0">
	<path d="M261.3,43.5v4c0,0.3,0.1,0.5,0.3,0.5c0.2,0,0.6-0.2,1.1-0.5v1.1c-0.4,0.3-0.8,0.5-1,0.6s-0.5,0.1-0.8,0.1
		c-0.8,0-1.3-0.3-1.4-0.9c-0.8,0.6-1.6,0.9-2.5,0.9c-0.7,0-1.2-0.2-1.7-0.7c-0.4-0.4-0.7-1-0.7-1.6s0.2-1.1,0.6-1.6
		c0.4-0.5,1-0.8,1.8-1.1l2.4-0.8V43c0-1.1-0.6-1.7-1.7-1.7c-1,0-2,0.5-3,1.6v-2.1c0.7-0.9,1.8-1.3,3.1-1.3c1,0,1.8,0.3,2.5,0.8
		c0.2,0.2,0.4,0.4,0.6,0.7s0.3,0.6,0.3,0.9C261.3,42.2,261.3,42.7,261.3,43.5z M259.5,47.3v-2.8l-1.3,0.5c-0.6,0.3-1.1,0.5-1.4,0.8
		s-0.4,0.6-0.4,1s0.1,0.7,0.4,1c0.3,0.2,0.6,0.4,1,0.4C258.4,48.1,258.9,47.8,259.5,47.3z"/>
	<path d="M265.3,35.7c0.3,0,0.6,0.1,0.8,0.3c0.2,0.2,0.3,0.5,0.3,0.8s-0.1,0.6-0.3,0.8c-0.2,0.2-0.5,0.3-0.8,0.3s-0.5-0.1-0.8-0.3
		s-0.3-0.5-0.3-0.8s0.1-0.5,0.3-0.8S265,35.7,265.3,35.7z M264.4,39.7h1.9v9.5h-1.9V39.7z"/>
</g>
<g class="st0">
	<path d="M271,39.7v2.2l0.1-0.2c0.9-1.5,1.8-2.2,2.7-2.2c0.7,0,1.4,0.4,2.2,1.1l-1,1.7c-0.7-0.6-1.3-0.9-1.8-0.9
		c-0.6,0-1.1,0.3-1.6,0.9c-0.4,0.6-0.7,1.3-0.7,2.1v5H269v-9.5h2V39.7z"/>
</g>
<g class="st0">
	<path d="M276.9,48.5v-2c0.5,0.4,1.1,0.7,1.6,0.9c0.6,0.2,1,0.3,1.4,0.3s0.7-0.1,1-0.3s0.4-0.4,0.4-0.7s-0.1-0.5-0.3-0.7
		c-0.2-0.2-0.6-0.4-1.2-0.8c-1.2-0.7-2-1.3-2.4-1.7c-0.4-0.5-0.6-1-0.6-1.6c0-0.7,0.3-1.3,0.9-1.8s1.3-0.7,2.2-0.7
		c0.9,0,1.9,0.3,2.9,0.8v1.9c-1.1-0.7-2-1-2.7-1c-0.4,0-0.7,0.1-0.9,0.2c-0.2,0.2-0.3,0.4-0.3,0.6c0,0.2,0.1,0.4,0.3,0.6
		c0.2,0.2,0.6,0.4,1.1,0.7l0.7,0.4c1.6,0.9,2.4,1.9,2.4,3c0,0.8-0.3,1.4-0.9,1.9s-1.4,0.7-2.3,0.7c-0.6,0-1.1-0.1-1.5-0.2
		S277.5,48.8,276.9,48.5z"/>
</g>
<g class="st0">
	<path d="M40.9,100.8h4.8v6.1c-1.8,0.8-3.5,1.2-5.3,1.2c-2.4,0-4.3-0.7-5.7-2.1s-2.1-3.1-2.1-5.2c0-2.2,0.7-3.9,2.2-5.4
		c1.5-1.4,3.3-2.1,5.6-2.1c0.8,0,1.6,0.1,2.3,0.3s1.7,0.5,2.8,1v2.1c-1.7-1-3.4-1.5-5.1-1.5c-1.6,0-2.9,0.5-4,1.6s-1.6,2.4-1.6,4
		s0.5,3,1.6,4s2.5,1.6,4.2,1.6c0.8,0,1.8-0.2,3-0.6l0.2-0.1v-3H41L40.9,100.8L40.9,100.8z"/>
	<path d="M50.5,98.4v2.2l0.1-0.2c0.9-1.5,1.8-2.2,2.7-2.2c0.7,0,1.4,0.4,2.2,1.1l-1,1.7c-0.7-0.6-1.3-0.9-1.8-0.9
		c-0.6,0-1.1,0.3-1.6,0.9s-0.7,1.3-0.7,2.1v5h-1.9v-9.5h2V98.4z"/>
	<path d="M62.8,102.2v4c0,0.3,0.1,0.5,0.3,0.5s0.6-0.2,1.1-0.5v1.1c-0.4,0.3-0.8,0.5-1,0.6c-0.3,0.1-0.5,0.1-0.8,0.1
		c-0.8,0-1.3-0.3-1.4-0.9c-0.8,0.6-1.6,0.9-2.5,0.9c-0.7,0-1.2-0.2-1.7-0.7c-0.4-0.4-0.7-1-0.7-1.6s0.2-1.1,0.6-1.6
		c0.4-0.5,1-0.8,1.8-1.1l2.4-0.8v-0.5c0-1.1-0.6-1.7-1.7-1.7c-1,0-2,0.5-3,1.6v-2.1c0.7-0.9,1.8-1.3,3.1-1.3c1,0,1.8,0.3,2.5,0.8
		c0.2,0.2,0.4,0.4,0.6,0.7c0.2,0.3,0.3,0.6,0.3,0.9C62.8,100.9,62.8,101.4,62.8,102.2z M61,106v-2.8l-1.3,0.5
		c-0.6,0.3-1.1,0.5-1.4,0.8c-0.3,0.3-0.4,0.6-0.4,1s0.1,0.7,0.4,1c0.3,0.2,0.6,0.4,1,0.4C59.9,106.8,60.5,106.5,61,106z"/>
	<path d="M72.2,93.5h1.9v14.4h-4c-1.4,0-2.5-0.4-3.4-1.3s-1.3-2.1-1.3-3.6c0-1.4,0.4-2.5,1.3-3.4s2-1.4,3.4-1.4
		c0.6,0,1.3,0.1,2.1,0.4V93.5z M72.2,106.3v-6c-0.6-0.3-1.2-0.4-1.8-0.4c-0.9,0-1.7,0.3-2.2,0.9s-0.8,1.4-0.8,2.5
		c0,1,0.2,1.7,0.7,2.3c0.3,0.3,0.6,0.5,0.9,0.6s0.9,0.2,1.7,0.2L72.2,106.3L72.2,106.3z"/>
	<path d="M82.7,107.9v-1.2c-0.4,0.4-0.9,0.8-1.4,1s-1,0.4-1.5,0.4c-0.6,0-1.2-0.1-1.7-0.4s-0.9-0.7-1.1-1.2
		c-0.3-0.5-0.4-1.4-0.4-2.6v-5.4h1.9v5.4c0,1,0.1,1.7,0.4,2.1s0.8,0.6,1.5,0.6c0.9,0,1.7-0.4,2.3-1.3v-6.8h1.9v9.5L82.7,107.9
		L82.7,107.9z"/>
	<path d="M93.2,102.2v4c0,0.3,0.1,0.5,0.3,0.5c0.2,0,0.6-0.2,1.1-0.5v1.1c-0.4,0.3-0.8,0.5-1,0.6c-0.3,0.1-0.5,0.1-0.8,0.1
		c-0.8,0-1.3-0.3-1.4-0.9c-0.8,0.6-1.6,0.9-2.5,0.9c-0.7,0-1.2-0.2-1.7-0.7c-0.4-0.4-0.7-1-0.7-1.6s0.2-1.1,0.6-1.6s1-0.8,1.8-1.1
		l2.4-0.8v-0.5c0-1.1-0.6-1.7-1.7-1.7c-1,0-2,0.5-3,1.6v-2.1c0.7-0.9,1.8-1.3,3.1-1.3c1,0,1.8,0.3,2.5,0.8c0.2,0.2,0.4,0.4,0.6,0.7
		c0.2,0.3,0.3,0.6,0.3,0.9C93.2,100.9,93.2,101.4,93.2,102.2z M91.4,106v-2.8l-1.3,0.5c-0.6,0.3-1.1,0.5-1.4,0.8s-0.4,0.6-0.4,1
		s0.1,0.7,0.4,1c0.3,0.2,0.6,0.4,1,0.4C90.3,106.8,90.8,106.5,91.4,106z"/>
	<path d="M94.9,99.9l3.5-3.5v2h3v1.7h-3v4.6c0,1.1,0.5,1.6,1.4,1.6c0.7,0,1.4-0.2,2.1-0.7v1.8c-0.7,0.4-1.5,0.6-2.4,0.6
		s-1.6-0.3-2.1-0.8c-0.2-0.2-0.3-0.3-0.4-0.5s-0.2-0.4-0.3-0.7c-0.1-0.3-0.1-0.9-0.1-1.7v-4.2h-1.7V99.9z"/>
</g>
<g class="st0">
	<path d="M111.4,103.3h-6.7c0,0.9,0.4,1.6,0.9,2.2c0.6,0.5,1.3,0.8,2.2,0.8c1.2,0,2.4-0.4,3.4-1.2v1.8c-0.6,0.4-1.2,0.7-1.7,0.8
		c-0.6,0.2-1.2,0.2-2,0.2c-1,0-1.9-0.2-2.5-0.7c-0.6-0.4-1.2-1-1.6-1.8c-0.4-0.7-0.6-1.6-0.6-2.5c0-1.4,0.4-2.6,1.2-3.5
		c0.8-0.9,1.9-1.4,3.2-1.4c1.3,0,2.3,0.4,3,1.3c0.8,0.9,1.1,2.1,1.1,3.5L111.4,103.3L111.4,103.3z M104.8,102.2h4.8
		c0-0.8-0.3-1.3-0.7-1.7c-0.4-0.4-0.9-0.6-1.6-0.6s-1.2,0.2-1.7,0.6C105.2,100.9,104.9,101.5,104.8,102.2z"/>
</g>
<g class="st0">
	<path d="M119.7,107.9V93.5h3.6c1.5,0,2.6,0.4,3.5,1.1s1.3,1.7,1.3,2.9c0,0.8-0.2,1.6-0.6,2.2s-1,1.1-1.8,1.4
		c0.5,0.3,0.9,0.7,1.4,1.2s1.1,1.4,1.9,2.7c0.5,0.8,0.9,1.4,1.2,1.8l0.8,1h-2.5l-0.6-1c0,0-0.1-0.1-0.1-0.2l-0.4-0.6l-0.6-1.1
		l-0.7-1.1c-0.4-0.6-0.8-1.1-1.2-1.4c-0.4-0.4-0.7-0.6-1-0.8c-0.3-0.2-0.8-0.2-1.4-0.2H122v6.3h-2.3V107.9z M122.4,95.2h-0.6v4.6
		h0.8c1,0,1.8-0.1,2.2-0.3c0.4-0.2,0.7-0.4,0.9-0.8s0.3-0.8,0.3-1.2c0-0.5-0.1-0.9-0.4-1.2s-0.6-0.6-1-0.8S123.4,95.2,122.4,95.2z"
		/>
	<path d="M136.7,98.4c1.4,0,2.6,0.5,3.6,1.4s1.4,2.1,1.4,3.5s-0.5,2.5-1.5,3.4s-2.2,1.4-3.7,1.4c-1.4,0-2.6-0.5-3.6-1.4
		s-1.4-2.1-1.4-3.4c0-1.4,0.5-2.5,1.5-3.5S135.2,98.4,136.7,98.4z M136.6,100.1c-0.9,0-1.6,0.3-2.2,0.9s-0.9,1.3-0.9,2.3
		c0,0.9,0.3,1.6,0.9,2.2c0.6,0.6,1.4,0.9,2.3,0.9c0.9,0,1.7-0.3,2.3-0.9s0.9-1.3,0.9-2.2c0-0.9-0.3-1.6-0.9-2.2
		C138.3,100.4,137.5,100.1,136.6,100.1z"/>
	<path d="M148.3,98.4c1.4,0,2.6,0.5,3.6,1.4s1.4,2.1,1.4,3.5s-0.5,2.5-1.5,3.4s-2.2,1.4-3.7,1.4c-1.4,0-2.6-0.5-3.6-1.4
		s-1.4-2.1-1.4-3.4c0-1.4,0.5-2.5,1.5-3.5S146.9,98.4,148.3,98.4z M148.2,100.1c-0.9,0-1.6,0.3-2.2,0.9s-0.9,1.3-0.9,2.3
		c0,0.9,0.3,1.6,0.9,2.2c0.6,0.6,1.4,0.9,2.3,0.9c0.9,0,1.7-0.3,2.3-0.9s0.9-1.3,0.9-2.2c0-0.9-0.3-1.6-0.9-2.2
		C149.9,100.4,149.2,100.1,148.2,100.1z"/>
	<path d="M163.2,101v6.9h-1.9v-5.3c0-1.1-0.1-1.8-0.4-2.2c-0.3-0.4-0.8-0.6-1.5-0.6c-0.4,0-0.8,0.1-1.1,0.3s-0.7,0.5-1.1,0.9v6.9
		h-1.9v-9.5h1.9v1.2c1-1,1.9-1.4,2.8-1.4c1.2,0,2.1,0.6,2.8,1.7c1-1.2,2.1-1.7,3.1-1.7c0.9,0,1.7,0.3,2.3,1s0.9,1.7,0.9,3.1v5.6
		h-1.9v-5.6c0-0.8-0.2-1.4-0.5-1.8s-0.8-0.6-1.4-0.6C164.6,99.8,163.9,100.2,163.2,101z"/>
</g>
<g class="st0">
	<path d="M37.1,12.6l-1.7-1c-1.1-0.6-1.8-1.3-2.3-1.9c-0.4-0.6-0.7-1.3-0.7-2.2c0-1.2,0.4-2.2,1.3-3s1.9-1.1,3.3-1.1
		c1.3,0,2.5,0.4,3.6,1.1V7c-1.1-1.1-2.3-1.6-3.6-1.6c-0.7,0-1.3,0.2-1.8,0.5s-0.7,0.8-0.7,1.3s0.2,0.9,0.5,1.3
		c0.3,0.4,0.9,0.8,1.7,1.3l1.7,1c1.9,1.1,2.8,2.6,2.8,4.3c0,1.2-0.4,2.2-1.2,3s-1.9,1.2-3.2,1.2c-1.5,0-2.9-0.5-4.2-1.4V15
		c1.2,1.5,2.6,2.3,4.2,2.3c0.7,0,1.3-0.2,1.7-0.6c0.5-0.4,0.7-0.9,0.7-1.5C39.1,14.3,38.4,13.4,37.1,12.6z"/>
	<path d="M43.3,3.6h2v6.6c0.8-1,1.9-1.5,3.1-1.5c0.7,0,1.3,0.2,1.8,0.5s0.9,0.8,1.2,1.4s0.4,1.5,0.4,2.7v5.8h-2v-6.3
		c0-0.7-0.2-1.3-0.5-1.8c-0.4-0.5-0.8-0.7-1.4-0.7c-0.4,0-0.9,0.1-1.3,0.3c-0.4,0.2-0.8,0.6-1.3,1.1V19h-2V3.6z"/>
	<path d="M63.4,14.2h-7.2c0.1,1,0.4,1.8,1,2.3c0.6,0.6,1.4,0.9,2.3,0.9c1.3,0,2.6-0.4,3.7-1.2v2c-0.6,0.4-1.2,0.7-1.8,0.9
		c-0.6,0.2-1.3,0.3-2.1,0.3c-1.1,0-2-0.2-2.7-0.7s-1.3-1.1-1.7-1.9c-0.4-0.8-0.6-1.7-0.6-2.7c0-1.6,0.4-2.8,1.3-3.8
		c0.9-1,2-1.5,3.4-1.5s2.4,0.5,3.2,1.4s1.2,2.2,1.2,3.8C63.4,14,63.4,14.2,63.4,14.2z M56.2,13h5.1c-0.1-0.8-0.3-1.4-0.7-1.9
		c-0.4-0.4-1-0.7-1.7-0.7s-1.3,0.2-1.8,0.7C56.7,11.5,56.4,12.2,56.2,13z"/>
	<path d="M65.6,3.6h2v15.5h-2V3.6z"/>
	<path d="M76.8,8.9H79l-4.5,10.4h-0.7L69.2,8.9h2.2l2.8,6.3L76.8,8.9z"/>
	<path d="M88.7,14.2h-7.2c0.1,1,0.4,1.8,1,2.3c0.6,0.6,1.4,0.9,2.3,0.9c1.3,0,2.6-0.4,3.7-1.2v2c-0.6,0.4-1.2,0.7-1.8,0.9
		c-0.6,0.2-1.3,0.3-2.1,0.3c-1.1,0-2-0.2-2.7-0.7s-1.3-1.1-1.7-1.9c-0.4-0.8-0.6-1.7-0.6-2.7c0-1.6,0.4-2.8,1.3-3.8s2-1.5,3.4-1.5
		s2.4,0.5,3.2,1.4c0.8,0.9,1.2,2.2,1.2,3.8C88.7,14,88.7,14.2,88.7,14.2z M81.6,13h5.1c-0.1-0.8-0.3-1.4-0.7-1.9
		c-0.4-0.4-1-0.7-1.7-0.7s-1.3,0.2-1.8,0.7C82,11.5,81.7,12.2,81.6,13z"/>
	<path d="M90.4,18.4v-2.2c0.6,0.4,1.2,0.7,1.7,1c0.6,0.2,1.1,0.4,1.5,0.4s0.8-0.1,1.1-0.3c0.3-0.2,0.5-0.5,0.5-0.7
		c0-0.3-0.1-0.5-0.3-0.7c-0.2-0.2-0.6-0.5-1.3-0.8c-1.3-0.7-2.2-1.3-2.6-1.9c-0.4-0.5-0.6-1.1-0.6-1.7c0-0.8,0.3-1.4,0.9-1.9
		s1.4-0.7,2.4-0.7s2,0.3,3.1,0.8v2c-1.2-0.7-2.2-1.1-2.9-1.1c-0.4,0-0.7,0.1-0.9,0.2c-0.2,0.2-0.4,0.4-0.4,0.7
		c0,0.2,0.1,0.5,0.3,0.7c0.2,0.2,0.6,0.5,1.1,0.8l0.7,0.4c1.7,1,2.5,2,2.5,3.2c0,0.8-0.3,1.5-1,2.1c-0.7,0.5-1.5,0.8-2.5,0.8
		c-0.6,0-1.1-0.1-1.6-0.2S91.1,18.7,90.4,18.4z"/>
</g>
<g class="st0">
	<path d="M36.7,73.6l-1.6-1c-1-0.6-1.7-1.2-2.1-1.8c-0.4-0.6-0.6-1.3-0.6-2c0-1.1,0.4-2.1,1.2-2.8s1.8-1.1,3.1-1.1
		c1.2,0,2.3,0.3,3.3,1v2.3c-1-1-2.2-1.5-3.4-1.5c-0.7,0-1.2,0.2-1.7,0.5c-0.4,0.3-0.6,0.7-0.6,1.2c0,0.4,0.2,0.8,0.5,1.2
		s0.8,0.8,1.5,1.2l1.6,0.9c1.8,1,2.6,2.4,2.6,4c0,1.2-0.4,2.1-1.2,2.8c-0.8,0.7-1.8,1.1-3,1.1c-1.4,0-2.7-0.4-3.9-1.3v-2.6
		c1.1,1.4,2.4,2.1,3.9,2.1c0.6,0,1.2-0.2,1.6-0.5c0.4-0.4,0.6-0.8,0.6-1.4C38.6,75.2,37.9,74.3,36.7,73.6z"/>
	<path d="M41.2,71.6l3.5-3.5v2h3v1.7h-3v4.6c0,1.1,0.5,1.6,1.4,1.6c0.7,0,1.4-0.2,2.1-0.7v1.8c-0.7,0.4-1.5,0.6-2.4,0.6
		s-1.6-0.3-2.1-0.8c-0.2-0.2-0.3-0.3-0.4-0.5c-0.1-0.2-0.2-0.4-0.3-0.7c-0.1-0.3-0.1-0.9-0.1-1.7v-4.2h-1.7V71.6z"/>
</g>
<g class="st0">
	<path d="M55.6,79.6v-1.2c-0.4,0.4-0.9,0.8-1.4,1s-1,0.4-1.5,0.4c-0.6,0-1.2-0.1-1.7-0.4s-0.9-0.7-1.1-1.2c-0.3-0.5-0.4-1.4-0.4-2.6
		v-5.4h1.9v5.4c0,1,0.1,1.7,0.4,2.1c0.3,0.4,0.8,0.6,1.5,0.6c0.9,0,1.7-0.4,2.3-1.3v-6.8h1.9v9.5L55.6,79.6L55.6,79.6z"/>
</g>
<g class="st0">
	<path d="M66.6,65.2h1.9v14.4h-4c-1.4,0-2.5-0.4-3.4-1.3s-1.3-2.1-1.3-3.6c0-1.4,0.4-2.5,1.3-3.4s2-1.4,3.4-1.4
		c0.6,0,1.3,0.1,2.1,0.4V65.2z M66.6,78v-6c-0.6-0.3-1.2-0.4-1.8-0.4c-0.9,0-1.7,0.3-2.2,0.9s-0.8,1.4-0.8,2.5c0,1,0.2,1.7,0.7,2.3
		c0.3,0.3,0.6,0.5,0.9,0.6c0.3,0.1,0.9,0.2,1.7,0.2L66.6,78L66.6,78z"/>
	<path d="M76.8,70.1h2.1l-6.7,14.3h-2.1l3.2-6.9L69.6,70h2.1l2.6,5.4L76.8,70.1z"/>
</g>
<g class="st0">
	<path d="M89,65.1h1.5L97,79.6h-2.1L93,75.3h-6.2L85,79.6h-2.1L89,65.1z M92,73.5l-2.3-5.2l-2.2,5.2H92z"/>
</g>
<g class="st0">
	<path d="M100.2,70.1v2.2l0.1-0.2c0.9-1.5,1.8-2.2,2.7-2.2c0.7,0,1.4,0.4,2.2,1.1l-1,1.7c-0.7-0.6-1.3-0.9-1.8-0.9
		c-0.6,0-1.1,0.3-1.6,0.9s-0.7,1.3-0.7,2.1v5h-1.9v-9.5h2C100.2,70.3,100.2,70.1,100.2,70.1z"/>
</g>
<g class="st0">
	<path d="M114.2,75h-6.7c0,0.9,0.4,1.6,0.9,2.2c0.6,0.5,1.3,0.8,2.2,0.8c1.2,0,2.4-0.4,3.4-1.2v1.8c-0.6,0.4-1.2,0.7-1.7,0.8
		c-0.6,0.2-1.2,0.2-2,0.2c-1,0-1.9-0.2-2.5-0.7c-0.6-0.4-1.2-1-1.6-1.8c-0.4-0.7-0.6-1.6-0.6-2.5c0-1.4,0.4-2.6,1.2-3.5
		c0.8-0.9,1.9-1.4,3.2-1.4c1.3,0,2.3,0.4,3,1.3c0.8,0.9,1.1,2.1,1.1,3.5L114.2,75L114.2,75z M107.5,73.9h4.8c0-0.8-0.3-1.3-0.7-1.7
		c-0.4-0.4-0.9-0.6-1.6-0.6s-1.2,0.2-1.7,0.6C107.9,72.6,107.7,73.1,107.5,73.9z"/>
</g>
<g class="st0">
	<path d="M122.2,73.9v4c0,0.3,0.1,0.5,0.3,0.5c0.2,0,0.6-0.2,1.1-0.5V79c-0.4,0.3-0.8,0.5-1,0.6c-0.3,0.1-0.5,0.1-0.8,0.1
		c-0.8,0-1.3-0.3-1.4-0.9c-0.8,0.6-1.6,0.9-2.5,0.9c-0.7,0-1.2-0.2-1.7-0.7c-0.4-0.4-0.7-1-0.7-1.6s0.2-1.1,0.6-1.6s1-0.8,1.8-1.1
		l2.4-0.8v-0.5c0-1.1-0.6-1.7-1.7-1.7c-1,0-2,0.5-3,1.6v-2.1c0.7-0.9,1.8-1.3,3.1-1.3c1,0,1.8,0.3,2.5,0.8c0.2,0.2,0.4,0.4,0.6,0.7
		c0.2,0.3,0.3,0.6,0.3,0.9C122.2,72.6,122.2,73.1,122.2,73.9z M120.3,77.7v-2.8l-1.3,0.5c-0.6,0.3-1.1,0.5-1.4,0.8s-0.4,0.6-0.4,1
		s0.1,0.7,0.4,1c0.3,0.2,0.6,0.4,1,0.4C119.3,78.5,119.8,78.2,120.3,77.7z"/>
</g>
<g class="st0">
	<path d="M124.8,78.9v-2c0.5,0.4,1.1,0.7,1.6,0.9c0.6,0.2,1,0.3,1.4,0.3c0.4,0,0.7-0.1,1-0.3c0.3-0.2,0.4-0.4,0.4-0.7
		c0-0.3-0.1-0.5-0.3-0.7s-0.6-0.4-1.2-0.8c-1.2-0.7-2-1.3-2.4-1.7c-0.4-0.5-0.6-1-0.6-1.6c0-0.7,0.3-1.3,0.9-1.8s1.3-0.7,2.2-0.7
		c0.9,0,1.9,0.3,2.9,0.8v1.9c-1.1-0.7-2-1-2.7-1c-0.4,0-0.7,0.1-0.9,0.2c-0.2,0.2-0.3,0.4-0.3,0.6s0.1,0.4,0.3,0.6
		c0.2,0.2,0.6,0.4,1.1,0.7l0.7,0.4c1.6,0.9,2.4,1.9,2.4,3c0,0.8-0.3,1.4-0.9,1.9s-1.4,0.7-2.3,0.7c-0.6,0-1.1-0.1-1.5-0.2
		S125.5,79.2,124.8,78.9z"/>
</g>
<rect y="4.9" class="st1" width="14.4" height="14.4"/>
<rect y="33.4" class="st2" width="14.4" height="14.4"/>
<rect y="63.5" class="st3" width="14.4" height="14.4"/>
<rect y="93.7" class="st4" width="14.4" height="14.4"/>
<g class="st0">
	<path d="M344.7,21.9V7.5h3.6c1.5,0,2.6,0.4,3.5,1.1s1.3,1.7,1.3,2.9c0,0.8-0.2,1.6-0.6,2.2c-0.4,0.6-1,1.1-1.8,1.4
		c0.5,0.3,0.9,0.7,1.4,1.2s1.1,1.4,1.9,2.7c0.5,0.8,0.9,1.4,1.2,1.8l0.8,1h-2.5l-0.6-1c0,0-0.1-0.1-0.1-0.2l-0.4-0.6l-0.6-1.1
		l-0.7-1.1c-0.4-0.6-0.8-1.1-1.2-1.4c-0.4-0.4-0.7-0.6-1-0.8s-0.8-0.2-1.4-0.2H347v6.3h-2.3V21.9z M347.4,9.2h-0.6v4.6h0.8
		c1,0,1.8-0.1,2.2-0.3s0.7-0.4,0.9-0.8s0.3-0.8,0.3-1.2c0-0.5-0.1-0.9-0.4-1.2c-0.2-0.4-0.6-0.6-1-0.8
		C349.1,9.3,348.4,9.2,347.4,9.2z"/>
	<path d="M365.3,17.3h-6.7c0,0.9,0.4,1.6,0.9,2.2c0.6,0.5,1.3,0.8,2.2,0.8c1.2,0,2.4-0.4,3.4-1.2V21c-0.6,0.4-1.2,0.7-1.7,0.8
		s-1.2,0.2-2,0.2c-1,0-1.9-0.2-2.5-0.7c-0.6-0.4-1.2-1-1.6-1.8c-0.4-0.7-0.6-1.6-0.6-2.5c0-1.4,0.4-2.6,1.2-3.5
		c0.8-0.9,1.9-1.4,3.2-1.4c1.3,0,2.3,0.4,3,1.3s1.1,2.1,1.1,3.5v0.4C365.2,17.3,365.3,17.3,365.3,17.3z M358.6,16.2h4.8
		c0-0.8-0.3-1.3-0.7-1.7c-0.4-0.4-0.9-0.6-1.6-0.6s-1.2,0.2-1.7,0.6S358.8,15.5,358.6,16.2z"/>
</g>
<g class="st0">
	<path d="M366.8,21.2v-2c0.5,0.4,1.1,0.7,1.6,0.9s1,0.3,1.4,0.3s0.7-0.1,1-0.3c0.3-0.2,0.4-0.4,0.4-0.7c0-0.3-0.1-0.5-0.3-0.7
		c-0.2-0.2-0.6-0.4-1.2-0.8c-1.2-0.7-2-1.3-2.4-1.7c-0.4-0.5-0.6-1-0.6-1.6c0-0.7,0.3-1.3,0.9-1.8s1.3-0.7,2.2-0.7
		c0.9,0,1.9,0.3,2.9,0.8v1.9c-1.1-0.7-2-1-2.7-1c-0.4,0-0.7,0.1-0.9,0.2c-0.2,0.2-0.3,0.4-0.3,0.6c0,0.2,0.1,0.4,0.3,0.6
		c0.2,0.2,0.6,0.4,1.1,0.7l0.7,0.4c1.6,0.9,2.4,1.9,2.4,3c0,0.8-0.3,1.4-0.9,1.9s-1.4,0.7-2.3,0.7c-0.6,0-1.1-0.1-1.5-0.2
		S367.5,21.6,366.8,21.2z"/>
</g>
<g class="st0">
	<path d="M374.2,13.9l3.5-3.5v2h3v1.7h-3v4.6c0,1.1,0.5,1.6,1.4,1.6c0.7,0,1.4-0.2,2.1-0.7v1.8c-0.7,0.4-1.5,0.6-2.4,0.6
		s-1.6-0.3-2.1-0.8c-0.2-0.2-0.3-0.3-0.4-0.5s-0.2-0.4-0.3-0.7c-0.1-0.3-0.1-0.9-0.1-1.7v-4.2h-1.7V13.9z"/>
</g>
<g class="st0">
	<path d="M384.6,12.4v2.2l0.1-0.2c0.9-1.5,1.8-2.2,2.7-2.2c0.7,0,1.4,0.4,2.2,1.1l-1,1.7c-0.7-0.6-1.3-0.9-1.8-0.9
		c-0.6,0-1.1,0.3-1.6,0.9c-0.4,0.6-0.7,1.3-0.7,2.1v5h-1.9v-9.5h2L384.6,12.4L384.6,12.4z"/>
</g>
<g class="st0">
	<path d="M394.9,12.4c1.4,0,2.6,0.5,3.6,1.4s1.4,2.1,1.4,3.5s-0.5,2.5-1.5,3.4s-2.2,1.4-3.7,1.4c-1.4,0-2.6-0.5-3.6-1.4
		s-1.4-2.1-1.4-3.4c0-1.4,0.5-2.5,1.5-3.5S393.5,12.4,394.9,12.4z M394.8,14.1c-0.9,0-1.6,0.3-2.2,0.9s-0.9,1.3-0.9,2.3
		c0,0.9,0.3,1.6,0.9,2.2s1.4,0.9,2.3,0.9s1.7-0.3,2.3-0.9c0.6-0.6,0.9-1.3,0.9-2.2c0-0.9-0.3-1.6-0.9-2.2S395.8,14.1,394.8,14.1z"/>
</g>
<g class="st0">
	<path d="M406.6,12.4c1.4,0,2.6,0.5,3.6,1.4s1.4,2.1,1.4,3.5s-0.5,2.5-1.5,3.4s-2.2,1.4-3.7,1.4c-1.4,0-2.6-0.5-3.6-1.4
		s-1.4-2.1-1.4-3.4c0-1.4,0.5-2.5,1.5-3.5S405.2,12.4,406.6,12.4z M406.5,14.1c-0.9,0-1.6,0.3-2.2,0.9s-0.9,1.3-0.9,2.3
		c0,0.9,0.3,1.6,0.9,2.2s1.4,0.9,2.3,0.9s1.7-0.3,2.3-0.9c0.6-0.6,0.9-1.3,0.9-2.2c0-0.9-0.3-1.6-0.9-2.2S407.4,14.1,406.5,14.1z"/>
</g>
<g class="st0">
	<path d="M421.6,15v6.9h-1.9v-5.3c0-1.1-0.1-1.8-0.4-2.2s-0.8-0.6-1.5-0.6c-0.4,0-0.8,0.1-1.1,0.3c-0.3,0.2-0.7,0.5-1.1,0.9v6.9
		h-1.9v-9.5h1.9v1.2c1-1,1.9-1.4,2.8-1.4c1.2,0,2.1,0.6,2.8,1.7c1-1.2,2.1-1.7,3.1-1.7c0.9,0,1.7,0.3,2.3,1c0.6,0.7,0.9,1.7,0.9,3.1
		v5.6h-1.9v-5.6c0-0.8-0.2-1.4-0.5-1.8s-0.8-0.6-1.4-0.6C423,13.8,422.2,14.2,421.6,15z"/>
	<path d="M429.6,21.2v-2c0.5,0.4,1.1,0.7,1.6,0.9c0.6,0.2,1,0.3,1.4,0.3s0.7-0.1,1-0.3c0.3-0.2,0.4-0.4,0.4-0.7
		c0-0.3-0.1-0.5-0.3-0.7c-0.2-0.2-0.6-0.4-1.2-0.8c-1.2-0.7-2-1.3-2.4-1.7c-0.4-0.5-0.6-1-0.6-1.6c0-0.7,0.3-1.3,0.9-1.8
		s1.3-0.7,2.2-0.7c0.9,0,1.9,0.3,2.9,0.8v1.9c-1.1-0.7-2-1-2.7-1c-0.4,0-0.7,0.1-0.9,0.2c-0.2,0.2-0.3,0.4-0.3,0.6
		c0,0.2,0.1,0.4,0.3,0.6c0.2,0.2,0.6,0.4,1.1,0.7l0.7,0.4c1.6,0.9,2.4,1.9,2.4,3c0,0.8-0.3,1.4-0.9,1.9s-1.4,0.7-2.3,0.7
		c-0.6,0-1.1-0.1-1.5-0.2S430.3,21.6,429.6,21.2z"/>
</g>
<g class="st0">
	<path d="M344.7,39.3h8.2v1.8h-6.1v4.4h5.9v1.8h-5.9v4.5h6.3v1.8h-8.4V39.3z"/>
	<path d="M355,39.3h1.9v14.4H355V39.3z"/>
</g>
<g class="st0">
	<path d="M367.7,49.1H361c0,0.9,0.4,1.6,0.9,2.2c0.6,0.5,1.3,0.8,2.2,0.8c1.2,0,2.4-0.4,3.4-1.2v1.8c-0.6,0.4-1.2,0.7-1.7,0.8
		s-1.2,0.2-2,0.2c-1,0-1.9-0.2-2.5-0.7c-0.6-0.4-1.2-1-1.6-1.8c-0.4-0.7-0.6-1.6-0.6-2.5c0-1.4,0.4-2.6,1.2-3.5
		c0.8-0.9,1.9-1.4,3.2-1.4c1.3,0,2.3,0.4,3,1.3s1.1,2.1,1.1,3.5v0.5C367.6,49.1,367.7,49.1,367.7,49.1z M361.1,48h4.8
		c0-0.8-0.3-1.3-0.7-1.7c-0.4-0.4-0.9-0.6-1.6-0.6s-1.2,0.2-1.7,0.6S361.2,47.2,361.1,48z"/>
</g>
<g class="st0">
	<path d="M375.3,44.2h2l-4.2,9.7h-0.6l-4.3-9.7h2.1l2.6,5.8L375.3,44.2z"/>
	<path d="M384.7,48v4c0,0.3,0.1,0.5,0.3,0.5c0.2,0,0.6-0.2,1.1-0.5v1.1c-0.4,0.3-0.8,0.5-1,0.6c-0.3,0.1-0.5,0.1-0.8,0.1
		c-0.8,0-1.3-0.3-1.4-0.9c-0.8,0.6-1.6,0.9-2.5,0.9c-0.7,0-1.2-0.2-1.7-0.7c-0.4-0.4-0.7-1-0.7-1.6s0.2-1.1,0.6-1.6s1-0.8,1.8-1.1
		l2.4-0.8v-0.5c0-1.1-0.6-1.7-1.7-1.7c-1,0-2,0.5-3,1.6v-2.1c0.7-0.9,1.8-1.3,3.1-1.3c1,0,1.8,0.3,2.5,0.8c0.2,0.2,0.4,0.4,0.6,0.7
		s0.3,0.6,0.3,0.9C384.7,46.6,384.7,47.2,384.7,48z M382.9,51.8V49l-1.3,0.5c-0.6,0.3-1.1,0.5-1.4,0.8s-0.4,0.6-0.4,1s0.1,0.7,0.4,1
		c0.3,0.2,0.6,0.4,1,0.4C381.8,52.5,382.4,52.3,382.9,51.8z"/>
	<path d="M386.4,45.7l3.5-3.5v2h3v1.7h-3v4.6c0,1.1,0.5,1.6,1.4,1.6c0.7,0,1.4-0.2,2.1-0.7v1.8c-0.7,0.4-1.5,0.6-2.4,0.6
		s-1.6-0.3-2.1-0.8c-0.2-0.2-0.3-0.3-0.4-0.5s-0.2-0.4-0.3-0.7c-0.1-0.3-0.1-0.9-0.1-1.7v-4.2h-1.7V45.7z"/>
	<path d="M399.3,44.2c1.4,0,2.6,0.5,3.6,1.4s1.4,2.1,1.4,3.5s-0.5,2.5-1.5,3.4s-2.2,1.4-3.7,1.4c-1.4,0-2.6-0.5-3.6-1.4
		s-1.4-2.1-1.4-3.4c0-1.4,0.5-2.5,1.5-3.5S397.9,44.2,399.3,44.2z M399.2,45.8c-0.9,0-1.6,0.3-2.2,0.9s-0.9,1.3-0.9,2.3
		c0,0.9,0.3,1.6,0.9,2.2c0.6,0.6,1.4,0.9,2.3,0.9s1.7-0.3,2.3-0.9c0.6-0.6,0.9-1.3,0.9-2.2s-0.3-1.6-0.9-2.2S400.2,45.8,399.2,45.8z
		"/>
	<path d="M408.5,44.2v2.2l0.1-0.2c0.9-1.5,1.8-2.2,2.7-2.2c0.7,0,1.4,0.4,2.2,1.1l-1,1.7c-0.7-0.6-1.3-0.9-1.8-0.9
		c-0.6,0-1.1,0.3-1.6,0.9c-0.4,0.6-0.7,1.3-0.7,2.1v5h-1.9v-9.5h2L408.5,44.2L408.5,44.2z"/>
	<path d="M414.4,53v-2c0.5,0.4,1.1,0.7,1.6,0.9s1,0.3,1.4,0.3s0.7-0.1,1-0.3s0.4-0.4,0.4-0.7s-0.1-0.5-0.3-0.7
		c-0.2-0.2-0.6-0.4-1.2-0.8c-1.2-0.7-2-1.3-2.4-1.7c-0.4-0.5-0.6-1-0.6-1.6c0-0.7,0.3-1.3,0.9-1.8s1.3-0.7,2.2-0.7
		c0.9,0,1.9,0.3,2.9,0.8v1.9c-1.1-0.7-2-1-2.7-1c-0.4,0-0.7,0.1-0.9,0.2c-0.2,0.2-0.3,0.4-0.3,0.6c0,0.2,0.1,0.4,0.3,0.6
		c0.2,0.2,0.6,0.4,1.1,0.7l0.7,0.4c1.6,0.9,2.4,1.9,2.4,3c0,0.8-0.3,1.4-0.9,1.9s-1.4,0.7-2.3,0.7c-0.6,0-1.1-0.1-1.5-0.2
		S415,53.3,414.4,53z"/>
</g>
<g class="st0">
	<path d="M348.2,78.7l-1.6-1c-1-0.6-1.7-1.2-2.1-1.8c-0.4-0.6-0.6-1.3-0.6-2c0-1.1,0.4-2.1,1.2-2.8s1.8-1.1,3.1-1.1
		c1.2,0,2.3,0.3,3.3,1v2.3c-1-1-2.2-1.5-3.4-1.5c-0.7,0-1.2,0.2-1.7,0.5c-0.4,0.3-0.6,0.7-0.6,1.2c0,0.4,0.2,0.8,0.5,1.2
		s0.8,0.8,1.5,1.2l1.6,0.9c1.8,1,2.6,2.4,2.6,4c0,1.2-0.4,2.1-1.2,2.8c-0.8,0.7-1.8,1.1-3,1.1c-1.4,0-2.7-0.4-3.9-1.3v-2.6
		c1.1,1.4,2.4,2.1,3.9,2.1c0.6,0,1.2-0.2,1.6-0.5c0.4-0.4,0.6-0.8,0.6-1.4C350.1,80.3,349.5,79.5,348.2,78.7z"/>
	<path d="M352.8,76.7l3.5-3.5v2h3v1.7h-3v4.6c0,1.1,0.5,1.6,1.4,1.6c0.7,0,1.4-0.2,2.1-0.7v1.8c-0.7,0.4-1.5,0.6-2.4,0.6
		s-1.6-0.3-2.1-0.8c-0.2-0.2-0.3-0.3-0.4-0.5s-0.2-0.4-0.3-0.7c-0.1-0.3-0.1-0.9-0.1-1.7v-4.2h-1.7V76.7z"/>
	<path d="M367.1,79v4c0,0.3,0.1,0.5,0.3,0.5c0.2,0,0.6-0.2,1.1-0.5v1.1c-0.4,0.3-0.8,0.5-1,0.6c-0.3,0.1-0.5,0.1-0.8,0.1
		c-0.8,0-1.3-0.3-1.4-0.9c-0.8,0.6-1.6,0.9-2.5,0.9c-0.7,0-1.2-0.2-1.7-0.7c-0.4-0.4-0.7-1-0.7-1.6s0.2-1.1,0.6-1.6s1-0.8,1.8-1.1
		l2.4-0.8v-0.5c0-1.1-0.6-1.7-1.7-1.7c-1,0-2,0.5-3,1.6v-2.1c0.7-0.9,1.8-1.3,3.1-1.3c1,0,1.8,0.3,2.5,0.8c0.2,0.2,0.4,0.4,0.6,0.7
		c0.2,0.3,0.3,0.6,0.3,0.9C367.1,77.7,367.1,78.2,367.1,79z M365.2,82.8V80l-1.3,0.5c-0.6,0.3-1.1,0.5-1.4,0.8s-0.4,0.6-0.4,1
		s0.1,0.7,0.4,1c0.3,0.2,0.6,0.4,1,0.4C364.2,83.6,364.7,83.3,365.2,82.8z"/>
	<path d="M371.1,71.2c0.3,0,0.6,0.1,0.8,0.3c0.2,0.2,0.3,0.5,0.3,0.8s-0.1,0.6-0.3,0.8c-0.2,0.2-0.5,0.3-0.8,0.3s-0.5-0.1-0.8-0.3
		c-0.2-0.2-0.3-0.5-0.3-0.8s0.1-0.5,0.3-0.8C370.6,71.3,370.8,71.2,371.1,71.2z M370.2,75.2h1.9v9.5h-1.9V75.2z"/>
	<path d="M376.8,75.2v2.2l0.1-0.2c0.9-1.5,1.8-2.2,2.7-2.2c0.7,0,1.4,0.4,2.2,1.1l-1,1.7c-0.7-0.6-1.3-0.9-1.8-0.9
		c-0.6,0-1.1,0.3-1.6,0.9c-0.4,0.6-0.7,1.3-0.7,2.1v5h-1.9v-9.5h2L376.8,75.2L376.8,75.2z"/>
	<path d="M382.7,84v-2c0.5,0.4,1.1,0.7,1.6,0.9c0.6,0.2,1,0.3,1.4,0.3s0.7-0.1,1-0.3c0.3-0.2,0.4-0.4,0.4-0.7c0-0.3-0.1-0.5-0.3-0.7
		c-0.2-0.2-0.6-0.4-1.2-0.8c-1.2-0.7-2-1.3-2.4-1.7c-0.4-0.5-0.6-1-0.6-1.6c0-0.7,0.3-1.3,0.9-1.8s1.3-0.7,2.2-0.7
		c0.9,0,1.9,0.3,2.9,0.8v1.9c-1.1-0.7-2-1-2.7-1c-0.4,0-0.7,0.1-0.9,0.2c-0.2,0.2-0.3,0.4-0.3,0.6s0.1,0.4,0.3,0.6
		c0.2,0.2,0.6,0.4,1.1,0.7l0.7,0.4c1.6,0.9,2.4,1.9,2.4,3c0,0.8-0.3,1.4-0.9,1.9s-1.4,0.7-2.3,0.7c-0.6,0-1.1-0.1-1.5-0.2
		S383.4,84.4,382.7,84z"/>
</g>
<rect x="343.1" y="99" class="st5" width="162.9" height="49"/>
<path d="M353.8,102.3h2.1l-6.1,14.5h-0.5l-6.2-14.5h2.1l4.3,10.1L353.8,102.3z"/>
<path d="M358.1,103.2c0.3,0,0.6,0.1,0.8,0.3c0.2,0.2,0.3,0.5,0.3,0.8s-0.1,0.6-0.3,0.8c-0.2,0.2-0.5,0.3-0.8,0.3s-0.5-0.1-0.8-0.3
	c-0.2-0.2-0.3-0.5-0.3-0.8s0.1-0.5,0.3-0.8C357.6,103.4,357.9,103.2,358.1,103.2z M357.2,107.2h1.9v9.5h-1.9V107.2z"/>
<path d="M361.3,116.1v-2c0.5,0.4,1.1,0.7,1.6,0.9c0.6,0.2,1,0.3,1.4,0.3s0.7-0.1,1-0.3c0.3-0.2,0.4-0.4,0.4-0.7
	c0-0.3-0.1-0.5-0.3-0.7c-0.2-0.2-0.6-0.4-1.2-0.8c-1.2-0.7-2-1.3-2.4-1.7c-0.4-0.5-0.6-1-0.6-1.6c0-0.7,0.3-1.3,0.9-1.8
	s1.3-0.7,2.2-0.7c0.9,0,1.9,0.3,2.9,0.8v1.9c-1.1-0.7-2-1-2.7-1c-0.4,0-0.7,0.1-0.9,0.2c-0.2,0.2-0.3,0.4-0.3,0.6s0.1,0.4,0.3,0.6
	c0.2,0.2,0.6,0.4,1.1,0.7l0.7,0.4c1.6,0.9,2.4,1.9,2.4,3c0,0.8-0.3,1.4-0.9,1.9s-1.4,0.7-2.3,0.7c-0.6,0-1.1-0.1-1.5-0.2
	S362,116.4,361.3,116.1z"/>
<path d="M370.9,103.2c0.3,0,0.6,0.1,0.8,0.3c0.2,0.2,0.3,0.5,0.3,0.8s-0.1,0.6-0.3,0.8c-0.2,0.2-0.5,0.3-0.8,0.3s-0.5-0.1-0.8-0.3
	c-0.2-0.2-0.3-0.5-0.3-0.8s0.1-0.5,0.3-0.8C370.4,103.4,370.6,103.2,370.9,103.2z M370,107.2h1.9v9.5H370V107.2z"/>
<path d="M373.2,108.7l3.5-3.5v2h3v1.7h-3v4.6c0,1.1,0.5,1.6,1.4,1.6c0.7,0,1.4-0.2,2.1-0.7v1.8c-0.7,0.4-1.5,0.6-2.4,0.6
	s-1.6-0.3-2.1-0.8c-0.2-0.2-0.3-0.3-0.4-0.5s-0.2-0.4-0.3-0.7c-0.1-0.3-0.1-0.9-0.1-1.7v-4.2h-1.7V108.7z"/>
<path d="M386.2,107.2c1.4,0,2.6,0.5,3.6,1.4s1.4,2.1,1.4,3.5s-0.5,2.5-1.5,3.4s-2.2,1.4-3.7,1.4c-1.4,0-2.6-0.5-3.6-1.4
	s-1.4-2.1-1.4-3.4c0-1.4,0.5-2.5,1.5-3.5S384.7,107.2,386.2,107.2z M386.1,108.9c-0.9,0-1.6,0.3-2.2,0.9s-0.9,1.3-0.9,2.3
	c0,0.9,0.3,1.6,0.9,2.2s1.4,0.9,2.3,0.9s1.7-0.3,2.3-0.9c0.6-0.6,0.9-1.3,0.9-2.2c0-0.9-0.3-1.6-0.9-2.2S387,108.9,386.1,108.9z"/>
<path d="M395.3,107.2v2.2l0.1-0.2c0.9-1.5,1.8-2.2,2.7-2.2c0.7,0,1.4,0.4,2.2,1.1l-1,1.7c-0.7-0.6-1.3-0.9-1.8-0.9
	c-0.6,0-1.1,0.3-1.6,0.9c-0.4,0.6-0.7,1.3-0.7,2.1v5h-1.9v-9.5h2L395.3,107.2L395.3,107.2z"/>
<path d="M420.2,113.4v2.3c-1.5,0.8-3.3,1.2-5.2,1.2c-1.6,0-3-0.3-4.1-1c-1.1-0.6-2-1.5-2.7-2.7c-0.7-1.1-1-2.4-1-3.7
	c0-2.1,0.7-3.9,2.2-5.3s3.3-2.1,5.5-2.1c1.5,0,3.2,0.4,5,1.2v2.2c-1.7-1-3.3-1.4-4.9-1.4c-1.7,0-3,0.5-4.1,1.6
	c-1.1,1-1.6,2.3-1.6,3.9s0.5,2.9,1.6,3.9s2.4,1.5,4.1,1.5C416.8,115,418.5,114.5,420.2,113.4z"/>
<path d="M427,107.2c1.4,0,2.6,0.5,3.6,1.4s1.4,2.1,1.4,3.5s-0.5,2.5-1.5,3.4s-2.2,1.4-3.7,1.4c-1.4,0-2.6-0.5-3.6-1.4
	s-1.4-2.1-1.4-3.4c0-1.4,0.5-2.5,1.5-3.5S425.6,107.2,427,107.2z M426.9,108.9c-0.9,0-1.6,0.3-2.2,0.9s-0.9,1.3-0.9,2.3
	c0,0.9,0.3,1.6,0.9,2.2s1.4,0.9,2.3,0.9s1.7-0.3,2.3-0.9c0.6-0.6,0.9-1.3,0.9-2.2c0-0.9-0.3-1.6-0.9-2.2S427.9,108.9,426.9,108.9z"
	/>
<path d="M441.9,109.8v6.9H440v-5.3c0-1.1-0.1-1.8-0.4-2.2c-0.3-0.4-0.8-0.6-1.5-0.6c-0.4,0-0.8,0.1-1.1,0.3
	c-0.3,0.2-0.7,0.5-1.1,0.9v6.9H434v-9.5h1.9v1.2c1-1,1.9-1.4,2.8-1.4c1.2,0,2.1,0.6,2.8,1.7c1-1.2,2.1-1.7,3.1-1.7
	c0.9,0,1.7,0.3,2.3,1c0.6,0.7,0.9,1.7,0.9,3.1v5.6H446v-5.6c0-0.8-0.2-1.4-0.5-1.8s-0.8-0.6-1.4-0.6
	C443.3,108.7,442.6,109.1,441.9,109.8z"/>
<path d="M450.3,121.6v-14.3h3.3c1.7,0,3,0.4,3.9,1.3c0.9,0.8,1.4,2,1.4,3.5c0,1.4-0.4,2.6-1.3,3.5s-2,1.4-3.4,1.4
	c-0.6,0-1.3-0.1-2-0.4v5.1L450.3,121.6L450.3,121.6z M453.6,109h-1.3v5.8c0.6,0.3,1.2,0.4,1.8,0.4c0.9,0,1.6-0.3,2.2-0.9
	s0.8-1.4,0.8-2.4c0-0.6-0.1-1.2-0.4-1.6s-0.6-0.8-1.1-1C455.1,109.1,454.5,109,453.6,109z"/>
<path d="M467.1,116.7v-1.2c-0.4,0.4-0.9,0.8-1.4,1s-1,0.4-1.5,0.4c-0.6,0-1.2-0.1-1.7-0.4s-0.9-0.7-1.1-1.2
	c-0.3-0.5-0.4-1.4-0.4-2.6v-5.4h1.9v5.4c0,1,0.1,1.7,0.4,2.1s0.8,0.6,1.5,0.6c0.9,0,1.7-0.4,2.3-1.3v-6.8h1.9v9.5L467.1,116.7
	L467.1,116.7z"/>
<path d="M470.3,108.7l3.5-3.5v2h3v1.7h-3v4.6c0,1.1,0.5,1.6,1.4,1.6c0.7,0,1.4-0.2,2.1-0.7v1.8c-0.7,0.4-1.5,0.6-2.4,0.6
	s-1.6-0.3-2.1-0.8c-0.2-0.2-0.3-0.3-0.4-0.5s-0.2-0.4-0.3-0.7c-0.1-0.3-0.1-0.9-0.1-1.7v-4.2h-1.7V108.7z"/>
<path d="M486.7,112.2H480c0,0.9,0.4,1.6,0.9,2.2c0.6,0.5,1.3,0.8,2.2,0.8c1.2,0,2.4-0.4,3.4-1.2v1.8c-0.6,0.4-1.2,0.7-1.7,0.8
	s-1.2,0.2-2,0.2c-1,0-1.9-0.2-2.5-0.7c-0.6-0.4-1.2-1-1.6-1.8c-0.4-0.7-0.6-1.6-0.6-2.5c0-1.4,0.4-2.6,1.2-3.5
	c0.8-0.9,1.9-1.4,3.2-1.4c1.3,0,2.3,0.4,3,1.3s1.1,2.1,1.1,3.5v0.5C486.6,112.2,486.7,112.2,486.7,112.2z M480.1,111h4.8
	c0-0.8-0.3-1.3-0.7-1.7c-0.4-0.4-0.9-0.6-1.6-0.6s-1.2,0.2-1.7,0.6S480.2,110.3,480.1,111z"/>
<path d="M490.8,107.2v2.2l0.1-0.2c0.9-1.5,1.8-2.2,2.7-2.2c0.7,0,1.4,0.4,2.2,1.1l-1,1.7c-0.7-0.6-1.3-0.9-1.8-0.9
	c-0.6,0-1.1,0.3-1.6,0.9c-0.4,0.6-0.7,1.3-0.7,2.1v5h-1.9v-9.5h2L490.8,107.2L490.8,107.2z"/>
<path d="M342.9,136.1h10.9v1.4h-10.9V136.1z"/>
<path d="M372.6,127.7h2v14.4h-1.8l-9.6-11.1v11.1h-1.9v-14.4h1.7l9.7,11.2v-11.2H372.6z"/>
<path d="M377.6,142.1v-14.4h4.9c2,0,3.5,0.3,4.7,0.9c1.1,0.6,2.1,1.5,2.7,2.6c0.7,1.1,1,2.4,1,3.7c0,1-0.2,1.9-0.6,2.8
	c-0.4,0.9-0.9,1.7-1.6,2.3c-0.7,0.7-1.5,1.2-2.4,1.6c-0.5,0.2-1,0.4-1.5,0.4s-1.3,0.1-2.6,0.1L377.6,142.1L377.6,142.1z
	 M382.3,129.6h-2.6v10.7h2.6c1,0,1.8-0.1,2.4-0.2c0.6-0.1,1-0.3,1.4-0.5s0.7-0.5,1-0.8c1-1,1.5-2.3,1.5-3.9c0-1.5-0.5-2.8-1.6-3.8
	c-0.4-0.4-0.8-0.7-1.3-0.9s-1-0.4-1.4-0.5C384,129.6,383.3,129.6,382.3,129.6z"/>
<path d="M411.8,138.8v2.3c-1.5,0.8-3.3,1.2-5.2,1.2c-1.6,0-3-0.3-4.1-1c-1.1-0.6-2-1.5-2.7-2.7c-0.7-1.1-1-2.4-1-3.7
	c0-2.1,0.7-3.9,2.2-5.3c1.5-1.4,3.3-2.1,5.5-2.1c1.5,0,3.2,0.4,5,1.2v2.2c-1.7-1-3.3-1.4-4.9-1.4c-1.7,0-3,0.5-4.1,1.6
	c-1.1,1-1.6,2.3-1.6,3.9c0,1.6,0.5,2.9,1.6,3.9s2.4,1.5,4.1,1.5C408.4,140.4,410.1,139.9,411.8,138.8z"/>
<path d="M420,136.4v4c0,0.3,0.1,0.5,0.3,0.5c0.2,0,0.6-0.2,1.1-0.5v1.1c-0.4,0.3-0.8,0.5-1,0.6s-0.5,0.1-0.8,0.1
	c-0.8,0-1.3-0.3-1.4-0.9c-0.8,0.6-1.6,0.9-2.5,0.9c-0.7,0-1.2-0.2-1.7-0.7c-0.4-0.4-0.7-1-0.7-1.6s0.2-1.1,0.6-1.6s1-0.8,1.8-1.1
	l2.4-0.8v-0.5c0-1.1-0.6-1.7-1.7-1.7c-1,0-2,0.5-3,1.6v-2.1c0.7-0.9,1.8-1.3,3.1-1.3c1,0,1.8,0.3,2.5,0.8c0.2,0.2,0.4,0.4,0.6,0.7
	s0.3,0.6,0.3,0.9C420,135.1,420,135.6,420,136.4z M418.2,140.3v-2.8l-1.3,0.5c-0.6,0.3-1.1,0.5-1.4,0.8s-0.4,0.6-0.4,1
	s0.1,0.7,0.4,1c0.3,0.2,0.6,0.4,1,0.4C417.1,141,417.7,140.7,418.2,140.3z"/>
<path d="M421.7,134.1l3.5-3.5v2h3v1.7h-3v4.6c0,1.1,0.5,1.6,1.4,1.6c0.7,0,1.4-0.2,2.1-0.7v1.8c-0.7,0.4-1.5,0.6-2.4,0.6
	s-1.6-0.3-2.1-0.8c-0.2-0.2-0.3-0.3-0.4-0.5s-0.2-0.4-0.3-0.7c-0.1-0.3-0.1-0.9-0.1-1.7v-4.2h-1.7V134.1z"/>
<path d="M436.1,136.4v4c0,0.3,0.1,0.5,0.3,0.5c0.2,0,0.6-0.2,1.1-0.5v1.1c-0.4,0.3-0.8,0.5-1,0.6c-0.3,0.1-0.5,0.1-0.8,0.1
	c-0.8,0-1.3-0.3-1.4-0.9c-0.8,0.6-1.6,0.9-2.5,0.9c-0.7,0-1.2-0.2-1.7-0.7c-0.4-0.4-0.7-1-0.7-1.6s0.2-1.1,0.6-1.6s1-0.8,1.8-1.1
	l2.4-0.8v-0.5c0-1.1-0.6-1.7-1.7-1.7c-1,0-2,0.5-3,1.6v-2.1c0.7-0.9,1.8-1.3,3.1-1.3c1,0,1.8,0.3,2.5,0.8c0.2,0.2,0.4,0.4,0.6,0.7
	s0.3,0.6,0.3,0.9C436.1,135.1,436.1,135.6,436.1,136.4z M434.2,140.3v-2.8l-1.3,0.5c-0.6,0.3-1.1,0.5-1.4,0.8s-0.4,0.6-0.4,1
	s0.1,0.7,0.4,1c0.3,0.2,0.6,0.4,1,0.4C433.2,141,433.7,140.7,434.2,140.3z"/>
<path d="M439.2,127.7h1.9v14.4h-1.9V127.7z"/>
<path d="M448.3,132.6c1.4,0,2.6,0.5,3.6,1.4s1.4,2.1,1.4,3.5s-0.5,2.5-1.5,3.4s-2.2,1.4-3.7,1.4c-1.4,0-2.6-0.5-3.6-1.4
	s-1.4-2.1-1.4-3.4c0-1.4,0.5-2.5,1.5-3.5S446.8,132.6,448.3,132.6z M448.2,134.3c-0.9,0-1.6,0.3-2.2,0.9s-0.9,1.3-0.9,2.3
	c0,0.9,0.3,1.6,0.9,2.2c0.6,0.6,1.4,0.9,2.3,0.9s1.7-0.3,2.3-0.9c0.6-0.6,0.9-1.3,0.9-2.2s-0.3-1.6-0.9-2.2S449.1,134.3,448.2,134.3
	z"/>
<path d="M454.9,135.9c0-1,0.4-1.8,1.1-2.4c0.7-0.6,1.7-0.9,3-0.9h3.9v1.5H461c0.4,0.4,0.6,0.7,0.8,1c0.1,0.3,0.2,0.7,0.2,1.1
	c0,0.5-0.1,1-0.4,1.5s-0.6,0.8-1.1,1.1c-0.4,0.3-1.2,0.5-2.2,0.6c-0.7,0.1-1.1,0.3-1.1,0.7c0,0.2,0.1,0.4,0.4,0.5s0.7,0.3,1.4,0.4
	c1.2,0.3,1.9,0.5,2.2,0.6c0.3,0.1,0.6,0.4,0.9,0.6c0.5,0.5,0.7,1,0.7,1.7c0,0.9-0.4,1.6-1.2,2.2c-0.8,0.5-1.9,0.8-3.2,0.8
	c-1.4,0-2.4-0.3-3.2-0.8c-0.8-0.5-1.2-1.3-1.2-2.2c0-1.3,0.8-2.1,2.4-2.5c-0.6-0.4-0.9-0.8-0.9-1.2c0-0.3,0.1-0.6,0.4-0.8
	s0.6-0.4,1.1-0.5C455.6,138.3,454.9,137.3,454.9,135.9z M458,142.6c-0.6,0-1.2,0.1-1.6,0.4s-0.6,0.6-0.6,1c0,1,0.9,1.5,2.6,1.5
	c0.8,0,1.5-0.1,1.9-0.4c0.5-0.2,0.7-0.6,0.7-1s-0.3-0.8-0.9-1.1C459.7,142.7,458.9,142.6,458,142.6z M458.5,134.3
	c-0.5,0-0.9,0.2-1.3,0.5s-0.5,0.8-0.5,1.2c0,0.5,0.2,0.9,0.5,1.2c0.4,0.3,0.8,0.5,1.3,0.5s1-0.2,1.3-0.5s0.5-0.7,0.5-1.2
	s-0.2-0.9-0.5-1.2C459.5,134.4,459,134.3,458.5,134.3z"/>
<path class="st6" d="M319.2,6.6h1.1v14.9h-1.1V6.6L319.2,6.6z"/>
<path class="st6" d="M325.5,6.6c0.7,0,1.2,0.4,1.3,1.1l0,0c0,0.7-0.6,1.2-1.3,1.1c-0.6,0-1.1-0.5-1.1-1.1
	C324.3,7.2,324.8,6.6,325.5,6.6L325.5,6.6z"/>
<path class="st6" d="M313.6,6.7c0.6-0.2,1.3,0.2,1.5,0.9c0.1,0.3,0.1,0.5-0.1,0.8c-0.3,0.6-1.1,0.8-1.7,0.5
	c-0.5-0.3-0.8-0.9-0.6-1.4C312.9,7,313.2,6.7,313.6,6.7z"/>
<path class="st6" d="M327.8,10.9h-0.5c-0.2,2.7,0.1,6,0,9c0,0.8,0,1.4-0.7,1.5c-1,0-0.7-1.8-0.7-2.8v-3.5h-0.5c-0.1,1.1,0,2.3,0,3.5
	c0,1,0.3,2.9-0.7,2.8c-0.8,0-0.6-1.2-0.6-2.2v-8.3h-0.6c-0.1,0.7,0,1.6,0,2.3s0.2,1.9-0.6,1.8c-0.5-0.1-0.3-1.3-0.3-2.2
	c0-2.1-0.2-3.4,1.4-3.6c1.1-0.1,2.3-0.1,3.4,0c0.7,0.1,1.3,0.6,1.5,1.3c0.1,0.6,0,1.6,0,2.4s0.1,1.9-0.3,2.1
	c-0.8,0.2-0.6-0.9-0.6-1.7L327.8,10.9z"/>
<path class="st6" d="M315.7,11h-0.5c0.4,1.8,1,3.7,1.5,5.5h-1.5c-0.1,0.8,0,1.6,0,2.5c0,0.7,0.2,2.1-0.2,2.3c-0.2,0.1-0.5,0.1-0.7,0
	c-0.4-0.3-0.2-1.6-0.2-2.3v-2.5c-0.1-0.1-0.4,0-0.6,0V19c0,0.7,0.2,2.1-0.2,2.3c-0.2,0.1-0.5,0.1-0.7,0c-0.4-0.2-0.2-1.6-0.2-2.3
	v-2.5H311c0.5-1.8,1-3.7,1.5-5.5c-0.1-0.1-0.3,0-0.5,0c-0.2,0.7-0.4,1.2-0.6,1.9c-0.1,0.4-0.3,1.6-0.8,1.7c-1.1,0.1-0.1-2,0-2.4
	c0.4-1.2,0.5-2.6,1.8-2.8c0.5,0,1,0,1.5,0c1.3,0,2.2,0,2.7,0.9c0.2,0.6,0.4,1.2,0.6,1.9c0.1,0.3,0.2,0.6,0.3,1s0.5,1.4-0.3,1.4
	c-0.5,0-0.7-1.2-0.8-1.6C316,12.2,315.9,11.6,315.7,11z"/>
<path class="st6" d="M312.6,51.4V41.3l3.1,3.1c0.3,0.4,0.8,0.4,1.2,0.1s0.4-0.8,0.1-1.2l-0.1-0.1l-4.4-4.3l-0.9-0.9l-0.9,0.9
	l-4.3,4.3c-0.3,0.4-0.2,0.9,0.1,1.2c0.3,0.3,0.8,0.3,1.1,0l3.1-3.1v10.1c0,0.5,0.4,0.9,0.9,0.9C312.2,52.3,312.6,51.9,312.6,51.4
	L312.6,51.4z"/>
<path class="st6" d="M324.4,38.9V49l-3.1-3.1c-0.4-0.3-0.9-0.2-1.2,0.1c-0.3,0.3-0.3,0.8,0,1.1l4.4,4.3l0.9,0.8l0.9-0.8l4.4-4.3
	c0.3-0.3,0.3-0.9,0-1.2s-0.9-0.3-1.2,0l0,0l-3.1,3.1V38.9c0.1-0.5-0.3-0.9-0.8-0.9c-0.5-0.1-0.9,0.3-0.9,0.8
	C324.4,38.8,324.4,38.8,324.4,38.9L324.4,38.9z"/>
<rect x="303.3" y="70.7" class="st7" width="31.6" height="14.8"/>
<line class="st7" x1="316.3" y1="70.7" x2="316.3" y2="85.4"/>
<line class="st7" x1="320.1" y1="71.3" x2="320.1" y2="85.4"/>
<line class="st7" x1="323.8" y1="71.3" x2="323.8" y2="84.8"/>
<line class="st7" x1="327.6" y1="71.3" x2="327.6" y2="85.4"/>
<line class="st7" x1="331.4" y1="70.7" x2="331.4" y2="84.8"/>
<g class="st0">
	<path d="M41.7,122.8c2.4,0,4.4,0.8,6,2.3s2.4,3.4,2.4,5.7s-0.8,4.2-2.4,5.7s-3.6,2.2-6.1,2.2c-2.3,0-4.3-0.7-5.8-2.2
		c-1.6-1.5-2.3-3.4-2.3-5.6c0-2.3,0.8-4.2,2.3-5.7C37.4,123.5,39.3,122.8,41.7,122.8z M41.8,124.9c-1.8,0-3.2,0.6-4.4,1.7
		c-1.1,1.1-1.7,2.5-1.7,4.2s0.6,3.1,1.7,4.2c1.1,1.1,2.6,1.7,4.3,1.7s3.2-0.6,4.3-1.7c1.2-1.1,1.7-2.5,1.7-4.2c0-1.6-0.6-3-1.7-4.1
		C44.9,125.4,43.5,124.9,41.8,124.9z"/>
</g>
<g class="st0">
	<path d="M52.8,128.3v-0.6c0-1.6,0.3-2.9,1-3.7c0.7-0.8,1.5-1.2,2.5-1.2c0.4,0,0.9,0.1,1.5,0.2v2c-0.3-0.1-0.6-0.2-0.9-0.2
		c-0.8,0-1.3,0.2-1.6,0.6s-0.5,1.2-0.5,2.2v0.6h1.8v1.8h-1.8v8.4h-2V130h-1.5v-1.8L52.8,128.3L52.8,128.3z"/>
</g>
<g class="st0">
	<path d="M58.5,128.3v-0.6c0-1.6,0.3-2.9,1-3.7c0.7-0.8,1.5-1.2,2.5-1.2c0.4,0,0.9,0.1,1.5,0.2v2c-0.3-0.1-0.6-0.2-0.9-0.2
		c-0.8,0-1.3,0.2-1.6,0.6s-0.5,1.2-0.5,2.2v0.6h1.8v1.8h-1.8v8.4h-2V130H57v-1.8L58.5,128.3L58.5,128.3z"/>
</g>
<g class="st0">
	<path d="M64.9,124c0.3,0,0.6,0.1,0.9,0.3c0.2,0.2,0.4,0.5,0.4,0.8s-0.1,0.6-0.4,0.8s-0.5,0.4-0.9,0.4c-0.3,0-0.6-0.1-0.8-0.4
		s-0.4-0.5-0.4-0.8s0.1-0.6,0.4-0.8S64.6,124,64.9,124z M63.9,128.3h2v10.2h-2V128.3z"/>
</g>
<g class="st0">
	<path d="M76.5,136.1v2c-1,0.4-2,0.6-3,0.6c-1.6,0-2.9-0.5-3.8-1.4s-1.4-2.2-1.4-3.8s0.5-2.9,1.4-3.9s2.1-1.5,3.6-1.5
		c0.5,0,1,0,1.4,0.2c0.4,0.1,0.9,0.3,1.5,0.6v2.1c-1-0.6-2-1-2.8-1c-0.9,0-1.7,0.3-2.2,1s-0.9,1.5-0.9,2.4c0,1,0.3,1.9,0.9,2.5
		s1.5,0.9,2.6,0.9C74.6,136.8,75.5,136.6,76.5,136.1z"/>
	<path d="M87.5,133.6h-7.2c0.1,1,0.4,1.8,1,2.3c0.6,0.6,1.4,0.9,2.3,0.9c1.3,0,2.6-0.4,3.7-1.2v2c-0.6,0.4-1.2,0.7-1.8,0.9
		s-1.3,0.3-2.1,0.3c-1.1,0-2-0.2-2.7-0.7s-1.3-1.1-1.7-1.9c-0.4-0.8-0.6-1.7-0.6-2.7c0-1.6,0.4-2.8,1.3-3.8s2-1.5,3.4-1.5
		s2.4,0.5,3.2,1.4c0.8,0.9,1.2,2.2,1.2,3.8C87.5,133.4,87.5,133.6,87.5,133.6z M80.4,132.4h5.1c-0.1-0.8-0.3-1.4-0.7-1.9
		c-0.4-0.4-1-0.7-1.7-0.7s-1.3,0.2-1.8,0.7C80.8,130.9,80.5,131.6,80.4,132.4z"/>
	<path d="M89.2,137.8v-2.2c0.6,0.4,1.2,0.7,1.7,1c0.6,0.2,1.1,0.4,1.5,0.4s0.8-0.1,1.1-0.3c0.3-0.2,0.5-0.5,0.5-0.7
		c0-0.3-0.1-0.5-0.3-0.7c-0.2-0.2-0.6-0.5-1.3-0.8c-1.3-0.7-2.2-1.3-2.6-1.9c-0.4-0.5-0.6-1.1-0.6-1.7c0-0.8,0.3-1.4,0.9-1.9
		s1.4-0.7,2.4-0.7s2,0.3,3.1,0.8v2c-1.2-0.7-2.2-1.1-2.9-1.1c-0.4,0-0.7,0.1-0.9,0.2c-0.2,0.2-0.4,0.4-0.4,0.7
		c0,0.2,0.1,0.5,0.3,0.7c0.2,0.2,0.6,0.5,1.1,0.8l0.7,0.4c1.7,1,2.5,2,2.5,3.2c0,0.8-0.3,1.5-1,2.1c-0.7,0.5-1.5,0.8-2.5,0.8
		c-0.6,0-1.1-0.1-1.6-0.2S89.9,138.1,89.2,137.8z"/>
	<path d="M97.1,138.7l4.5-15.9h1.6l-4.4,15.9H97.1z"/>
	<path d="M118.4,134.9v2.4c-1.6,0.9-3.5,1.3-5.6,1.3c-1.7,0-3.2-0.3-4.4-1c-1.2-0.7-2.2-1.7-2.9-2.9c-0.7-1.2-1.1-2.5-1.1-4
		c0-2.3,0.8-4.1,2.4-5.7c1.6-1.5,3.6-2.3,5.9-2.3c1.6,0,3.4,0.4,5.4,1.3v2.4c-1.8-1-3.6-1.6-5.3-1.6c-1.8,0-3.2,0.6-4.4,1.7
		c-1.2,1.1-1.8,2.5-1.8,4.2s0.6,3.1,1.7,4.2c1.2,1.1,2.6,1.6,4.4,1.6C114.8,136.6,116.6,136,118.4,134.9z"/>
	<path d="M120.9,123h2v15.5h-2V123z"/>
	<path d="M132.2,132.4v4.3c0,0.3,0.1,0.5,0.4,0.5c0.2,0,0.6-0.2,1.1-0.5v1.2c-0.5,0.3-0.8,0.5-1.1,0.6s-0.6,0.2-0.9,0.2
		c-0.9,0-1.4-0.3-1.5-1c-0.9,0.7-1.8,1-2.7,1c-0.7,0-1.3-0.2-1.8-0.7s-0.7-1.1-0.7-1.8c0-0.6,0.2-1.2,0.7-1.7s1.1-0.9,2-1.2l2.6-0.9
		v-0.5c0-1.2-0.6-1.8-1.8-1.8c-1.1,0-2.2,0.6-3.2,1.7v-2.2c0.8-0.9,1.9-1.4,3.4-1.4c1.1,0,2,0.3,2.6,0.9c0.2,0.2,0.4,0.4,0.6,0.7
		s0.3,0.6,0.3,0.9C132.2,130.9,132.2,131.5,132.2,132.4z M130.3,136.5v-3l-1.4,0.5c-0.7,0.3-1.2,0.5-1.5,0.8s-0.4,0.6-0.4,1
		s0.1,0.8,0.4,1s0.6,0.4,1,0.4C129.1,137.3,129.7,137,130.3,136.5z"/>
	<path d="M135,137.8v-2.2c0.6,0.4,1.2,0.7,1.7,1c0.6,0.2,1.1,0.4,1.5,0.4s0.8-0.1,1.1-0.3s0.5-0.5,0.5-0.7c0-0.3-0.1-0.5-0.3-0.7
		s-0.6-0.5-1.3-0.8c-1.3-0.7-2.2-1.3-2.6-1.9c-0.4-0.5-0.6-1.1-0.6-1.7c0-0.8,0.3-1.4,0.9-1.9s1.4-0.7,2.4-0.7s2,0.3,3.1,0.8v2
		c-1.2-0.7-2.2-1.1-2.9-1.1c-0.4,0-0.7,0.1-0.9,0.2c-0.2,0.2-0.4,0.4-0.4,0.7c0,0.2,0.1,0.5,0.3,0.7s0.6,0.5,1.1,0.8l0.7,0.4
		c1.7,1,2.5,2,2.5,3.2c0,0.8-0.3,1.5-1,2.1c-0.7,0.5-1.5,0.8-2.5,0.8c-0.6,0-1.1-0.1-1.6-0.2S135.7,138.1,135,137.8z"/>
	<path d="M143.8,137.8v-2.2c0.6,0.4,1.2,0.7,1.7,1c0.6,0.2,1.1,0.4,1.5,0.4s0.8-0.1,1.1-0.3s0.5-0.5,0.5-0.7c0-0.3-0.1-0.5-0.3-0.7
		s-0.6-0.5-1.3-0.8c-1.3-0.7-2.2-1.3-2.6-1.9c-0.4-0.5-0.6-1.1-0.6-1.7c0-0.8,0.3-1.4,0.9-1.9s1.4-0.7,2.4-0.7s2,0.3,3.1,0.8v2
		c-1.2-0.7-2.2-1.1-2.9-1.1c-0.4,0-0.7,0.1-0.9,0.2c-0.2,0.2-0.4,0.4-0.4,0.7c0,0.2,0.1,0.5,0.3,0.7s0.6,0.5,1.1,0.8l0.7,0.4
		c1.7,1,2.5,2,2.5,3.2c0,0.8-0.3,1.5-1,2.1c-0.7,0.5-1.5,0.8-2.5,0.8c-0.6,0-1.1-0.1-1.6-0.2S144.5,138.1,143.8,137.8z"/>
	<path d="M155.2,128.3v2.3l0.1-0.2c1-1.6,2-2.4,2.9-2.4c0.8,0,1.6,0.4,2.4,1.2l-1.1,1.8c-0.7-0.7-1.4-1-2-1s-1.2,0.3-1.7,0.9
		c-0.5,0.6-0.7,1.4-0.7,2.2v5.3h-2v-10.2L155.2,128.3L155.2,128.3z"/>
	<path d="M166.3,128.3c1.6,0,2.8,0.5,3.9,1.5c1,1,1.5,2.3,1.5,3.8s-0.5,2.7-1.6,3.7c-1,1-2.4,1.5-3.9,1.5s-2.8-0.5-3.8-1.5
		s-1.5-2.2-1.5-3.7s0.5-2.7,1.6-3.7C163.4,128.8,164.7,128.3,166.3,128.3z M166.2,130.1c-1,0-1.8,0.3-2.4,1
		c-0.6,0.6-0.9,1.4-0.9,2.4s0.3,1.8,1,2.4c0.6,0.6,1.5,0.9,2.4,0.9c1,0,1.8-0.3,2.4-0.9c0.6-0.6,0.9-1.4,0.9-2.4s-0.3-1.8-1-2.4
		S167.2,130.1,166.2,130.1z"/>
	<path d="M178.8,128.3c1.6,0,2.8,0.5,3.9,1.5c1,1,1.5,2.3,1.5,3.8s-0.5,2.7-1.6,3.7c-1,1-2.4,1.5-3.9,1.5s-2.8-0.5-3.8-1.5
		s-1.5-2.2-1.5-3.7s0.5-2.7,1.6-3.7C175.9,128.8,177.2,128.3,178.8,128.3z M178.7,130.1c-1,0-1.8,0.3-2.4,1
		c-0.6,0.6-0.9,1.4-0.9,2.4s0.3,1.8,1,2.4c0.6,0.6,1.5,0.9,2.4,0.9c1,0,1.8-0.3,2.4-0.9c0.6-0.6,0.9-1.4,0.9-2.4s-0.3-1.8-1-2.4
		S179.7,130.1,178.7,130.1z"/>
	<path d="M194.8,131.1v7.4h-2v-5.7c0-1.1-0.2-1.9-0.5-2.4c-0.3-0.4-0.8-0.7-1.6-0.7c-0.4,0-0.8,0.1-1.2,0.3s-0.8,0.5-1.2,1v7.4h-2
		v-10.2h2v1.3c1-1,2-1.5,3-1.5c1.3,0,2.3,0.6,3,1.8c1.1-1.2,2.2-1.9,3.4-1.9c1,0,1.8,0.4,2.4,1.1c0.6,0.7,1,1.8,1,3.3v6h-2v-6
		c0-0.8-0.2-1.5-0.5-1.9s-0.8-0.7-1.5-0.7C196.3,129.8,195.5,130.2,194.8,131.1z"/>
	<path d="M203.4,137.8v-2.2c0.6,0.4,1.2,0.7,1.7,1c0.6,0.2,1.1,0.4,1.5,0.4s0.8-0.1,1.1-0.3s0.5-0.5,0.5-0.7c0-0.3-0.1-0.5-0.3-0.7
		s-0.6-0.5-1.3-0.8c-1.3-0.7-2.2-1.3-2.6-1.9c-0.4-0.5-0.6-1.1-0.6-1.7c0-0.8,0.3-1.4,0.9-1.9s1.4-0.7,2.4-0.7s2,0.3,3.1,0.8v2
		c-1.2-0.7-2.2-1.1-2.9-1.1c-0.4,0-0.7,0.1-0.9,0.2c-0.2,0.2-0.4,0.4-0.4,0.7c0,0.2,0.1,0.5,0.3,0.7s0.6,0.5,1.1,0.8l0.7,0.4
		c1.7,1,2.5,2,2.5,3.2c0,0.8-0.3,1.5-1,2.1c-0.7,0.5-1.5,0.8-2.5,0.8c-0.6,0-1.1-0.1-1.6-0.2S204.2,138.1,203.4,137.8z"/>
</g>
<rect x="0.9" y="124.2" class="st8" width="14.4" height="14.4"/>
<rect x="0.9" y="156.5" class="st9" width="14.4" height="14.4"/>
<path class="st6" d="M328.1,100.7H310c-1,0-1.8,0.8-1.8,1.8v12c0,1,0.8,1.8,1.8,1.8h7.2l-0.6,1.8H314c-0.5,0-0.9,0.4-0.9,0.9
	s0.4,0.9,0.9,0.9h10.2c0.5,0,0.9-0.4,0.9-0.9s-0.4-0.9-0.9-0.9h-2.7l-0.6-1.8h7.2c1,0,1.8-0.8,1.8-1.8v-12
	C329.9,101.5,329.1,100.7,328.1,100.7z M327.5,113.9h-16.9v-10.8h16.9V113.9z"/>
<g>
	<path d="M47,167.9v2.4c-1.6,0.9-3.5,1.3-5.6,1.3c-1.7,0-3.2-0.3-4.4-1s-2.1-1.6-2.8-2.9c-0.7-1.2-1-2.5-1-3.9
		c0-2.2,0.8-4.1,2.4-5.6c1.6-1.5,3.6-2.3,5.9-2.3c1.6,0,3.4,0.4,5.4,1.3v2.4c-1.8-1-3.6-1.5-5.3-1.5c-1.8,0-3.2,0.6-4.4,1.7
		c-1.2,1.1-1.7,2.5-1.7,4.2s0.6,3.1,1.7,4.2s2.6,1.6,4.4,1.6C43.4,169.6,45.2,169.1,47,167.9z"/>
	<path d="M54.3,161.3c1.5,0,2.8,0.5,3.8,1.5s1.5,2.2,1.5,3.7s-0.5,2.7-1.6,3.6c-1,1-2.3,1.4-3.9,1.4c-1.5,0-2.8-0.5-3.8-1.5
		s-1.5-2.2-1.5-3.7s0.5-2.7,1.5-3.7S52.7,161.3,54.3,161.3z M54.2,163.1c-1,0-1.7,0.3-2.4,0.9s-0.9,1.4-0.9,2.4s0.3,1.8,0.9,2.4
		c0.6,0.6,1.4,0.9,2.4,0.9s1.8-0.3,2.4-0.9c0.6-0.6,0.9-1.4,0.9-2.4s-0.3-1.8-1-2.4C56,163.5,55.2,163.1,54.2,163.1z"/>
	<path d="M70.2,164.1v7.4h-2v-5.6c0-1.1-0.2-1.9-0.5-2.3c-0.3-0.4-0.8-0.7-1.6-0.7c-0.4,0-0.8,0.1-1.1,0.3c-0.3,0.2-0.7,0.5-1.2,1
		v7.4h-2v-10.1h2v1.3c1-1,2-1.5,3-1.5c1.3,0,2.3,0.6,3,1.8c1.1-1.2,2.2-1.8,3.4-1.8c1,0,1.8,0.4,2.4,1.1c0.6,0.7,1,1.8,1,3.3v6h-2
		v-6c0-0.8-0.2-1.5-0.5-1.9s-0.8-0.7-1.5-0.7C71.7,162.9,70.9,163.3,70.2,164.1z"/>
	<path d="M79.1,176.6v-15.3h3.5c1.8,0,3.2,0.4,4.2,1.3c1,0.9,1.5,2.1,1.5,3.8c0,1.5-0.5,2.8-1.4,3.7s-2.1,1.5-3.6,1.5
		c-0.6,0-1.4-0.1-2.1-0.4v5.4H79.1z M82.6,163.2h-1.4v6.2c0.6,0.3,1.3,0.5,1.9,0.5c0.9,0,1.7-0.3,2.3-1c0.6-0.7,0.9-1.5,0.9-2.5
		c0-0.7-0.1-1.2-0.4-1.8s-0.7-0.9-1.2-1.1C84.2,163.3,83.5,163.2,82.6,163.2z"/>
	<path d="M97,171.5v-1.3c-0.4,0.5-0.9,0.8-1.5,1.1c-0.5,0.3-1.1,0.4-1.6,0.4c-0.6,0-1.2-0.2-1.8-0.5s-0.9-0.8-1.2-1.3
		c-0.3-0.5-0.4-1.5-0.4-2.7v-5.8h2v5.8c0,1.1,0.2,1.8,0.5,2.2s0.8,0.6,1.6,0.6c1,0,1.8-0.5,2.4-1.4v-7.2h2v10.1L97,171.5L97,171.5z"
		/>
	<path d="M100.4,163l3.8-3.7v2.1h3.2v1.8h-3.2v5c0,1.2,0.5,1.7,1.4,1.7c0.7,0,1.5-0.2,2.3-0.7v1.9c-0.8,0.4-1.6,0.6-2.5,0.6
		s-1.7-0.3-2.3-0.8c-0.2-0.2-0.3-0.3-0.5-0.5c-0.1-0.2-0.2-0.5-0.3-0.8c-0.1-0.3-0.1-0.9-0.1-1.9v-4.5h-1.8V163z"/>
	<path d="M117.9,166.6h-7.1c0.1,1,0.4,1.7,1,2.3s1.4,0.9,2.3,0.9c1.3,0,2.5-0.4,3.7-1.2v2c-0.6,0.4-1.2,0.7-1.8,0.9
		c-0.6,0.2-1.3,0.3-2.1,0.3c-1.1,0-2-0.2-2.7-0.7s-1.2-1.1-1.7-1.9s-0.6-1.7-0.6-2.7c0-1.5,0.4-2.8,1.3-3.8s2-1.4,3.4-1.4
		c1.3,0,2.4,0.5,3.2,1.4c0.8,0.9,1.2,2.2,1.2,3.8v0.1H117.9z M110.9,165.4h5.1c-0.1-0.8-0.3-1.4-0.7-1.8c-0.4-0.4-1-0.6-1.7-0.6
		s-1.3,0.2-1.8,0.6S111,164.6,110.9,165.4z"/>
	<path d="M122.2,161.4v2.3l0.1-0.2c1-1.6,1.9-2.3,2.9-2.3c0.8,0,1.5,0.4,2.4,1.1l-1.1,1.8c-0.7-0.7-1.3-1-1.9-1s-1.2,0.3-1.7,0.9
		s-0.7,1.3-0.7,2.2v5.3h-2v-10.1H122.2z"/>
	<path d="M139.4,165l-1.7-1c-1-0.6-1.8-1.3-2.2-1.9c-0.4-0.6-0.7-1.3-0.7-2.1c0-1.2,0.4-2.2,1.3-2.9c0.8-0.8,1.9-1.1,3.3-1.1
		c1.3,0,2.5,0.4,3.5,1.1v2.5c-1.1-1.1-2.3-1.6-3.6-1.6c-0.7,0-1.3,0.2-1.8,0.5s-0.7,0.8-0.7,1.3s0.2,0.9,0.5,1.3
		c0.3,0.4,0.9,0.8,1.6,1.3l1.7,1c1.9,1.1,2.8,2.5,2.8,4.3c0,1.2-0.4,2.2-1.2,3s-1.9,1.2-3.2,1.2c-1.5,0-2.9-0.5-4.1-1.4v-2.8
		c1.2,1.5,2.6,2.3,4.1,2.3c0.7,0,1.3-0.2,1.7-0.6s0.7-0.9,0.7-1.4C141.4,166.8,140.7,165.9,139.4,165z"/>
	<path d="M144.2,163l3.8-3.7v2.1h3.2v1.8H148v5c0,1.2,0.5,1.7,1.4,1.7c0.7,0,1.5-0.2,2.3-0.7v1.9c-0.8,0.4-1.6,0.6-2.5,0.6
		s-1.7-0.3-2.3-0.8c-0.2-0.2-0.3-0.3-0.5-0.5c-0.1-0.2-0.2-0.5-0.3-0.8s-0.1-0.9-0.1-1.9v-4.5h-1.8L144.2,163L144.2,163z"/>
	<path d="M159.5,165.4v4.3c0,0.3,0.1,0.5,0.4,0.5c0.2,0,0.6-0.2,1.1-0.5v1.2c-0.5,0.3-0.8,0.5-1.1,0.6s-0.6,0.2-0.9,0.2
		c-0.9,0-1.4-0.3-1.5-1c-0.9,0.7-1.8,1-2.7,1c-0.7,0-1.3-0.2-1.8-0.7s-0.7-1.1-0.7-1.8c0-0.6,0.2-1.2,0.7-1.7s1.1-0.9,2-1.2l2.6-0.9
		v-0.5c0-1.2-0.6-1.8-1.8-1.8c-1.1,0-2.2,0.6-3.2,1.7v-2.2c0.8-0.9,1.9-1.4,3.4-1.4c1.1,0,2,0.3,2.6,0.9c0.2,0.2,0.4,0.4,0.6,0.7
		c0.2,0.3,0.3,0.6,0.3,0.9S159.5,164.5,159.5,165.4z M157.5,169.5v-3l-1.3,0.5c-0.7,0.3-1.2,0.5-1.4,0.8c-0.3,0.3-0.4,0.6-0.4,1
		s0.1,0.8,0.4,1c0.3,0.3,0.6,0.4,1,0.4C156.4,170.3,157,170,157.5,169.5z"/>
	<path d="M161.3,163l3.8-3.7v2.1h3.2v1.8h-3.2v5c0,1.2,0.5,1.7,1.4,1.7c0.7,0,1.5-0.2,2.3-0.7v1.9c-0.8,0.4-1.6,0.6-2.5,0.6
		s-1.7-0.3-2.3-0.8c-0.2-0.2-0.3-0.3-0.5-0.5c-0.1-0.2-0.2-0.5-0.3-0.8s-0.1-0.9-0.1-1.9v-4.5h-1.8L161.3,163L161.3,163z"/>
	<path d="M171.3,157.1c0.3,0,0.6,0.1,0.8,0.3s0.4,0.5,0.4,0.8s-0.1,0.6-0.4,0.8c-0.2,0.2-0.5,0.4-0.8,0.4s-0.6-0.1-0.8-0.4
		c-0.2-0.2-0.4-0.5-0.4-0.8s0.1-0.6,0.4-0.8S171,157.1,171.3,157.1z M170.3,161.4h2v10.1h-2V161.4z"/>
	<path d="M180,161.3c1.5,0,2.8,0.5,3.8,1.5s1.5,2.2,1.5,3.7s-0.5,2.7-1.6,3.6c-1,1-2.3,1.4-3.9,1.4c-1.5,0-2.8-0.5-3.8-1.5
		s-1.5-2.2-1.5-3.7s0.5-2.7,1.5-3.7S178.5,161.3,180,161.3z M179.9,163.1c-1,0-1.7,0.3-2.4,0.9s-0.9,1.4-0.9,2.4s0.3,1.8,0.9,2.4
		c0.6,0.6,1.4,0.9,2.4,0.9s1.8-0.3,2.4-0.9c0.6-0.6,0.9-1.4,0.9-2.4s-0.3-1.8-1-2.4C181.7,163.5,180.9,163.1,179.9,163.1z"/>
	<path d="M189.6,161.4v1.3c0.9-1,1.9-1.5,3-1.5c0.6,0,1.2,0.2,1.8,0.5c0.5,0.3,1,0.8,1.2,1.3c0.3,0.6,0.4,1.5,0.4,2.7v5.8h-2v-5.8
		c0-1-0.2-1.8-0.5-2.2s-0.8-0.7-1.6-0.7c-0.9,0-1.7,0.5-2.4,1.4v7.2h-2v-10.1h2.1V161.4z"/>
	<path d="M198.4,170.8v-2.2c0.6,0.4,1.1,0.7,1.7,1c0.6,0.2,1.1,0.4,1.5,0.4s0.8-0.1,1.1-0.3s0.5-0.5,0.5-0.7c0-0.3-0.1-0.5-0.3-0.7
		s-0.6-0.5-1.3-0.8c-1.3-0.7-2.1-1.3-2.5-1.8s-0.6-1.1-0.6-1.7c0-0.8,0.3-1.4,0.9-1.9s1.4-0.7,2.3-0.7c1,0,2,0.3,3,0.8v2
		c-1.2-0.7-2.2-1.1-2.9-1.1c-0.4,0-0.7,0.1-0.9,0.2c-0.2,0.2-0.4,0.4-0.4,0.7c0,0.2,0.1,0.5,0.3,0.7s0.6,0.5,1.1,0.8l0.7,0.4
		c1.7,1,2.5,2,2.5,3.2c0,0.8-0.3,1.5-1,2c-0.6,0.5-1.5,0.8-2.5,0.8c-0.6,0-1.1-0.1-1.6-0.2C199.7,171.3,199.1,171.1,198.4,170.8z"/>
</g>
<g>
	<path class="st10" d="M325.9,152.1c-2.7,0-5.1,1.4-6.5,3.5c-1.4-2.1-3.8-3.5-6.5-3.5c-4.3,0-7.9,3.5-7.9,7.9
		c0,7.8,14.4,15.7,14.4,15.7s14.4-7.8,14.4-15.7C333.7,155.6,330.2,152.1,325.9,152.1"/>
	<path class="st11" d="M323.2,163.9h-3.4l2.1-5.9H318l-2,7.9h3.1l-1.8,6.5L323.2,163.9z"/>
</g>
<g>
	<path d="M350.1,155.9h1.5l6.7,15.1h-2.2l-2-4.4h-6.4l-1.9,4.4h-2.2L350.1,155.9z M353.3,164.6l-2.4-5.4l-2.2,5.4H353.3z"/>
	<path d="M360,156h8.5v1.9h-6.4v4.6h6.1v1.9h-6.1v4.7h6.6v1.9H360V156z"/>
	<path d="M371,171v-15h5.1c2,0,3.7,0.3,4.8,0.9c1.2,0.6,2.1,1.5,2.8,2.7s1.1,2.5,1.1,3.9c0,1-0.2,2-0.6,2.9s-0.9,1.7-1.7,2.4
		c-0.7,0.7-1.6,1.3-2.5,1.6c-0.6,0.2-1.1,0.4-1.6,0.4c-0.5,0.1-1.4,0.1-2.7,0.1H371z M375.9,157.9h-2.7v11.2h2.8
		c1.1,0,1.9-0.1,2.5-0.2c0.6-0.1,1.1-0.3,1.5-0.6c0.4-0.2,0.8-0.5,1.1-0.8c1.1-1.1,1.6-2.4,1.6-4.1c0-1.6-0.5-2.9-1.6-3.9
		c-0.4-0.4-0.9-0.7-1.4-0.9c-0.5-0.2-1-0.4-1.5-0.5S376.9,157.9,375.9,157.9z"/>
	<path d="M397.6,155.8h1.2c-0.9,1.3-1.5,2.5-2,3.4c-0.4,0.9-0.7,2-0.9,3.2c-0.2,1.2-0.3,2.4-0.3,3.5c0,3.9,1.1,7.3,3.2,10h-1.2
		l-0.3-0.4c-0.8-1-1.4-1.8-1.8-2.4c-0.4-0.6-0.8-1.4-1.2-2.4c-0.6-1.6-0.9-3.2-0.9-4.9c0-1.7,0.3-3.3,0.9-4.9
		C395,159.5,396,157.7,397.6,155.8z"/>
	<path d="M407.1,156h2v15h-4.2c-1.5,0-2.6-0.5-3.5-1.4c-0.9-0.9-1.3-2.2-1.3-3.7c0-1.5,0.5-2.6,1.4-3.6c0.9-0.9,2.1-1.4,3.5-1.4
		c0.7,0,1.4,0.1,2.1,0.4V156z M407.1,169.3v-6.3c-0.6-0.3-1.2-0.5-1.8-0.5c-1,0-1.7,0.3-2.3,1c-0.6,0.6-0.9,1.5-0.9,2.6
		c0,1,0.3,1.8,0.8,2.4c0.3,0.3,0.6,0.6,1,0.7s0.9,0.2,1.8,0.2H407.1z"/>
	<path d="M420.1,166.2h-7c0,0.9,0.4,1.7,1,2.3c0.6,0.6,1.3,0.8,2.3,0.8c1.3,0,2.5-0.4,3.6-1.2v1.9c-0.6,0.4-1.2,0.7-1.8,0.9
		c-0.6,0.2-1.3,0.3-2.1,0.3c-1.1,0-2-0.2-2.6-0.7s-1.2-1.1-1.6-1.8c-0.4-0.8-0.6-1.6-0.6-2.6c0-1.5,0.4-2.7,1.3-3.7
		c0.9-0.9,2-1.4,3.3-1.4c1.3,0,2.4,0.5,3.1,1.4s1.2,2.1,1.2,3.7V166.2z M413.2,165.1h5c0-0.8-0.3-1.4-0.7-1.8s-1-0.6-1.7-0.6
		s-1.3,0.2-1.7,0.6C413.6,163.7,413.3,164.3,413.2,165.1z"/>
	<path d="M422.5,161.1v-0.6c0-1.6,0.3-2.8,1-3.6c0.7-0.8,1.5-1.2,2.4-1.2c0.4,0,0.9,0.1,1.5,0.2v1.9c-0.3-0.1-0.6-0.2-0.9-0.2
		c-0.8,0-1.3,0.2-1.6,0.6c-0.3,0.4-0.4,1.1-0.4,2.2v0.6h1.8v1.8h-1.8v8.1h-2v-8.1H421v-1.8H422.5z"/>
	<path d="M428.7,157c0.3,0,0.6,0.1,0.8,0.3s0.3,0.5,0.3,0.8c0,0.3-0.1,0.6-0.3,0.8s-0.5,0.3-0.8,0.3c-0.3,0-0.6-0.1-0.8-0.3
		c-0.2-0.2-0.3-0.5-0.3-0.8c0-0.3,0.1-0.6,0.3-0.8C428.2,157.1,428.4,157,428.7,157z M427.8,161.1h2v9.9h-2V161.1z"/>
	<path d="M432.5,156h2v5.8c0.8-0.6,1.7-0.9,2.7-0.9c1.3,0,2.3,0.5,3.1,1.4s1.2,2.2,1.2,3.6c0,1.6-0.5,2.9-1.4,3.8
		c-0.9,0.9-2.2,1.4-3.8,1.4c-0.6,0-1.3-0.1-2-0.2c-0.7-0.1-1.3-0.3-1.7-0.5V156z M434.4,163.7v5.3c0.7,0.2,1.3,0.3,2.1,0.3
		c0.9,0,1.6-0.3,2.1-0.9c0.5-0.6,0.8-1.4,0.8-2.4c0-1-0.3-1.8-0.8-2.4c-0.5-0.6-1.2-0.9-2-0.9C435.9,162.7,435.2,163.1,434.4,163.7z
		"/>
	<path d="M445.7,161.1v2.3l0.1-0.2c0.9-1.5,1.9-2.3,2.8-2.3c0.7,0,1.5,0.4,2.3,1.1l-1,1.7c-0.7-0.6-1.3-1-1.9-1
		c-0.6,0-1.2,0.3-1.6,0.9c-0.5,0.6-0.7,1.3-0.7,2.1v5.2h-2v-9.9H445.7z"/>
	<path d="M453.3,157c0.3,0,0.6,0.1,0.8,0.3s0.3,0.5,0.3,0.8c0,0.3-0.1,0.6-0.3,0.8s-0.5,0.3-0.8,0.3c-0.3,0-0.6-0.1-0.8-0.3
		c-0.2-0.2-0.3-0.5-0.3-0.8c0-0.3,0.1-0.6,0.3-0.8C452.7,157.1,453,157,453.3,157z M452.3,161.1h2v9.9h-2V161.1z"/>
	<path d="M457.1,156h2v15h-2V156z"/>
	<path d="M462,156h2v15h-2V156z"/>
	<path d="M473,165.1v4.2c0,0.3,0.1,0.5,0.3,0.5c0.2,0,0.6-0.2,1.1-0.5v1.2c-0.4,0.3-0.8,0.5-1.1,0.6c-0.3,0.1-0.5,0.2-0.8,0.2
		c-0.8,0-1.3-0.3-1.5-1c-0.8,0.6-1.7,1-2.7,1c-0.7,0-1.3-0.2-1.7-0.7c-0.5-0.5-0.7-1-0.7-1.7c0-0.6,0.2-1.2,0.7-1.7
		c0.4-0.5,1.1-0.9,1.9-1.2l2.5-0.9v-0.5c0-1.2-0.6-1.8-1.8-1.8c-1.1,0-2.1,0.6-3.1,1.7v-2.1c0.8-0.9,1.9-1.3,3.3-1.3
		c1.1,0,1.9,0.3,2.6,0.8c0.2,0.2,0.4,0.4,0.6,0.7c0.2,0.3,0.3,0.6,0.3,0.9C472.9,163.7,473,164.2,473,165.1z M471,169v-2.9l-1.3,0.5
		c-0.7,0.3-1.1,0.5-1.4,0.8c-0.3,0.3-0.4,0.6-0.4,1c0,0.4,0.1,0.7,0.4,1c0.3,0.3,0.6,0.4,1,0.4C469.9,169.8,470.5,169.6,471,169z"/>
	<path d="M474.7,162.7l3.7-3.6v2h3.1v1.8h-3.1v4.8c0,1.1,0.5,1.7,1.4,1.7c0.7,0,1.4-0.2,2.2-0.7v1.8c-0.8,0.4-1.6,0.6-2.5,0.6
		c-0.9,0-1.6-0.3-2.2-0.8c-0.2-0.2-0.3-0.3-0.5-0.5c-0.1-0.2-0.2-0.5-0.3-0.8c-0.1-0.3-0.1-0.9-0.1-1.8v-4.4h-1.7V162.7z"/>
	<path d="M488.2,161.1c1.5,0,2.8,0.5,3.7,1.5c1,1,1.5,2.2,1.5,3.7c0,1.4-0.5,2.6-1.5,3.6c-1,0.9-2.3,1.4-3.8,1.4
		c-1.5,0-2.7-0.5-3.7-1.4c-1-1-1.5-2.2-1.5-3.6c0-1.4,0.5-2.7,1.5-3.6C485.4,161.6,486.7,161.1,488.2,161.1z M488.1,162.9
		c-0.9,0-1.7,0.3-2.3,0.9s-0.9,1.4-0.9,2.4c0,0.9,0.3,1.7,0.9,2.3c0.6,0.6,1.4,0.9,2.4,0.9c1,0,1.7-0.3,2.4-0.9
		c0.6-0.6,0.9-1.4,0.9-2.3c0-0.9-0.3-1.7-1-2.3S489,162.9,488.1,162.9z"/>
	<path d="M497.7,161.1v2.3l0.1-0.2c0.9-1.5,1.9-2.3,2.8-2.3c0.7,0,1.5,0.4,2.3,1.1l-1,1.7c-0.7-0.6-1.3-1-1.9-1
		c-0.6,0-1.2,0.3-1.6,0.9c-0.5,0.6-0.7,1.3-0.7,2.1v5.2h-2v-9.9H497.7z"/>
	<path d="M504.4,176h-1.2c0.9-1.4,1.6-2.6,2-3.6c0.4-1,0.7-2.1,0.9-3.2c0.2-1.2,0.3-2.3,0.3-3.4c0-1.2-0.1-2.5-0.3-3.6
		c-0.2-1.2-0.6-2.3-1-3.3c-0.4-1-1.1-2.1-1.8-3.1h1.2l0.3,0.4c0.8,1,1.4,1.7,1.8,2.4c0.4,0.6,0.8,1.4,1.2,2.4
		c0.6,1.6,0.9,3.2,0.9,4.9c0,1.6-0.3,3.2-0.8,4.7c-0.3,0.7-0.6,1.5-1.1,2.2C506.3,173.6,505.5,174.6,504.4,176z"/>
	<path d="M345.4,182.4h2.1v13.1h6.8v2h-8.9V182.4z"/>
	<path d="M360.6,187.5c1.5,0,2.8,0.5,3.7,1.5c1,1,1.5,2.2,1.5,3.7c0,1.4-0.5,2.6-1.5,3.6c-1,0.9-2.3,1.4-3.8,1.4
		c-1.5,0-2.7-0.5-3.7-1.4c-1-1-1.5-2.2-1.5-3.6c0-1.4,0.5-2.7,1.5-3.6C357.8,188,359.1,187.5,360.6,187.5z M360.5,189.3
		c-0.9,0-1.7,0.3-2.3,0.9s-0.9,1.4-0.9,2.4c0,0.9,0.3,1.7,0.9,2.3c0.6,0.6,1.4,0.9,2.4,0.9c1,0,1.7-0.3,2.4-0.9
		c0.6-0.6,0.9-1.4,0.9-2.3c0-0.9-0.3-1.7-1-2.3S361.5,189.3,360.5,189.3z"/>
	<path d="M375.4,195.1v1.9c-1,0.4-1.9,0.5-2.9,0.5c-1.5,0-2.8-0.5-3.7-1.4c-0.9-0.9-1.4-2.1-1.4-3.7c0-1.6,0.4-2.8,1.3-3.8
		s2.1-1.4,3.5-1.4c0.5,0,1,0,1.4,0.1c0.4,0.1,0.9,0.3,1.5,0.5v2.1c-1-0.6-1.9-0.9-2.8-0.9c-0.9,0-1.6,0.3-2.2,0.9
		c-0.6,0.6-0.8,1.4-0.8,2.4c0,1,0.3,1.8,0.9,2.4c0.6,0.6,1.4,0.9,2.5,0.9C373.6,195.7,374.4,195.5,375.4,195.1z"/>
	<path d="M383.9,191.5v4.2c0,0.3,0.1,0.5,0.3,0.5c0.2,0,0.6-0.2,1.1-0.5v1.2c-0.4,0.3-0.8,0.5-1.1,0.6c-0.3,0.1-0.5,0.2-0.8,0.2
		c-0.8,0-1.3-0.3-1.5-1c-0.8,0.6-1.7,1-2.7,1c-0.7,0-1.3-0.2-1.7-0.7c-0.5-0.5-0.7-1-0.7-1.7c0-0.6,0.2-1.2,0.7-1.7
		c0.4-0.5,1.1-0.9,1.9-1.2l2.5-0.9v-0.5c0-1.2-0.6-1.8-1.8-1.8c-1.1,0-2.1,0.6-3.1,1.7v-2.1c0.8-0.9,1.9-1.3,3.3-1.3
		c1.1,0,1.9,0.3,2.6,0.8c0.2,0.2,0.4,0.4,0.6,0.7c0.2,0.3,0.3,0.6,0.3,0.9C383.8,190.1,383.9,190.6,383.9,191.5z M381.9,195.4v-2.9
		l-1.3,0.5c-0.7,0.3-1.1,0.5-1.4,0.8c-0.3,0.3-0.4,0.6-0.4,1c0,0.4,0.1,0.7,0.4,1c0.3,0.3,0.6,0.4,1,0.4
		C380.8,196.2,381.4,196,381.9,195.4z"/>
	<path d="M385.6,189.1l3.7-3.6v2h3.1v1.8h-3.1v4.8c0,1.1,0.5,1.7,1.4,1.7c0.7,0,1.4-0.2,2.2-0.7v1.8c-0.8,0.4-1.6,0.6-2.5,0.6
		c-0.9,0-1.6-0.3-2.2-0.8c-0.2-0.2-0.3-0.3-0.5-0.5c-0.1-0.2-0.2-0.5-0.3-0.8c-0.1-0.3-0.1-0.9-0.1-1.8v-4.4h-1.7V189.1z"/>
	<path d="M402.8,192.6h-7c0,0.9,0.4,1.7,1,2.3c0.6,0.6,1.3,0.8,2.3,0.8c1.3,0,2.5-0.4,3.6-1.2v1.9c-0.6,0.4-1.2,0.7-1.8,0.9
		c-0.6,0.2-1.3,0.3-2.1,0.3c-1.1,0-2-0.2-2.6-0.7s-1.2-1.1-1.6-1.8c-0.4-0.8-0.6-1.6-0.6-2.6c0-1.5,0.4-2.7,1.3-3.7
		c0.9-0.9,2-1.4,3.3-1.4c1.3,0,2.4,0.5,3.1,1.4s1.2,2.1,1.2,3.7V192.6z M395.9,191.5h5c0-0.8-0.3-1.4-0.7-1.8s-1-0.6-1.7-0.6
		s-1.3,0.2-1.7,0.6C396.3,190.1,396,190.7,395.9,191.5z"/>
	<path d="M411.5,182.4h2v15h-4.2c-1.5,0-2.6-0.5-3.5-1.4c-0.9-0.9-1.3-2.2-1.3-3.7c0-1.5,0.5-2.6,1.4-3.6c0.9-0.9,2.1-1.4,3.5-1.4
		c0.7,0,1.4,0.1,2.1,0.4V182.4z M411.5,195.7v-6.3c-0.6-0.3-1.2-0.5-1.8-0.5c-1,0-1.7,0.3-2.3,1c-0.6,0.6-0.9,1.5-0.9,2.6
		c0,1,0.3,1.8,0.8,2.4c0.3,0.3,0.6,0.6,1,0.7s0.9,0.2,1.8,0.2H411.5z"/>
	<path d="M427,187.5c1.5,0,2.8,0.5,3.7,1.5c1,1,1.5,2.2,1.5,3.7c0,1.4-0.5,2.6-1.5,3.6c-1,0.9-2.3,1.4-3.8,1.4
		c-1.5,0-2.7-0.5-3.7-1.4c-1-1-1.5-2.2-1.5-3.6c0-1.4,0.5-2.7,1.5-3.6C424.2,188,425.4,187.5,427,187.5z M426.8,189.3
		c-0.9,0-1.7,0.3-2.3,0.9s-0.9,1.4-0.9,2.4c0,0.9,0.3,1.7,0.9,2.3c0.6,0.6,1.4,0.9,2.4,0.9c1,0,1.7-0.3,2.4-0.9
		c0.6-0.6,0.9-1.4,0.9-2.3c0-0.9-0.3-1.7-1-2.3S427.8,189.3,426.8,189.3z"/>
	<path d="M436.3,187.5v1.3c0.9-1,1.9-1.5,3-1.5c0.6,0,1.2,0.2,1.7,0.5c0.5,0.3,0.9,0.8,1.2,1.3c0.3,0.6,0.4,1.4,0.4,2.6v5.7h-2v-5.6
		c0-1-0.2-1.7-0.5-2.2c-0.3-0.4-0.8-0.7-1.5-0.7c-0.9,0-1.7,0.5-2.4,1.4v7.1h-2v-9.9H436.3z"/>
	<path d="M454.5,182.4h2.1v15h-2.1V182.4z"/>
	<path d="M462,196.7v-2.1c0.6,0.4,1.1,0.7,1.7,0.9c0.6,0.2,1.1,0.4,1.5,0.4c0.4,0,0.8-0.1,1.1-0.3s0.4-0.4,0.4-0.7
		c0-0.3-0.1-0.5-0.3-0.7c-0.2-0.2-0.6-0.5-1.2-0.8c-1.3-0.7-2.1-1.3-2.5-1.8c-0.4-0.5-0.6-1-0.6-1.6c0-0.8,0.3-1.4,0.9-1.9
		c0.6-0.5,1.4-0.7,2.3-0.7c1,0,2,0.3,3,0.8v1.9c-1.2-0.7-2.1-1.1-2.8-1.1c-0.4,0-0.7,0.1-0.9,0.2c-0.2,0.2-0.3,0.4-0.3,0.6
		c0,0.2,0.1,0.4,0.3,0.7s0.6,0.5,1.1,0.8l0.7,0.4c1.6,0.9,2.5,2,2.5,3.1c0,0.8-0.3,1.5-1,2c-0.6,0.5-1.4,0.8-2.4,0.8
		c-0.6,0-1.1-0.1-1.6-0.2C463.3,197.3,462.7,197,462,196.7z"/>
	<path d="M469.6,189.1l3.7-3.6v2h3.1v1.8h-3.1v4.8c0,1.1,0.5,1.7,1.4,1.7c0.7,0,1.4-0.2,2.2-0.7v1.8c-0.8,0.4-1.6,0.6-2.5,0.6
		c-0.9,0-1.6-0.3-2.2-0.8c-0.2-0.2-0.3-0.3-0.5-0.5c-0.1-0.2-0.2-0.5-0.3-0.8c-0.1-0.3-0.1-0.9-0.1-1.8v-4.4h-1.7V189.1z"/>
	<path d="M484.7,182.4h8v1.9h-5.9v4.2h5.9v1.9h-5.9v7h-2.1V182.4z"/>
	<path d="M494.7,182.4h2v15h-2V182.4z"/>
	<path d="M504.3,187.5c1.5,0,2.8,0.5,3.7,1.5c1,1,1.5,2.2,1.5,3.7c0,1.4-0.5,2.6-1.5,3.6c-1,0.9-2.3,1.4-3.8,1.4
		c-1.5,0-2.7-0.5-3.7-1.4c-1-1-1.5-2.2-1.5-3.6c0-1.4,0.5-2.7,1.5-3.6C501.5,188,502.7,187.5,504.3,187.5z M504.1,189.3
		c-0.9,0-1.7,0.3-2.3,0.9s-0.9,1.4-0.9,2.4c0,0.9,0.3,1.7,0.9,2.3c0.6,0.6,1.4,0.9,2.4,0.9c1,0,1.7-0.3,2.4-0.9
		c0.6-0.6,0.9-1.4,0.9-2.3c0-0.9-0.3-1.7-1-2.3S505.1,189.3,504.1,189.3z"/>
	<path d="M516.4,187.5c1.5,0,2.8,0.5,3.7,1.5c1,1,1.5,2.2,1.5,3.7c0,1.4-0.5,2.6-1.5,3.6c-1,0.9-2.3,1.4-3.8,1.4
		c-1.5,0-2.7-0.5-3.7-1.4c-1-1-1.5-2.2-1.5-3.6c0-1.4,0.5-2.7,1.5-3.6C513.6,188,514.9,187.5,516.4,187.5z M516.3,189.3
		c-0.9,0-1.7,0.3-2.3,0.9s-0.9,1.4-0.9,2.4c0,0.9,0.3,1.7,0.9,2.3c0.6,0.6,1.4,0.9,2.4,0.9c1,0,1.7-0.3,2.4-0.9
		c0.6-0.6,0.9-1.4,0.9-2.3c0-0.9-0.3-1.7-1-2.3S517.3,189.3,516.3,189.3z"/>
	<path d="M525.9,187.5v2.3l0.1-0.2c0.9-1.5,1.9-2.3,2.8-2.3c0.7,0,1.5,0.4,2.3,1.1l-1,1.7c-0.7-0.6-1.3-1-1.9-1
		c-0.6,0-1.2,0.3-1.6,0.9c-0.5,0.6-0.7,1.3-0.7,2.1v5.2h-2v-9.9H525.9z"/>
</g>
</svg>
