<?xml version="1.0" encoding="utf-8"?>
<!-- Generator: Adobe Illustrator 22.1.0, SVG Export Plug-In . SVG Version: 6.00 Build 0)  -->
<svg version="1.1" id="Layer_1" xmlns="http://www.w3.org/2000/svg" xmlns:xlink="http://www.w3.org/1999/xlink" x="0px" y="0px"
	 width="506px" height="177.2px" viewBox="0 0 506 177.2" style="enable-background:new 0 0 506 177.2;" xml:space="preserve">
<style type="text/css">
	.st0{font-family:'GillSansMT';}
	.st1{font-size:21.14px;}
	.st2{letter-spacing:-2;}
	.st3{font-size:22.69px;}
	.st4{fill:#1B3665;}
	.st5{fill:#939393;}
	.st6{fill:#F89B43;}
	.st7{fill:#6D8B3E;}
	.st8{fill:none;}
	.st9{enable-background:new    ;}
	.st10{fill:#43505F;}
	.st11{fill:none;stroke:#43505F;stroke-miterlimit:10;}
	.st12{fill:#640E0E;}
	.st13{fill:#8E68AD;}
</style>
<title>key</title>
<text transform="matrix(1 0 0 1 31.52 49.2019)" class="st0 st1">Re</text>
<text transform="matrix(1 0 0 1 54.42 49.2019)" class="st0 st1">s</text>
<text transform="matrix(1 0 0 1 62.62 49.2019)" class="st0 st1">t</text>
<text transform="matrix(1 0 0 1 69.66 49.2019)" class="st0 st1">r</text>
<text transform="matrix(1 0 0 1 77.5 49.2019)" class="st0 st1">o</text>
<text transform="matrix(1 0 0 1 89.17 49.2019)" class="st0 st1">o</text>
<text transform="matrix(1 0 0 1 100.88 49.2019)" class="st0 st1">ms</text>
<text transform="matrix(1 0 0 1 125.31 49.2019)" class="st0 st1 st2">,</text>
<text transform="matrix(1 0 0 1 127.84 49.2019)" class="st0 st1"> </text>
<text transform="matrix(1 0 0 1 133.71 49.2019)" class="st0 st1">E</text>
<text transform="matrix(1 0 0 1 144.3 49.2019)" class="st0 st1">l</text>
<text transform="matrix(1 0 0 1 148.94 49.2019)" class="st0 st1">e</text>
<text transform="matrix(1 0 0 1 158.73 49.2019)" class="st0 st1">vators </text>
<text transform="matrix(1 0 0 1 218.1 49.2019)" class="st0 st1">&amp;</text>
<text transform="matrix(1 0 0 1 231.36 49.2019)" class="st0 st1"> S</text>
<text transform="matrix(1 0 0 1 246.92 49.2019)" class="st0 st1">t</text>
<text transform="matrix(1 0 0 1 254 49.2019)" class="st0 st1">ai</text>
<text transform="matrix(1 0 0 1 267.66 49.2019)" class="st0 st1">r</text>
<text transform="matrix(1 0 0 1 275.99 49.2019)" class="st0 st1">s</text>
<text transform="matrix(1 0 0 1 31.52 107.912)" class="st0 st1">Graduat</text>
<text transform="matrix(1 0 0 1 101.98 107.912)" class="st0 st1">e</text>
<text transform="matrix(1 0 0 1 112.15 107.912)" class="st0 st1"> Room</text>
<text transform="matrix(1 0 0 1 31.52 19.0819)" class="st0 st3">Shelves</text>
<text transform="matrix(1 0 0 1 31.52 79.6019)" class="st0 st1">St</text>
<text transform="matrix(1 0 0 1 48.25 79.6019)" class="st0 st1">u</text>
<text transform="matrix(1 0 0 1 58.9 79.6019)" class="st0 st1">dy</text>
<text transform="matrix(1 0 0 1 78.94 79.6019)" class="st0 st1 st2"> </text>
<text transform="matrix(1 0 0 1 82.79 79.6019)" class="st0 st1">A</text>
<text transform="matrix(1 0 0 1 96.89 79.6019)" class="st0 st1">r</text>
<text transform="matrix(1 0 0 1 104.75 79.6019)" class="st0 st1">e</text>
<text transform="matrix(1 0 0 1 114.88 79.6019)" class="st0 st1">a</text>
<text transform="matrix(1 0 0 1 123.97 79.6019)" class="st0 st1">s</text>
<rect y="4.9" class="st4" width="14.4" height="14.4"/>
<rect y="33.4" class="st5" width="14.4" height="14.4"/>
<rect y="63.5" class="st6" width="14.4" height="14.4"/>
<rect y="93.7" class="st7" width="14.4" height="14.4"/>
<text transform="matrix(1 0 0 1 343.072 21.912)" class="st0 st1">Re</text>
<text transform="matrix(1 0 0 1 365.972 21.912)" class="st0 st1">s</text>
<text transform="matrix(1 0 0 1 374.172 21.912)" class="st0 st1">t</text>
<text transform="matrix(1 0 0 1 381.212 21.912)" class="st0 st1">r</text>
<text transform="matrix(1 0 0 1 389.072 21.912)" class="st0 st1">o</text>
<text transform="matrix(1 0 0 1 400.742 21.912)" class="st0 st1">o</text>
<text transform="matrix(1 0 0 1 412.452 21.912)" class="st0 st1">ms</text>
<text transform="matrix(1 0 0 1 343.072 53.672)" class="st0 st1">El</text>
<text transform="matrix(1 0 0 1 358.282 53.672)" class="st0 st1">e</text>
<text transform="matrix(1 0 0 1 368.152 53.672)" class="st0 st1">vators</text>
<text transform="matrix(1 0 0 1 343.072 84.7119)" class="st0 st1">Stairs</text>
<rect x="343.1" y="99" class="st8" width="162.9" height="49"/>
<text transform="matrix(1 0 0 1 343.072 116.7363)" class="st9"><tspan x="0" y="0" class="st0 st1">Visitor Computer </tspan><tspan x="0" y="25.4" class="st0 st1">– ND Catalog</tspan></text>
<path class="st10" d="M319.2,6.6h1.1v14.9h-1.1V6.7C319.2,6.6,319.2,6.6,319.2,6.6z"/>
<path class="st10" d="M325.5,6.6c0.7,0,1.2,0.4,1.3,1.1c0,0,0,0,0,0c0,0.7-0.6,1.2-1.3,1.1c-0.6,0-1.1-0.5-1.1-1.1
	C324.3,7.2,324.8,6.6,325.5,6.6C325.5,6.6,325.5,6.6,325.5,6.6z"/>
<path class="st10" d="M313.6,6.7c0.6-0.2,1.3,0.2,1.5,0.9c0.1,0.3,0.1,0.5-0.1,0.8c-0.3,0.6-1.1,0.8-1.7,0.5
	c-0.5-0.3-0.8-0.9-0.6-1.4C312.9,7,313.2,6.7,313.6,6.7z"/>
<path class="st10" d="M327.8,10.9h-0.5c-0.2,2.7,0.1,6,0,9c0,0.8,0,1.4-0.7,1.5c-1,0-0.7-1.8-0.7-2.8v-3.5h-0.5
	c-0.1,1.1,0,2.3,0,3.5c0,1,0.3,2.9-0.7,2.8c-0.8,0-0.6-1.2-0.6-2.2v-8.3h-0.6c-0.1,0.7,0,1.6,0,2.3s0.2,1.9-0.6,1.8
	c-0.5-0.1-0.3-1.3-0.3-2.2c0-2.1-0.2-3.4,1.4-3.6c1.1-0.1,2.3-0.1,3.4,0c0.7,0.1,1.3,0.6,1.5,1.3c0.1,0.6,0,1.6,0,2.4
	s0.1,1.9-0.3,2.1c-0.8,0.2-0.6-0.9-0.6-1.7L327.8,10.9z"/>
<path class="st10" d="M315.7,11h-0.5c0.4,1.8,1,3.7,1.5,5.5h-1.5c-0.1,0.8,0,1.6,0,2.5c0,0.7,0.2,2.1-0.2,2.3
	c-0.2,0.1-0.5,0.1-0.7,0c-0.4-0.3-0.2-1.6-0.2-2.3v-2.5c-0.1-0.1-0.4,0-0.6,0V19c0,0.7,0.2,2.1-0.2,2.3c-0.2,0.1-0.5,0.1-0.7,0
	c-0.4-0.2-0.2-1.6-0.2-2.3v-2.5H311c0.5-1.8,1-3.7,1.5-5.5c-0.1-0.1-0.3,0-0.5,0c-0.2,0.7-0.4,1.2-0.6,1.9c-0.1,0.4-0.3,1.6-0.8,1.7
	c-1.1,0.1-0.1-2,0-2.4c0.4-1.2,0.5-2.6,1.8-2.8c0.5,0,1,0,1.5,0c1.3,0,2.2,0,2.7,0.9c0.2,0.6,0.4,1.2,0.6,1.9c0.1,0.3,0.2,0.6,0.3,1
	s0.5,1.4-0.3,1.4c-0.5,0-0.7-1.2-0.8-1.6C316,12.2,315.9,11.6,315.7,11z"/>
<path class="st10" d="M312.6,51.4V41.3l3.1,3.1c0.3,0.4,0.8,0.4,1.2,0.1s0.4-0.8,0.1-1.2c0,0-0.1-0.1-0.1-0.1l-4.4-4.3l-0.9-0.9
	l-0.9,0.9l-4.3,4.3c-0.3,0.4-0.2,0.9,0.1,1.2c0.3,0.3,0.8,0.3,1.1,0l3.1-3.1v10.1c0,0.5,0.4,0.9,0.9,0.9
	C312.2,52.3,312.6,51.9,312.6,51.4L312.6,51.4z"/>
<path class="st10" d="M324.4,38.9V49l-3.1-3.1c-0.4-0.3-0.9-0.2-1.2,0.1c-0.3,0.3-0.3,0.8,0,1.1l4.4,4.3l0.9,0.8l0.9-0.8l4.4-4.3
	c0.3-0.3,0.3-0.9,0-1.2c-0.3-0.3-0.9-0.3-1.2,0c0,0,0,0,0,0l-3.1,3.1V38.9c0.1-0.5-0.3-0.9-0.8-0.9c-0.5-0.1-0.9,0.3-0.9,0.8
	C324.4,38.8,324.4,38.8,324.4,38.9L324.4,38.9z"/>
<rect x="303.3" y="70.7" class="st11" width="31.6" height="14.8"/>
<line class="st11" x1="316.3" y1="70.7" x2="316.3" y2="85.4"/>
<line class="st11" x1="320.1" y1="71.3" x2="320.1" y2="85.4"/>
<line class="st11" x1="323.8" y1="71.3" x2="323.8" y2="84.8"/>
<line class="st11" x1="327.6" y1="71.3" x2="327.6" y2="85.4"/>
<line class="st11" x1="331.4" y1="70.7" x2="331.4" y2="84.8"/>
<text transform="matrix(1 0 0 1 32.43 138.4819)" class="st0 st3">O</text>
<text transform="matrix(1 0 0 1 51.11 138.4819)" class="st0 st3">f</text>
<text transform="matrix(1 0 0 1 56.8 138.4819)" class="st0 st3">f</text>
<text transform="matrix(1 0 0 1 62.47 138.4819)" class="st0 st3">i</text>
<text transform="matrix(1 0 0 1 67.47 138.4819)" class="st0 st3">ces/Classrooms</text>
<rect x="0.9" y="124.2" class="st12" width="14.4" height="14.4"/>
<text transform="matrix(1 0 0 1 32.43 170.8419)" class="st0 st3">Computer Cluster</text>
<rect x="0.9" y="156.5" class="st13" width="14.4" height="14.4"/>
<path class="st10" d="M328.1,100.7H310c-1,0-1.8,0.8-1.8,1.8v12c0,1,0.8,1.8,1.8,1.8h7.2l-0.6,1.8H314c-0.5,0-0.9,0.4-0.9,0.9
	c0,0.5,0.4,0.9,0.9,0.9h10.2c0.5,0,0.9-0.4,0.9-0.9c0-0.5-0.4-0.9-0.9-0.9h-2.7l-0.6-1.8h7.2c1,0,1.8-0.8,1.8-1.8v-12
	C329.9,101.5,329.1,100.7,328.1,100.7z M327.5,113.9h-16.9v-10.8h16.9V113.9z"/>
</svg>
