<?xml version="1.0" encoding="utf-8"?>
<!-- Generator: Adobe Illustrator 23.0.1, SVG Export Plug-In . SVG Version: 6.00 Build 0)  -->
<svg version="1.1" id="Layer_1" xmlns="http://www.w3.org/2000/svg" xmlns:xlink="http://www.w3.org/1999/xlink" x="0px" y="0px"
	 width="506px" height="177.2px" viewBox="0 0 506 177.2" style="enable-background:new 0 0 506 177.2;" xml:space="preserve">
<style type="text/css">
	.st0{enable-background:new    ;}
	.st1{fill:#1B3665;}
	.st2{fill:#939393;}
	.st3{fill:#F89B43;}
	.st4{fill:#6D8B3E;}
	.st5{fill:none;}
	.st6{fill:#43505F;}
	.st7{fill:none;stroke:#43505F;stroke-miterlimit:10;}
	.st8{fill:#640E0E;}
	.st9{fill:#8E68AD;}
</style>
<title>key</title>
<g class="st0">
	<path d="M33.2,49.2V34.8h3.6c1.5,0,2.6,0.4,3.5,1.1c0.9,0.7,1.3,1.7,1.3,2.9c0,0.8-0.2,1.6-0.6,2.2c-0.4,0.6-1,1.1-1.8,1.4
		c0.5,0.3,0.9,0.7,1.4,1.2s1.1,1.4,1.9,2.7c0.5,0.8,0.9,1.4,1.2,1.8l0.8,1h-2.5l-0.6-1c0,0-0.1-0.1-0.1-0.2l-0.4-0.6L40,46.5
		l-0.7-1.1c-0.4-0.6-0.8-1.1-1.2-1.4c-0.4-0.4-0.7-0.6-1-0.8c-0.3-0.2-0.8-0.2-1.4-0.2h-0.5v6.3H33.2z M35.9,36.5h-0.6v4.6H36
		c1,0,1.8-0.1,2.2-0.3c0.4-0.2,0.7-0.4,0.9-0.8s0.3-0.8,0.3-1.2c0-0.5-0.1-0.9-0.4-1.2s-0.6-0.6-1-0.8S36.9,36.5,35.9,36.5z"/>
	<path d="M53.7,44.6H47c0,0.9,0.4,1.6,0.9,2.2c0.6,0.5,1.3,0.8,2.2,0.8c1.2,0,2.4-0.4,3.4-1.2v1.8c-0.6,0.4-1.2,0.7-1.7,0.8
		c-0.6,0.2-1.2,0.2-2,0.2c-1,0-1.9-0.2-2.5-0.7c-0.6-0.4-1.2-1-1.6-1.8c-0.4-0.7-0.6-1.6-0.6-2.5c0-1.4,0.4-2.6,1.2-3.5
		c0.8-0.9,1.9-1.4,3.2-1.4c1.3,0,2.3,0.4,3,1.3c0.8,0.9,1.1,2.1,1.1,3.5V44.6z M47.1,43.5h4.8c0-0.8-0.3-1.3-0.7-1.7
		c-0.4-0.4-0.9-0.6-1.6-0.6c-0.7,0-1.2,0.2-1.7,0.6C47.5,42.2,47.2,42.7,47.1,43.5z"/>
</g>
<g class="st0">
	<path d="M55.3,48.5v-2c0.5,0.4,1.1,0.7,1.6,0.9c0.6,0.2,1,0.3,1.4,0.3c0.4,0,0.7-0.1,1-0.3c0.3-0.2,0.4-0.4,0.4-0.7
		c0-0.3-0.1-0.5-0.3-0.7c-0.2-0.2-0.6-0.4-1.2-0.8c-1.2-0.7-2-1.3-2.4-1.7c-0.4-0.5-0.6-1-0.6-1.6c0-0.7,0.3-1.3,0.9-1.8
		c0.6-0.5,1.3-0.7,2.2-0.7c0.9,0,1.9,0.3,2.9,0.8v1.9c-1.1-0.7-2-1-2.7-1c-0.4,0-0.7,0.1-0.9,0.2c-0.2,0.2-0.3,0.4-0.3,0.6
		c0,0.2,0.1,0.4,0.3,0.6c0.2,0.2,0.6,0.4,1.1,0.7l0.7,0.4c1.6,0.9,2.4,1.9,2.4,3c0,0.8-0.3,1.4-0.9,1.9s-1.4,0.7-2.3,0.7
		c-0.6,0-1.1-0.1-1.5-0.2S56,48.8,55.3,48.5z"/>
</g>
<g class="st0">
	<path d="M62.6,41.2l3.5-3.5v2h3v1.7h-3V46c0,1.1,0.5,1.6,1.4,1.6c0.7,0,1.4-0.2,2.1-0.7v1.8c-0.7,0.4-1.5,0.6-2.4,0.6
		c-0.9,0-1.6-0.3-2.1-0.8c-0.2-0.2-0.3-0.3-0.4-0.5c-0.1-0.2-0.2-0.4-0.3-0.7c-0.1-0.3-0.1-0.9-0.1-1.7v-4.2h-1.7V41.2z"/>
</g>
<g class="st0">
	<path d="M73,39.7v2.2l0.1-0.2c0.9-1.5,1.8-2.2,2.7-2.2c0.7,0,1.4,0.4,2.2,1.1l-1,1.7c-0.7-0.6-1.3-0.9-1.8-0.9
		c-0.6,0-1.1,0.3-1.6,0.9S73,43.4,73,44.2v5h-1.9v-9.5H73z"/>
</g>
<g class="st0">
	<path d="M83.4,39.7c1.4,0,2.6,0.5,3.6,1.4c1,0.9,1.4,2.1,1.4,3.5c0,1.4-0.5,2.5-1.5,3.4c-1,0.9-2.2,1.4-3.7,1.4
		c-1.4,0-2.6-0.5-3.6-1.4s-1.4-2.1-1.4-3.4c0-1.4,0.5-2.5,1.5-3.5S81.9,39.7,83.4,39.7z M83.3,41.4c-0.9,0-1.6,0.3-2.2,0.9
		s-0.9,1.3-0.9,2.3c0,0.9,0.3,1.6,0.9,2.2c0.6,0.6,1.4,0.9,2.3,0.9c0.9,0,1.7-0.3,2.3-0.9c0.6-0.6,0.9-1.3,0.9-2.2
		c0-0.9-0.3-1.6-0.9-2.2C85,41.7,84.2,41.4,83.3,41.4z"/>
</g>
<g class="st0">
	<path d="M95,39.7c1.4,0,2.6,0.5,3.6,1.4c1,0.9,1.4,2.1,1.4,3.5c0,1.4-0.5,2.5-1.5,3.4c-1,0.9-2.2,1.4-3.7,1.4
		c-1.4,0-2.6-0.5-3.6-1.4S90,45.9,90,44.5c0-1.4,0.5-2.5,1.5-3.5S93.6,39.7,95,39.7z M94.9,41.4c-0.9,0-1.6,0.3-2.2,0.9
		s-0.9,1.3-0.9,2.3c0,0.9,0.3,1.6,0.9,2.2c0.6,0.6,1.4,0.9,2.3,0.9c0.9,0,1.7-0.3,2.3-0.9c0.6-0.6,0.9-1.3,0.9-2.2
		c0-0.9-0.3-1.6-0.9-2.2C96.6,41.7,95.9,41.4,94.9,41.4z"/>
</g>
<g class="st0">
	<path d="M110,42.3v6.9h-1.9v-5.3c0-1.1-0.1-1.8-0.4-2.2c-0.3-0.4-0.8-0.6-1.5-0.6c-0.4,0-0.8,0.1-1.1,0.3s-0.7,0.5-1.1,0.9v6.9
		h-1.9v-9.5h1.9V41c1-1,1.9-1.4,2.8-1.4c1.2,0,2.1,0.6,2.8,1.7c1-1.2,2.1-1.7,3.1-1.7c0.9,0,1.7,0.3,2.3,1c0.6,0.7,0.9,1.7,0.9,3.1
		v5.6h-1.9v-5.6c0-0.8-0.2-1.4-0.5-1.8c-0.3-0.4-0.8-0.6-1.4-0.6C111.4,41.1,110.7,41.5,110,42.3z"/>
	<path d="M118,48.5v-2c0.5,0.4,1.1,0.7,1.6,0.9c0.6,0.2,1,0.3,1.4,0.3c0.4,0,0.7-0.1,1-0.3c0.3-0.2,0.4-0.4,0.4-0.7
		c0-0.3-0.1-0.5-0.3-0.7c-0.2-0.2-0.6-0.4-1.2-0.8c-1.2-0.7-2-1.3-2.4-1.7c-0.4-0.5-0.6-1-0.6-1.6c0-0.7,0.3-1.3,0.9-1.8
		c0.6-0.5,1.3-0.7,2.2-0.7c0.9,0,1.9,0.3,2.9,0.8v1.9c-1.1-0.7-2-1-2.7-1c-0.4,0-0.7,0.1-0.9,0.2c-0.2,0.2-0.3,0.4-0.3,0.6
		c0,0.2,0.1,0.4,0.3,0.6c0.2,0.2,0.6,0.4,1.1,0.7l0.7,0.4c1.6,0.9,2.4,1.9,2.4,3c0,0.8-0.3,1.4-0.9,1.9s-1.4,0.7-2.3,0.7
		c-0.6,0-1.1-0.1-1.5-0.2S118.7,48.8,118,48.5z"/>
</g>
<g class="st0">
	<path d="M126.3,51.7v-0.4c0.3-0.3,0.5-0.6,0.7-0.9c0.1-0.3,0.2-0.7,0.2-1.2c-0.7-0.2-1.1-0.7-1.1-1.4c0-0.4,0.1-0.7,0.4-1
		c0.3-0.3,0.5-0.4,0.9-0.4c0.4,0,0.8,0.2,1,0.6c0.3,0.4,0.4,0.8,0.4,1.4c0,0.8-0.2,1.4-0.7,2C127.7,51,127.1,51.5,126.3,51.7z"/>
</g>
<g class="st0">
	<path d="M135.3,34.8h8.2v1.8h-6.1V41h5.9v1.8h-5.9v4.5h6.3v1.8h-8.4V34.8z"/>
</g>
<g class="st0">
	<path d="M145.7,34.8h1.9v14.4h-1.9V34.8z"/>
</g>
<g class="st0">
	<path d="M158.4,44.6h-6.7c0,0.9,0.4,1.6,0.9,2.2c0.6,0.5,1.3,0.8,2.2,0.8c1.2,0,2.4-0.4,3.4-1.2v1.8c-0.6,0.4-1.2,0.7-1.7,0.8
		c-0.6,0.2-1.2,0.2-2,0.2c-1,0-1.9-0.2-2.5-0.7c-0.6-0.4-1.2-1-1.6-1.8c-0.4-0.7-0.6-1.6-0.6-2.5c0-1.4,0.4-2.6,1.2-3.5
		c0.8-0.9,1.9-1.4,3.2-1.4c1.3,0,2.3,0.4,3,1.3c0.8,0.9,1.1,2.1,1.1,3.5V44.6z M151.7,43.5h4.8c0-0.8-0.3-1.3-0.7-1.7
		c-0.4-0.4-0.9-0.6-1.6-0.6c-0.7,0-1.2,0.2-1.7,0.6C152.1,42.2,151.9,42.7,151.7,43.5z"/>
</g>
<g class="st0">
	<path d="M165.9,39.7h2l-4.2,9.7h-0.6l-4.3-9.7h2.1l2.6,5.8L165.9,39.7z"/>
	<path d="M175.3,43.5v4c0,0.3,0.1,0.5,0.3,0.5c0.2,0,0.6-0.2,1.1-0.5v1.1c-0.4,0.3-0.8,0.5-1,0.6c-0.3,0.1-0.5,0.1-0.8,0.1
		c-0.8,0-1.3-0.3-1.4-0.9c-0.8,0.6-1.6,0.9-2.5,0.9c-0.7,0-1.2-0.2-1.7-0.7c-0.4-0.4-0.7-1-0.7-1.6c0-0.6,0.2-1.1,0.6-1.6
		c0.4-0.5,1-0.8,1.8-1.1l2.4-0.8V43c0-1.1-0.6-1.7-1.7-1.7c-1,0-2,0.5-3,1.6v-2.1c0.7-0.9,1.8-1.3,3.1-1.3c1,0,1.8,0.3,2.5,0.8
		c0.2,0.2,0.4,0.4,0.6,0.7c0.2,0.3,0.3,0.6,0.3,0.9C175.3,42.2,175.3,42.7,175.3,43.5z M173.4,47.3v-2.8l-1.3,0.5
		c-0.6,0.3-1.1,0.5-1.4,0.8c-0.3,0.3-0.4,0.6-0.4,1c0,0.4,0.1,0.7,0.4,1c0.3,0.2,0.6,0.4,1,0.4C172.4,48.1,172.9,47.8,173.4,47.3z"
		/>
	<path d="M177,41.2l3.5-3.5v2h3v1.7h-3V46c0,1.1,0.5,1.6,1.4,1.6c0.7,0,1.4-0.2,2.1-0.7v1.8c-0.7,0.4-1.5,0.6-2.4,0.6
		c-0.9,0-1.6-0.3-2.1-0.8c-0.2-0.2-0.3-0.3-0.4-0.5c-0.1-0.2-0.2-0.4-0.3-0.7c-0.1-0.3-0.1-0.9-0.1-1.7v-4.2H177V41.2z"/>
	<path d="M189.9,39.7c1.4,0,2.6,0.5,3.6,1.4c1,0.9,1.4,2.1,1.4,3.5c0,1.4-0.5,2.5-1.5,3.4c-1,0.9-2.2,1.4-3.7,1.4
		c-1.4,0-2.6-0.5-3.6-1.4s-1.4-2.1-1.4-3.4c0-1.4,0.5-2.5,1.5-3.5S188.5,39.7,189.9,39.7z M189.8,41.4c-0.9,0-1.6,0.3-2.2,0.9
		s-0.9,1.3-0.9,2.3c0,0.9,0.3,1.6,0.9,2.2c0.6,0.6,1.4,0.9,2.3,0.9c0.9,0,1.7-0.3,2.3-0.9c0.6-0.6,0.9-1.3,0.9-2.2
		c0-0.9-0.3-1.6-0.9-2.2C191.5,41.7,190.7,41.4,189.8,41.4z"/>
	<path d="M199.1,39.7v2.2l0.1-0.2c0.9-1.5,1.8-2.2,2.7-2.2c0.7,0,1.4,0.4,2.2,1.1l-1,1.7c-0.7-0.6-1.3-0.9-1.8-0.9
		c-0.6,0-1.1,0.3-1.6,0.9s-0.7,1.3-0.7,2.1v5h-1.9v-9.5H199.1z"/>
	<path d="M205,48.5v-2c0.5,0.4,1.1,0.7,1.6,0.9c0.6,0.2,1,0.3,1.4,0.3c0.4,0,0.7-0.1,1-0.3c0.3-0.2,0.4-0.4,0.4-0.7
		c0-0.3-0.1-0.5-0.3-0.7c-0.2-0.2-0.6-0.4-1.2-0.8c-1.2-0.7-2-1.3-2.4-1.7c-0.4-0.5-0.6-1-0.6-1.6c0-0.7,0.3-1.3,0.9-1.8
		c0.6-0.5,1.3-0.7,2.2-0.7c0.9,0,1.9,0.3,2.9,0.8v1.9c-1.1-0.7-2-1-2.7-1c-0.4,0-0.7,0.1-0.9,0.2c-0.2,0.2-0.3,0.4-0.3,0.6
		c0,0.2,0.1,0.4,0.3,0.6c0.2,0.2,0.6,0.4,1.1,0.7l0.7,0.4c1.6,0.9,2.4,1.9,2.4,3c0,0.8-0.3,1.4-0.9,1.9s-1.4,0.7-2.3,0.7
		c-0.6,0-1.1-0.1-1.5-0.2S205.6,48.8,205,48.5z"/>
</g>
<g class="st0">
	<path d="M228.6,49.2l-1.7-2c-0.1,0.1-0.4,0.4-0.7,0.6l0,0c-0.5,0.4-1.1,0.8-1.8,1s-1.4,0.4-2,0.4c-1,0-1.8-0.3-2.5-1s-1-1.4-1-2.4
		c0-0.7,0.2-1.3,0.5-1.8c0.3-0.5,0.9-1.1,1.7-1.7l0,0c0.5-0.3,0.8-0.6,1.2-0.8c-1.1-1.2-1.6-2.3-1.6-3.3c0-1,0.3-1.8,1-2.4
		c0.7-0.6,1.5-0.9,2.6-0.9c1,0,1.9,0.3,2.6,0.9s1,1.4,1,2.3c0,1.3-0.8,2.5-2.5,3.7L225,42l2,2.3c0.6-0.6,1.1-1.4,1.6-2.3h2.1
		c-0.5,1.3-1.3,2.5-2.3,3.8l2.9,3.4H228.6z M225.2,46.2l0.5-0.4l-2.3-2.7l-0.9,0.6c-1.1,0.7-1.6,1.5-1.6,2.2c0,0.4,0.2,0.8,0.5,1
		s0.8,0.4,1.3,0.4c0.4,0,0.8-0.1,1.3-0.3C224.4,46.9,224.8,46.6,225.2,46.2z M223.8,40.7l0.8-0.6c0.7-0.5,1.1-1.1,1.1-1.8
		c0-0.4-0.2-0.8-0.5-1.1c-0.3-0.3-0.7-0.4-1.2-0.4c-0.5,0-0.8,0.1-1.1,0.4c-0.3,0.3-0.4,0.6-0.4,1c0,0.4,0.1,0.8,0.3,1.2
		C223.1,39.9,223.4,40.3,223.8,40.7z"/>
</g>
<g class="st0">
	<path d="M242.4,43.2l-1.6-1c-1-0.6-1.7-1.2-2.1-1.8c-0.4-0.6-0.6-1.3-0.6-2c0-1.1,0.4-2.1,1.2-2.8s1.8-1.1,3.1-1.1
		c1.2,0,2.3,0.3,3.3,1V38c-1-1-2.2-1.5-3.4-1.5c-0.7,0-1.2,0.2-1.7,0.5c-0.4,0.3-0.6,0.7-0.6,1.2c0,0.4,0.2,0.8,0.5,1.2
		s0.8,0.8,1.5,1.2l1.6,0.9c1.8,1,2.6,2.4,2.6,4c0,1.2-0.4,2.1-1.2,2.8c-0.8,0.7-1.8,1.1-3,1.1c-1.4,0-2.7-0.4-3.9-1.3v-2.6
		c1.1,1.4,2.4,2.1,3.9,2.1c0.6,0,1.2-0.2,1.6-0.5c0.4-0.4,0.6-0.8,0.6-1.4C244.3,44.8,243.7,43.9,242.4,43.2z"/>
</g>
<g class="st0">
	<path d="M246.9,41.2l3.5-3.5v2h3v1.7h-3V46c0,1.1,0.5,1.6,1.4,1.6c0.7,0,1.4-0.2,2.1-0.7v1.8c-0.7,0.4-1.5,0.6-2.4,0.6
		c-0.9,0-1.6-0.3-2.1-0.8c-0.2-0.2-0.3-0.3-0.4-0.5c-0.1-0.2-0.2-0.4-0.3-0.7c-0.1-0.3-0.1-0.9-0.1-1.7v-4.2h-1.7V41.2z"/>
</g>
<g class="st0">
	<path d="M261.3,43.5v4c0,0.3,0.1,0.5,0.3,0.5c0.2,0,0.6-0.2,1.1-0.5v1.1c-0.4,0.3-0.8,0.5-1,0.6s-0.5,0.1-0.8,0.1
		c-0.8,0-1.3-0.3-1.4-0.9c-0.8,0.6-1.6,0.9-2.5,0.9c-0.7,0-1.2-0.2-1.7-0.7c-0.4-0.4-0.7-1-0.7-1.6c0-0.6,0.2-1.1,0.6-1.6
		c0.4-0.5,1-0.8,1.8-1.1l2.4-0.8V43c0-1.1-0.6-1.7-1.7-1.7c-1,0-2,0.5-3,1.6v-2.1c0.7-0.9,1.8-1.3,3.1-1.3c1,0,1.8,0.3,2.5,0.8
		c0.2,0.2,0.4,0.4,0.6,0.7c0.2,0.3,0.3,0.6,0.3,0.9C261.3,42.2,261.3,42.7,261.3,43.5z M259.5,47.3v-2.8l-1.3,0.5
		c-0.6,0.3-1.1,0.5-1.4,0.8c-0.3,0.3-0.4,0.6-0.4,1c0,0.4,0.1,0.7,0.4,1c0.3,0.2,0.6,0.4,1,0.4C258.4,48.1,258.9,47.8,259.5,47.3z"
		/>
	<path d="M265.3,35.7c0.3,0,0.6,0.1,0.8,0.3c0.2,0.2,0.3,0.5,0.3,0.8c0,0.3-0.1,0.6-0.3,0.8c-0.2,0.2-0.5,0.3-0.8,0.3
		c-0.3,0-0.5-0.1-0.8-0.3s-0.3-0.5-0.3-0.8c0-0.3,0.1-0.5,0.3-0.8S265,35.7,265.3,35.7z M264.4,39.7h1.9v9.5h-1.9V39.7z"/>
</g>
<g class="st0">
	<path d="M271,39.7v2.2l0.1-0.2c0.9-1.5,1.8-2.2,2.7-2.2c0.7,0,1.4,0.4,2.2,1.1l-1,1.7c-0.7-0.6-1.3-0.9-1.8-0.9
		c-0.6,0-1.1,0.3-1.6,0.9c-0.4,0.6-0.7,1.3-0.7,2.1v5h-1.9v-9.5H271z"/>
</g>
<g class="st0">
	<path d="M276.9,48.5v-2c0.5,0.4,1.1,0.7,1.6,0.9c0.6,0.2,1,0.3,1.4,0.3c0.4,0,0.7-0.1,1-0.3c0.3-0.2,0.4-0.4,0.4-0.7
		c0-0.3-0.1-0.5-0.3-0.7c-0.2-0.2-0.6-0.4-1.2-0.8c-1.2-0.7-2-1.3-2.4-1.7c-0.4-0.5-0.6-1-0.6-1.6c0-0.7,0.3-1.3,0.9-1.8
		s1.3-0.7,2.2-0.7c0.9,0,1.9,0.3,2.9,0.8v1.9c-1.1-0.7-2-1-2.7-1c-0.4,0-0.7,0.1-0.9,0.2c-0.2,0.2-0.3,0.4-0.3,0.6
		c0,0.2,0.1,0.4,0.3,0.6c0.2,0.2,0.6,0.4,1.1,0.7l0.7,0.4c1.6,0.9,2.4,1.9,2.4,3c0,0.8-0.3,1.4-0.9,1.9c-0.6,0.5-1.4,0.7-2.3,0.7
		c-0.6,0-1.1-0.1-1.5-0.2S277.5,48.8,276.9,48.5z"/>
</g>
<g class="st0">
	<path d="M40.9,100.8h4.8v6.1c-1.8,0.8-3.5,1.2-5.3,1.2c-2.4,0-4.3-0.7-5.7-2.1s-2.1-3.1-2.1-5.2c0-2.2,0.7-3.9,2.2-5.4
		c1.5-1.4,3.3-2.1,5.6-2.1c0.8,0,1.6,0.1,2.3,0.3s1.7,0.5,2.8,1v2.1c-1.7-1-3.4-1.5-5.1-1.5c-1.6,0-2.9,0.5-4,1.6
		c-1.1,1.1-1.6,2.4-1.6,4c0,1.6,0.5,3,1.6,4c1.1,1,2.5,1.6,4.2,1.6c0.8,0,1.8-0.2,3-0.6l0.2-0.1v-3h-2.8V100.8z"/>
	<path d="M50.5,98.4v2.2l0.1-0.2c0.9-1.5,1.8-2.2,2.7-2.2c0.7,0,1.4,0.4,2.2,1.1l-1,1.7c-0.7-0.6-1.3-0.9-1.8-0.9
		c-0.6,0-1.1,0.3-1.6,0.9s-0.7,1.3-0.7,2.1v5h-1.9v-9.5H50.5z"/>
	<path d="M62.8,102.2v4c0,0.3,0.1,0.5,0.3,0.5c0.2,0,0.6-0.2,1.1-0.5v1.1c-0.4,0.3-0.8,0.5-1,0.6c-0.3,0.1-0.5,0.1-0.8,0.1
		c-0.8,0-1.3-0.3-1.4-0.9c-0.8,0.6-1.6,0.9-2.5,0.9c-0.7,0-1.2-0.2-1.7-0.7c-0.4-0.4-0.7-1-0.7-1.6c0-0.6,0.2-1.1,0.6-1.6
		c0.4-0.5,1-0.8,1.8-1.1l2.4-0.8v-0.5c0-1.1-0.6-1.7-1.7-1.7c-1,0-2,0.5-3,1.6v-2.1c0.7-0.9,1.8-1.3,3.1-1.3c1,0,1.8,0.3,2.5,0.8
		c0.2,0.2,0.4,0.4,0.6,0.7c0.2,0.3,0.3,0.6,0.3,0.9C62.8,100.9,62.8,101.4,62.8,102.2z M61,106v-2.8l-1.3,0.5
		c-0.6,0.3-1.1,0.5-1.4,0.8c-0.3,0.3-0.4,0.6-0.4,1c0,0.4,0.1,0.7,0.4,1c0.3,0.2,0.6,0.4,1,0.4C59.9,106.8,60.5,106.5,61,106z"/>
	<path d="M72.2,93.5h1.9v14.4h-4c-1.4,0-2.5-0.4-3.4-1.3s-1.3-2.1-1.3-3.6c0-1.4,0.4-2.5,1.3-3.4s2-1.4,3.4-1.4
		c0.6,0,1.3,0.1,2.1,0.4V93.5z M72.2,106.3v-6c-0.6-0.3-1.2-0.4-1.8-0.4c-0.9,0-1.7,0.3-2.2,0.9s-0.8,1.4-0.8,2.5
		c0,1,0.2,1.7,0.7,2.3c0.3,0.3,0.6,0.5,0.9,0.6c0.3,0.1,0.9,0.2,1.7,0.2H72.2z"/>
	<path d="M82.7,107.9v-1.2c-0.4,0.4-0.9,0.8-1.4,1c-0.5,0.2-1,0.4-1.5,0.4c-0.6,0-1.2-0.1-1.7-0.4c-0.5-0.3-0.9-0.7-1.1-1.2
		c-0.3-0.5-0.4-1.4-0.4-2.6v-5.4h1.9v5.4c0,1,0.1,1.7,0.4,2.1c0.3,0.4,0.8,0.6,1.5,0.6c0.9,0,1.7-0.4,2.3-1.3v-6.8h1.9v9.5H82.7z"/>
	<path d="M93.2,102.2v4c0,0.3,0.1,0.5,0.3,0.5c0.2,0,0.6-0.2,1.1-0.5v1.1c-0.4,0.3-0.8,0.5-1,0.6c-0.3,0.1-0.5,0.1-0.8,0.1
		c-0.8,0-1.3-0.3-1.4-0.9c-0.8,0.6-1.6,0.9-2.5,0.9c-0.7,0-1.2-0.2-1.7-0.7c-0.4-0.4-0.7-1-0.7-1.6c0-0.6,0.2-1.1,0.6-1.6
		c0.4-0.5,1-0.8,1.8-1.1l2.4-0.8v-0.5c0-1.1-0.6-1.7-1.7-1.7c-1,0-2,0.5-3,1.6v-2.1c0.7-0.9,1.8-1.3,3.1-1.3c1,0,1.8,0.3,2.5,0.8
		c0.2,0.2,0.4,0.4,0.6,0.7c0.2,0.3,0.3,0.6,0.3,0.9C93.2,100.9,93.2,101.4,93.2,102.2z M91.4,106v-2.8l-1.3,0.5
		c-0.6,0.3-1.1,0.5-1.4,0.8c-0.3,0.3-0.4,0.6-0.4,1c0,0.4,0.1,0.7,0.4,1c0.3,0.2,0.6,0.4,1,0.4C90.3,106.8,90.8,106.5,91.4,106z"/>
	<path d="M94.9,99.9l3.5-3.5v2h3v1.7h-3v4.6c0,1.1,0.5,1.6,1.4,1.6c0.7,0,1.4-0.2,2.1-0.7v1.8c-0.7,0.4-1.5,0.6-2.4,0.6
		c-0.9,0-1.6-0.3-2.1-0.8c-0.2-0.2-0.3-0.3-0.4-0.5c-0.1-0.2-0.2-0.4-0.3-0.7c-0.1-0.3-0.1-0.9-0.1-1.7v-4.2h-1.7V99.9z"/>
</g>
<g class="st0">
	<path d="M111.4,103.3h-6.7c0,0.9,0.4,1.6,0.9,2.2c0.6,0.5,1.3,0.8,2.2,0.8c1.2,0,2.4-0.4,3.4-1.2v1.8c-0.6,0.4-1.2,0.7-1.7,0.8
		c-0.6,0.2-1.2,0.2-2,0.2c-1,0-1.9-0.2-2.5-0.7c-0.6-0.4-1.2-1-1.6-1.8c-0.4-0.7-0.6-1.6-0.6-2.5c0-1.4,0.4-2.6,1.2-3.5
		c0.8-0.9,1.9-1.4,3.2-1.4c1.3,0,2.3,0.4,3,1.3c0.8,0.9,1.1,2.1,1.1,3.5V103.3z M104.8,102.2h4.8c0-0.8-0.3-1.3-0.7-1.7
		c-0.4-0.4-0.9-0.6-1.6-0.6c-0.7,0-1.2,0.2-1.7,0.6C105.2,100.9,104.9,101.5,104.8,102.2z"/>
</g>
<g class="st0">
	<path d="M119.7,107.9V93.5h3.6c1.5,0,2.6,0.4,3.5,1.1c0.9,0.7,1.3,1.7,1.3,2.9c0,0.8-0.2,1.6-0.6,2.2c-0.4,0.6-1,1.1-1.8,1.4
		c0.5,0.3,0.9,0.7,1.4,1.2s1.1,1.4,1.9,2.7c0.5,0.8,0.9,1.4,1.2,1.8l0.8,1h-2.5l-0.6-1c0,0-0.1-0.1-0.1-0.2l-0.4-0.6l-0.6-1.1
		l-0.7-1.1c-0.4-0.6-0.8-1.1-1.2-1.4c-0.4-0.4-0.7-0.6-1-0.8c-0.3-0.2-0.8-0.2-1.4-0.2h-0.5v6.3H119.7z M122.4,95.2h-0.6v4.6h0.8
		c1,0,1.8-0.1,2.2-0.3c0.4-0.2,0.7-0.4,0.9-0.8s0.3-0.8,0.3-1.2c0-0.5-0.1-0.9-0.4-1.2s-0.6-0.6-1-0.8S123.4,95.2,122.4,95.2z"/>
	<path d="M136.7,98.4c1.4,0,2.6,0.5,3.6,1.4c1,0.9,1.4,2.1,1.4,3.5c0,1.4-0.5,2.5-1.5,3.4c-1,0.9-2.2,1.4-3.7,1.4
		c-1.4,0-2.6-0.5-3.6-1.4s-1.4-2.1-1.4-3.4c0-1.4,0.5-2.5,1.5-3.5S135.2,98.4,136.7,98.4z M136.6,100.1c-0.9,0-1.6,0.3-2.2,0.9
		s-0.9,1.3-0.9,2.3c0,0.9,0.3,1.6,0.9,2.2c0.6,0.6,1.4,0.9,2.3,0.9c0.9,0,1.7-0.3,2.3-0.9c0.6-0.6,0.9-1.3,0.9-2.2
		c0-0.9-0.3-1.6-0.9-2.2C138.3,100.4,137.5,100.1,136.6,100.1z"/>
	<path d="M148.3,98.4c1.4,0,2.6,0.5,3.6,1.4c1,0.9,1.4,2.1,1.4,3.5c0,1.4-0.5,2.5-1.5,3.4c-1,0.9-2.2,1.4-3.7,1.4
		c-1.4,0-2.6-0.5-3.6-1.4s-1.4-2.1-1.4-3.4c0-1.4,0.5-2.5,1.5-3.5S146.9,98.4,148.3,98.4z M148.2,100.1c-0.9,0-1.6,0.3-2.2,0.9
		s-0.9,1.3-0.9,2.3c0,0.9,0.3,1.6,0.9,2.2c0.6,0.6,1.4,0.9,2.3,0.9c0.9,0,1.7-0.3,2.3-0.9c0.6-0.6,0.9-1.3,0.9-2.2
		c0-0.9-0.3-1.6-0.9-2.2C149.9,100.4,149.2,100.1,148.2,100.1z"/>
	<path d="M163.2,101v6.9h-1.9v-5.3c0-1.1-0.1-1.8-0.4-2.2c-0.3-0.4-0.8-0.6-1.5-0.6c-0.4,0-0.8,0.1-1.1,0.3s-0.7,0.5-1.1,0.9v6.9
		h-1.9v-9.5h1.9v1.2c1-1,1.9-1.4,2.8-1.4c1.2,0,2.1,0.6,2.8,1.7c1-1.2,2.1-1.7,3.1-1.7c0.9,0,1.7,0.3,2.3,1c0.6,0.7,0.9,1.7,0.9,3.1
		v5.6h-1.9v-5.6c0-0.8-0.2-1.4-0.5-1.8c-0.3-0.4-0.8-0.6-1.4-0.6C164.6,99.8,163.9,100.2,163.2,101z"/>
</g>
<g class="st0">
	<path d="M37.1,12.6l-1.7-1c-1.1-0.6-1.8-1.3-2.3-1.9c-0.4-0.6-0.7-1.3-0.7-2.2c0-1.2,0.4-2.2,1.3-3s1.9-1.1,3.3-1.1
		c1.3,0,2.5,0.4,3.6,1.1V7c-1.1-1.1-2.3-1.6-3.6-1.6c-0.7,0-1.3,0.2-1.8,0.5s-0.7,0.8-0.7,1.3c0,0.5,0.2,0.9,0.5,1.3
		c0.3,0.4,0.9,0.8,1.7,1.3l1.7,1c1.9,1.1,2.8,2.6,2.8,4.3c0,1.2-0.4,2.2-1.2,3s-1.9,1.2-3.2,1.2c-1.5,0-2.9-0.5-4.2-1.4V15
		c1.2,1.5,2.6,2.3,4.2,2.3c0.7,0,1.3-0.2,1.7-0.6c0.5-0.4,0.7-0.9,0.7-1.5C39.1,14.3,38.4,13.4,37.1,12.6z"/>
	<path d="M43.3,3.6h2v6.6c0.8-1,1.9-1.5,3.1-1.5c0.7,0,1.3,0.2,1.8,0.5s0.9,0.8,1.2,1.4s0.4,1.5,0.4,2.7v5.8h-2v-6.3
		c0-0.7-0.2-1.3-0.5-1.8c-0.4-0.5-0.8-0.7-1.4-0.7c-0.4,0-0.9,0.1-1.3,0.3c-0.4,0.2-0.8,0.6-1.3,1.1v7.3h-2V3.6z"/>
	<path d="M63.4,14.2h-7.2c0.1,1,0.4,1.8,1,2.3c0.6,0.6,1.4,0.9,2.3,0.9c1.3,0,2.6-0.4,3.7-1.2v2c-0.6,0.4-1.2,0.7-1.8,0.9
		c-0.6,0.2-1.3,0.3-2.1,0.3c-1.1,0-2-0.2-2.7-0.7c-0.7-0.5-1.3-1.1-1.7-1.9c-0.4-0.8-0.6-1.7-0.6-2.7c0-1.6,0.4-2.8,1.3-3.8
		c0.9-1,2-1.5,3.4-1.5c1.4,0,2.4,0.5,3.2,1.4c0.8,0.9,1.2,2.2,1.2,3.8V14.2z M56.2,13h5.1c-0.1-0.8-0.3-1.4-0.7-1.9
		c-0.4-0.4-1-0.7-1.7-0.7c-0.7,0-1.3,0.2-1.8,0.7C56.7,11.5,56.4,12.2,56.2,13z"/>
	<path d="M65.6,3.6h2v15.5h-2V3.6z"/>
	<path d="M76.8,8.9H79l-4.5,10.4h-0.7L69.2,8.9h2.2l2.8,6.3L76.8,8.9z"/>
	<path d="M88.7,14.2h-7.2c0.1,1,0.4,1.8,1,2.3c0.6,0.6,1.4,0.9,2.3,0.9c1.3,0,2.6-0.4,3.7-1.2v2c-0.6,0.4-1.2,0.7-1.8,0.9
		c-0.6,0.2-1.3,0.3-2.1,0.3c-1.1,0-2-0.2-2.7-0.7c-0.7-0.5-1.3-1.1-1.7-1.9c-0.4-0.8-0.6-1.7-0.6-2.7c0-1.6,0.4-2.8,1.3-3.8
		c0.9-1,2-1.5,3.4-1.5c1.4,0,2.4,0.5,3.2,1.4c0.8,0.9,1.2,2.2,1.2,3.8V14.2z M81.6,13h5.1c-0.1-0.8-0.3-1.4-0.7-1.9
		c-0.4-0.4-1-0.7-1.7-0.7c-0.7,0-1.3,0.2-1.8,0.7C82,11.5,81.7,12.2,81.6,13z"/>
	<path d="M90.4,18.4v-2.2c0.6,0.4,1.2,0.7,1.7,1c0.6,0.2,1.1,0.4,1.5,0.4c0.4,0,0.8-0.1,1.1-0.3c0.3-0.2,0.5-0.5,0.5-0.7
		c0-0.3-0.1-0.5-0.3-0.7c-0.2-0.2-0.6-0.5-1.3-0.8c-1.3-0.7-2.2-1.3-2.6-1.9c-0.4-0.5-0.6-1.1-0.6-1.7c0-0.8,0.3-1.4,0.9-1.9
		c0.6-0.5,1.4-0.7,2.4-0.7c1,0,2,0.3,3.1,0.8v2c-1.2-0.7-2.2-1.1-2.9-1.1c-0.4,0-0.7,0.1-0.9,0.2c-0.2,0.2-0.4,0.4-0.4,0.7
		c0,0.2,0.1,0.5,0.3,0.7c0.2,0.2,0.6,0.5,1.1,0.8l0.7,0.4c1.7,1,2.5,2,2.5,3.2c0,0.8-0.3,1.5-1,2.1c-0.7,0.5-1.5,0.8-2.5,0.8
		c-0.6,0-1.1-0.1-1.6-0.2S91.1,18.7,90.4,18.4z"/>
</g>
<g class="st0">
	<path d="M36.7,73.6l-1.6-1c-1-0.6-1.7-1.2-2.1-1.8c-0.4-0.6-0.6-1.3-0.6-2c0-1.1,0.4-2.1,1.2-2.8s1.8-1.1,3.1-1.1
		c1.2,0,2.3,0.3,3.3,1v2.3c-1-1-2.2-1.5-3.4-1.5c-0.7,0-1.2,0.2-1.7,0.5c-0.4,0.3-0.6,0.7-0.6,1.2c0,0.4,0.2,0.8,0.5,1.2
		s0.8,0.8,1.5,1.2l1.6,0.9c1.8,1,2.6,2.4,2.6,4c0,1.2-0.4,2.1-1.2,2.8c-0.8,0.7-1.8,1.1-3,1.1c-1.4,0-2.7-0.4-3.9-1.3v-2.6
		c1.1,1.4,2.4,2.1,3.9,2.1c0.6,0,1.2-0.2,1.6-0.5c0.4-0.4,0.6-0.8,0.6-1.4C38.6,75.2,37.9,74.3,36.7,73.6z"/>
	<path d="M41.2,71.6l3.5-3.5v2h3v1.7h-3v4.6c0,1.1,0.5,1.6,1.4,1.6c0.7,0,1.4-0.2,2.1-0.7v1.8c-0.7,0.4-1.5,0.6-2.4,0.6
		c-0.9,0-1.6-0.3-2.1-0.8c-0.2-0.2-0.3-0.3-0.4-0.5c-0.1-0.2-0.2-0.4-0.3-0.7c-0.1-0.3-0.1-0.9-0.1-1.7v-4.2h-1.7V71.6z"/>
</g>
<g class="st0">
	<path d="M55.6,79.6v-1.2c-0.4,0.4-0.9,0.8-1.4,1c-0.5,0.2-1,0.4-1.5,0.4c-0.6,0-1.2-0.1-1.7-0.4c-0.5-0.3-0.9-0.7-1.1-1.2
		c-0.3-0.5-0.4-1.4-0.4-2.6v-5.4h1.9v5.4c0,1,0.1,1.7,0.4,2.1c0.3,0.4,0.8,0.6,1.5,0.6c0.9,0,1.7-0.4,2.3-1.3v-6.8h1.9v9.5H55.6z"/>
</g>
<g class="st0">
	<path d="M66.6,65.2h1.9v14.4h-4c-1.4,0-2.5-0.4-3.4-1.3s-1.3-2.1-1.3-3.6c0-1.4,0.4-2.5,1.3-3.4s2-1.4,3.4-1.4
		c0.6,0,1.3,0.1,2.1,0.4V65.2z M66.6,78v-6c-0.6-0.3-1.2-0.4-1.8-0.4c-0.9,0-1.7,0.3-2.2,0.9s-0.8,1.4-0.8,2.5c0,1,0.2,1.7,0.7,2.3
		c0.3,0.3,0.6,0.5,0.9,0.6c0.3,0.1,0.9,0.2,1.7,0.2H66.6z"/>
	<path d="M76.8,70.1h2.1l-6.7,14.3h-2.1l3.2-6.9l-3.7-7.5h2.1l2.6,5.4L76.8,70.1z"/>
</g>
<g class="st0">
	<path d="M89,65.1h1.5l6.5,14.5h-2.1l-1.9-4.3h-6.2l-1.8,4.3h-2.1L89,65.1z M92,73.5l-2.3-5.2l-2.2,5.2H92z"/>
</g>
<g class="st0">
	<path d="M100.2,70.1v2.2l0.1-0.2c0.9-1.5,1.8-2.2,2.7-2.2c0.7,0,1.4,0.4,2.2,1.1l-1,1.7c-0.7-0.6-1.3-0.9-1.8-0.9
		c-0.6,0-1.1,0.3-1.6,0.9s-0.7,1.3-0.7,2.1v5h-1.9v-9.5H100.2z"/>
</g>
<g class="st0">
	<path d="M114.2,75h-6.7c0,0.9,0.4,1.6,0.9,2.2c0.6,0.5,1.3,0.8,2.2,0.8c1.2,0,2.4-0.4,3.4-1.2v1.8c-0.6,0.4-1.2,0.7-1.7,0.8
		c-0.6,0.2-1.2,0.2-2,0.2c-1,0-1.9-0.2-2.5-0.7c-0.6-0.4-1.2-1-1.6-1.8c-0.4-0.7-0.6-1.6-0.6-2.5c0-1.4,0.4-2.6,1.2-3.5
		c0.8-0.9,1.9-1.4,3.2-1.4c1.3,0,2.3,0.4,3,1.3c0.8,0.9,1.1,2.1,1.1,3.5V75z M107.5,73.9h4.8c0-0.8-0.3-1.3-0.7-1.7
		c-0.4-0.4-0.9-0.6-1.6-0.6c-0.7,0-1.2,0.2-1.7,0.6C107.9,72.6,107.7,73.1,107.5,73.9z"/>
</g>
<g class="st0">
	<path d="M122.2,73.9v4c0,0.3,0.1,0.5,0.3,0.5c0.2,0,0.6-0.2,1.1-0.5v1.1c-0.4,0.3-0.8,0.5-1,0.6c-0.3,0.1-0.5,0.1-0.8,0.1
		c-0.8,0-1.3-0.3-1.4-0.9c-0.8,0.6-1.6,0.9-2.5,0.9c-0.7,0-1.2-0.2-1.7-0.7c-0.4-0.4-0.7-1-0.7-1.6c0-0.6,0.2-1.1,0.6-1.6
		c0.4-0.5,1-0.8,1.8-1.1l2.4-0.8v-0.5c0-1.1-0.6-1.7-1.7-1.7c-1,0-2,0.5-3,1.6v-2.1c0.7-0.9,1.8-1.3,3.1-1.3c1,0,1.8,0.3,2.5,0.8
		c0.2,0.2,0.4,0.4,0.6,0.7c0.2,0.3,0.3,0.6,0.3,0.9C122.2,72.6,122.2,73.1,122.2,73.9z M120.3,77.7v-2.8l-1.3,0.5
		c-0.6,0.3-1.1,0.5-1.4,0.8c-0.3,0.3-0.4,0.6-0.4,1c0,0.4,0.1,0.7,0.4,1c0.3,0.2,0.6,0.4,1,0.4C119.3,78.5,119.8,78.2,120.3,77.7z"
		/>
</g>
<g class="st0">
	<path d="M124.8,78.9v-2c0.5,0.4,1.1,0.7,1.6,0.9c0.6,0.2,1,0.3,1.4,0.3c0.4,0,0.7-0.1,1-0.3c0.3-0.2,0.4-0.4,0.4-0.7
		c0-0.3-0.1-0.5-0.3-0.7c-0.2-0.2-0.6-0.4-1.2-0.8c-1.2-0.7-2-1.3-2.4-1.7c-0.4-0.5-0.6-1-0.6-1.6c0-0.7,0.3-1.3,0.9-1.8
		c0.6-0.5,1.3-0.7,2.2-0.7c0.9,0,1.9,0.3,2.9,0.8v1.9c-1.1-0.7-2-1-2.7-1c-0.4,0-0.7,0.1-0.9,0.2c-0.2,0.2-0.3,0.4-0.3,0.6
		c0,0.2,0.1,0.4,0.3,0.6c0.2,0.2,0.6,0.4,1.1,0.7l0.7,0.4c1.6,0.9,2.4,1.9,2.4,3c0,0.8-0.3,1.4-0.9,1.9s-1.4,0.7-2.3,0.7
		c-0.6,0-1.1-0.1-1.5-0.2S125.5,79.2,124.8,78.9z"/>
</g>
<rect y="4.9" class="st1" width="14.4" height="14.4"/>
<rect y="33.4" class="st2" width="14.4" height="14.4"/>
<rect y="63.5" class="st3" width="14.4" height="14.4"/>
<rect y="93.7" class="st4" width="14.4" height="14.4"/>
<g class="st0">
	<path d="M344.7,21.9V7.5h3.6c1.5,0,2.6,0.4,3.5,1.1c0.9,0.7,1.3,1.7,1.3,2.9c0,0.8-0.2,1.6-0.6,2.2c-0.4,0.6-1,1.1-1.8,1.4
		c0.5,0.3,0.9,0.7,1.4,1.2s1.1,1.4,1.9,2.7c0.5,0.8,0.9,1.4,1.2,1.8l0.8,1h-2.5l-0.6-1c0,0-0.1-0.1-0.1-0.2l-0.4-0.6l-0.6-1.1
		l-0.7-1.1c-0.4-0.6-0.8-1.1-1.2-1.4c-0.4-0.4-0.7-0.6-1-0.8c-0.3-0.2-0.8-0.2-1.4-0.2h-0.5v6.3H344.7z M347.4,9.2h-0.6v4.6h0.8
		c1,0,1.8-0.1,2.2-0.3s0.7-0.4,0.9-0.8s0.3-0.8,0.3-1.2c0-0.5-0.1-0.9-0.4-1.2c-0.2-0.4-0.6-0.6-1-0.8
		C349.1,9.3,348.4,9.2,347.4,9.2z"/>
	<path d="M365.3,17.3h-6.7c0,0.9,0.4,1.6,0.9,2.2c0.6,0.5,1.3,0.8,2.2,0.8c1.2,0,2.4-0.4,3.4-1.2V21c-0.6,0.4-1.2,0.7-1.7,0.8
		s-1.2,0.2-2,0.2c-1,0-1.9-0.2-2.5-0.7c-0.6-0.4-1.2-1-1.6-1.8c-0.4-0.7-0.6-1.6-0.6-2.5c0-1.4,0.4-2.6,1.2-3.5
		c0.8-0.9,1.9-1.4,3.2-1.4c1.3,0,2.3,0.4,3,1.3s1.1,2.1,1.1,3.5V17.3z M358.6,16.2h4.8c0-0.8-0.3-1.3-0.7-1.7
		c-0.4-0.4-0.9-0.6-1.6-0.6c-0.7,0-1.2,0.2-1.7,0.6S358.8,15.5,358.6,16.2z"/>
</g>
<g class="st0">
	<path d="M366.8,21.2v-2c0.5,0.4,1.1,0.7,1.6,0.9s1,0.3,1.4,0.3c0.4,0,0.7-0.1,1-0.3c0.3-0.2,0.4-0.4,0.4-0.7c0-0.3-0.1-0.5-0.3-0.7
		c-0.2-0.2-0.6-0.4-1.2-0.8c-1.2-0.7-2-1.3-2.4-1.7c-0.4-0.5-0.6-1-0.6-1.6c0-0.7,0.3-1.3,0.9-1.8c0.6-0.5,1.3-0.7,2.2-0.7
		c0.9,0,1.9,0.3,2.9,0.8v1.9c-1.1-0.7-2-1-2.7-1c-0.4,0-0.7,0.1-0.9,0.2c-0.2,0.2-0.3,0.4-0.3,0.6c0,0.2,0.1,0.4,0.3,0.6
		c0.2,0.2,0.6,0.4,1.1,0.7l0.7,0.4c1.6,0.9,2.4,1.9,2.4,3c0,0.8-0.3,1.4-0.9,1.9c-0.6,0.5-1.4,0.7-2.3,0.7c-0.6,0-1.1-0.1-1.5-0.2
		S367.5,21.6,366.8,21.2z"/>
</g>
<g class="st0">
	<path d="M374.2,13.9l3.5-3.5v2h3v1.7h-3v4.6c0,1.1,0.5,1.6,1.4,1.6c0.7,0,1.4-0.2,2.1-0.7v1.8c-0.7,0.4-1.5,0.6-2.4,0.6
		c-0.9,0-1.6-0.3-2.1-0.8c-0.2-0.2-0.3-0.3-0.4-0.5c-0.1-0.2-0.2-0.4-0.3-0.7c-0.1-0.3-0.1-0.9-0.1-1.7v-4.2h-1.7V13.9z"/>
</g>
<g class="st0">
	<path d="M384.6,12.4v2.2l0.1-0.2c0.9-1.5,1.8-2.2,2.7-2.2c0.7,0,1.4,0.4,2.2,1.1l-1,1.7c-0.7-0.6-1.3-0.9-1.8-0.9
		c-0.6,0-1.1,0.3-1.6,0.9c-0.4,0.6-0.7,1.3-0.7,2.1v5h-1.9v-9.5H384.6z"/>
</g>
<g class="st0">
	<path d="M394.9,12.4c1.4,0,2.6,0.5,3.6,1.4c1,0.9,1.4,2.1,1.4,3.5c0,1.4-0.5,2.5-1.5,3.4c-1,0.9-2.2,1.4-3.7,1.4
		c-1.4,0-2.6-0.5-3.6-1.4c-1-0.9-1.4-2.1-1.4-3.4c0-1.4,0.5-2.5,1.5-3.5S393.5,12.4,394.9,12.4z M394.8,14.1c-0.9,0-1.6,0.3-2.2,0.9
		s-0.9,1.3-0.9,2.3c0,0.9,0.3,1.6,0.9,2.2c0.6,0.6,1.4,0.9,2.3,0.9c0.9,0,1.7-0.3,2.3-0.9c0.6-0.6,0.9-1.3,0.9-2.2
		c0-0.9-0.3-1.6-0.9-2.2S395.8,14.1,394.8,14.1z"/>
</g>
<g class="st0">
	<path d="M406.6,12.4c1.4,0,2.6,0.5,3.6,1.4c1,0.9,1.4,2.1,1.4,3.5c0,1.4-0.5,2.5-1.5,3.4c-1,0.9-2.2,1.4-3.7,1.4
		c-1.4,0-2.6-0.5-3.6-1.4c-1-0.9-1.4-2.1-1.4-3.4c0-1.4,0.5-2.5,1.5-3.5S405.2,12.4,406.6,12.4z M406.5,14.1c-0.9,0-1.6,0.3-2.2,0.9
		s-0.9,1.3-0.9,2.3c0,0.9,0.3,1.6,0.9,2.2c0.6,0.6,1.4,0.9,2.3,0.9c0.9,0,1.7-0.3,2.3-0.9c0.6-0.6,0.9-1.3,0.9-2.2
		c0-0.9-0.3-1.6-0.9-2.2S407.4,14.1,406.5,14.1z"/>
</g>
<g class="st0">
	<path d="M421.6,15v6.9h-1.9v-5.3c0-1.1-0.1-1.8-0.4-2.2c-0.3-0.4-0.8-0.6-1.5-0.6c-0.4,0-0.8,0.1-1.1,0.3c-0.3,0.2-0.7,0.5-1.1,0.9
		v6.9h-1.9v-9.5h1.9v1.2c1-1,1.9-1.4,2.8-1.4c1.2,0,2.1,0.6,2.8,1.7c1-1.2,2.1-1.7,3.1-1.7c0.9,0,1.7,0.3,2.3,1
		c0.6,0.7,0.9,1.7,0.9,3.1v5.6h-1.9v-5.6c0-0.8-0.2-1.4-0.5-1.8s-0.8-0.6-1.4-0.6C423,13.8,422.2,14.2,421.6,15z"/>
	<path d="M429.6,21.2v-2c0.5,0.4,1.1,0.7,1.6,0.9c0.6,0.2,1,0.3,1.4,0.3c0.4,0,0.7-0.1,1-0.3c0.3-0.2,0.4-0.4,0.4-0.7
		c0-0.3-0.1-0.5-0.3-0.7c-0.2-0.2-0.6-0.4-1.2-0.8c-1.2-0.7-2-1.3-2.4-1.7c-0.4-0.5-0.6-1-0.6-1.6c0-0.7,0.3-1.3,0.9-1.8
		s1.3-0.7,2.2-0.7c0.9,0,1.9,0.3,2.9,0.8v1.9c-1.1-0.7-2-1-2.7-1c-0.4,0-0.7,0.1-0.9,0.2c-0.2,0.2-0.3,0.4-0.3,0.6
		c0,0.2,0.1,0.4,0.3,0.6c0.2,0.2,0.6,0.4,1.1,0.7l0.7,0.4c1.6,0.9,2.4,1.9,2.4,3c0,0.8-0.3,1.4-0.9,1.9c-0.6,0.5-1.4,0.7-2.3,0.7
		c-0.6,0-1.1-0.1-1.5-0.2S430.3,21.6,429.6,21.2z"/>
</g>
<g class="st0">
	<path d="M344.7,39.3h8.2v1.8h-6.1v4.4h5.9v1.8h-5.9v4.5h6.3v1.8h-8.4V39.3z"/>
	<path d="M355,39.3h1.9v14.4H355V39.3z"/>
</g>
<g class="st0">
	<path d="M367.7,49.1H361c0,0.9,0.4,1.6,0.9,2.2c0.6,0.5,1.3,0.8,2.2,0.8c1.2,0,2.4-0.4,3.4-1.2v1.8c-0.6,0.4-1.2,0.7-1.7,0.8
		s-1.2,0.2-2,0.2c-1,0-1.9-0.2-2.5-0.7c-0.6-0.4-1.2-1-1.6-1.8c-0.4-0.7-0.6-1.6-0.6-2.5c0-1.4,0.4-2.6,1.2-3.5
		c0.8-0.9,1.9-1.4,3.2-1.4c1.3,0,2.3,0.4,3,1.3s1.1,2.1,1.1,3.5V49.1z M361.1,48h4.8c0-0.8-0.3-1.3-0.7-1.7
		c-0.4-0.4-0.9-0.6-1.6-0.6c-0.7,0-1.2,0.2-1.7,0.6S361.2,47.2,361.1,48z"/>
</g>
<g class="st0">
	<path d="M375.3,44.2h2l-4.2,9.7h-0.6l-4.3-9.7h2.1l2.6,5.8L375.3,44.2z"/>
	<path d="M384.7,48v4c0,0.3,0.1,0.5,0.3,0.5c0.2,0,0.6-0.2,1.1-0.5v1.1c-0.4,0.3-0.8,0.5-1,0.6c-0.3,0.1-0.5,0.1-0.8,0.1
		c-0.8,0-1.3-0.3-1.4-0.9c-0.8,0.6-1.6,0.9-2.5,0.9c-0.7,0-1.2-0.2-1.7-0.7c-0.4-0.4-0.7-1-0.7-1.6c0-0.6,0.2-1.1,0.6-1.6
		c0.4-0.5,1-0.8,1.8-1.1l2.4-0.8v-0.5c0-1.1-0.6-1.7-1.7-1.7c-1,0-2,0.5-3,1.6v-2.1c0.7-0.9,1.8-1.3,3.1-1.3c1,0,1.8,0.3,2.5,0.8
		c0.2,0.2,0.4,0.4,0.6,0.7c0.2,0.3,0.3,0.6,0.3,0.9C384.7,46.6,384.7,47.2,384.7,48z M382.9,51.8V49l-1.3,0.5
		c-0.6,0.3-1.1,0.5-1.4,0.8c-0.3,0.3-0.4,0.6-0.4,1c0,0.4,0.1,0.7,0.4,1c0.3,0.2,0.6,0.4,1,0.4C381.8,52.5,382.4,52.3,382.9,51.8z"
		/>
	<path d="M386.4,45.7l3.5-3.5v2h3v1.7h-3v4.6c0,1.1,0.5,1.6,1.4,1.6c0.7,0,1.4-0.2,2.1-0.7v1.8c-0.7,0.4-1.5,0.6-2.4,0.6
		c-0.9,0-1.6-0.3-2.1-0.8c-0.2-0.2-0.3-0.3-0.4-0.5c-0.1-0.2-0.2-0.4-0.3-0.7c-0.1-0.3-0.1-0.9-0.1-1.7v-4.2h-1.7V45.7z"/>
	<path d="M399.3,44.2c1.4,0,2.6,0.5,3.6,1.4c1,0.9,1.4,2.1,1.4,3.5c0,1.4-0.5,2.5-1.5,3.4c-1,0.9-2.2,1.4-3.7,1.4
		c-1.4,0-2.6-0.5-3.6-1.4c-1-0.9-1.4-2.1-1.4-3.4c0-1.4,0.5-2.5,1.5-3.5S397.9,44.2,399.3,44.2z M399.2,45.8c-0.9,0-1.6,0.3-2.2,0.9
		s-0.9,1.3-0.9,2.3c0,0.9,0.3,1.6,0.9,2.2c0.6,0.6,1.4,0.9,2.3,0.9c0.9,0,1.7-0.3,2.3-0.9c0.6-0.6,0.9-1.3,0.9-2.2
		c0-0.9-0.3-1.6-0.9-2.2S400.2,45.8,399.2,45.8z"/>
	<path d="M408.5,44.2v2.2l0.1-0.2c0.9-1.5,1.8-2.2,2.7-2.2c0.7,0,1.4,0.4,2.2,1.1l-1,1.7c-0.7-0.6-1.3-0.9-1.8-0.9
		c-0.6,0-1.1,0.3-1.6,0.9c-0.4,0.6-0.7,1.3-0.7,2.1v5h-1.9v-9.5H408.5z"/>
	<path d="M414.4,53v-2c0.5,0.4,1.1,0.7,1.6,0.9s1,0.3,1.4,0.3c0.4,0,0.7-0.1,1-0.3c0.3-0.2,0.4-0.4,0.4-0.7c0-0.3-0.1-0.5-0.3-0.7
		c-0.2-0.2-0.6-0.4-1.2-0.8c-1.2-0.7-2-1.3-2.4-1.7c-0.4-0.5-0.6-1-0.6-1.6c0-0.7,0.3-1.3,0.9-1.8c0.6-0.5,1.3-0.7,2.2-0.7
		c0.9,0,1.9,0.3,2.9,0.8v1.9c-1.1-0.7-2-1-2.7-1c-0.4,0-0.7,0.1-0.9,0.2c-0.2,0.2-0.3,0.4-0.3,0.6c0,0.2,0.1,0.4,0.3,0.6
		c0.2,0.2,0.6,0.4,1.1,0.7l0.7,0.4c1.6,0.9,2.4,1.9,2.4,3c0,0.8-0.3,1.4-0.9,1.9c-0.6,0.5-1.4,0.7-2.3,0.7c-0.6,0-1.1-0.1-1.5-0.2
		S415,53.3,414.4,53z"/>
</g>
<g class="st0">
	<path d="M348.2,78.7l-1.6-1c-1-0.6-1.7-1.2-2.1-1.8c-0.4-0.6-0.6-1.3-0.6-2c0-1.1,0.4-2.1,1.2-2.8s1.8-1.1,3.1-1.1
		c1.2,0,2.3,0.3,3.3,1v2.3c-1-1-2.2-1.5-3.4-1.5c-0.7,0-1.2,0.2-1.7,0.5c-0.4,0.3-0.6,0.7-0.6,1.2c0,0.4,0.2,0.8,0.5,1.2
		s0.8,0.8,1.5,1.2l1.6,0.9c1.8,1,2.6,2.4,2.6,4c0,1.2-0.4,2.1-1.2,2.8c-0.8,0.7-1.8,1.1-3,1.1c-1.4,0-2.7-0.4-3.9-1.3v-2.6
		c1.1,1.4,2.4,2.1,3.9,2.1c0.6,0,1.2-0.2,1.6-0.5c0.4-0.4,0.6-0.8,0.6-1.4C350.1,80.3,349.5,79.5,348.2,78.7z"/>
	<path d="M352.8,76.7l3.5-3.5v2h3v1.7h-3v4.6c0,1.1,0.5,1.6,1.4,1.6c0.7,0,1.4-0.2,2.1-0.7v1.8c-0.7,0.4-1.5,0.6-2.4,0.6
		c-0.9,0-1.6-0.3-2.1-0.8c-0.2-0.2-0.3-0.3-0.4-0.5c-0.1-0.2-0.2-0.4-0.3-0.7c-0.1-0.3-0.1-0.9-0.1-1.7v-4.2h-1.7V76.7z"/>
	<path d="M367.1,79v4c0,0.3,0.1,0.5,0.3,0.5c0.2,0,0.6-0.2,1.1-0.5v1.1c-0.4,0.3-0.8,0.5-1,0.6c-0.3,0.1-0.5,0.1-0.8,0.1
		c-0.8,0-1.3-0.3-1.4-0.9c-0.8,0.6-1.6,0.9-2.5,0.9c-0.7,0-1.2-0.2-1.7-0.7c-0.4-0.4-0.7-1-0.7-1.6c0-0.6,0.2-1.1,0.6-1.6
		c0.4-0.5,1-0.8,1.8-1.1l2.4-0.8v-0.5c0-1.1-0.6-1.7-1.7-1.7c-1,0-2,0.5-3,1.6v-2.1c0.7-0.9,1.8-1.3,3.1-1.3c1,0,1.8,0.3,2.5,0.8
		c0.2,0.2,0.4,0.4,0.6,0.7c0.2,0.3,0.3,0.6,0.3,0.9C367.1,77.7,367.1,78.2,367.1,79z M365.2,82.8V80l-1.3,0.5
		c-0.6,0.3-1.1,0.5-1.4,0.8c-0.3,0.3-0.4,0.6-0.4,1c0,0.4,0.1,0.7,0.4,1c0.3,0.2,0.6,0.4,1,0.4C364.2,83.6,364.7,83.3,365.2,82.8z"
		/>
	<path d="M371.1,71.2c0.3,0,0.6,0.1,0.8,0.3c0.2,0.2,0.3,0.5,0.3,0.8c0,0.3-0.1,0.6-0.3,0.8c-0.2,0.2-0.5,0.3-0.8,0.3
		c-0.3,0-0.5-0.1-0.8-0.3c-0.2-0.2-0.3-0.5-0.3-0.8c0-0.3,0.1-0.5,0.3-0.8C370.6,71.3,370.8,71.2,371.1,71.2z M370.2,75.2h1.9v9.5
		h-1.9V75.2z"/>
	<path d="M376.8,75.2v2.2l0.1-0.2c0.9-1.5,1.8-2.2,2.7-2.2c0.7,0,1.4,0.4,2.2,1.1l-1,1.7c-0.7-0.6-1.3-0.9-1.8-0.9
		c-0.6,0-1.1,0.3-1.6,0.9c-0.4,0.6-0.7,1.3-0.7,2.1v5h-1.9v-9.5H376.8z"/>
	<path d="M382.7,84v-2c0.5,0.4,1.1,0.7,1.6,0.9c0.6,0.2,1,0.3,1.4,0.3c0.4,0,0.7-0.1,1-0.3c0.3-0.2,0.4-0.4,0.4-0.7
		c0-0.3-0.1-0.5-0.3-0.7c-0.2-0.2-0.6-0.4-1.2-0.8c-1.2-0.7-2-1.3-2.4-1.7c-0.4-0.5-0.6-1-0.6-1.6c0-0.7,0.3-1.3,0.9-1.8
		s1.3-0.7,2.2-0.7c0.9,0,1.9,0.3,2.9,0.8v1.9c-1.1-0.7-2-1-2.7-1c-0.4,0-0.7,0.1-0.9,0.2c-0.2,0.2-0.3,0.4-0.3,0.6
		c0,0.2,0.1,0.4,0.3,0.6c0.2,0.2,0.6,0.4,1.1,0.7l0.7,0.4c1.6,0.9,2.4,1.9,2.4,3c0,0.8-0.3,1.4-0.9,1.9c-0.6,0.5-1.4,0.7-2.3,0.7
		c-0.6,0-1.1-0.1-1.5-0.2S383.4,84.4,382.7,84z"/>
</g>
<rect x="343.1" y="99" class="st5" width="162.9" height="49"/>
<path d="M353.8,102.3h2.1l-6.1,14.5h-0.5l-6.2-14.5h2.1l4.3,10.1L353.8,102.3z"/>
<path d="M358.1,103.2c0.3,0,0.6,0.1,0.8,0.3c0.2,0.2,0.3,0.5,0.3,0.8c0,0.3-0.1,0.6-0.3,0.8c-0.2,0.2-0.5,0.3-0.8,0.3
	c-0.3,0-0.5-0.1-0.8-0.3c-0.2-0.2-0.3-0.5-0.3-0.8c0-0.3,0.1-0.5,0.3-0.8C357.6,103.4,357.9,103.2,358.1,103.2z M357.2,107.2h1.9
	v9.5h-1.9V107.2z"/>
<path d="M361.3,116.1v-2c0.5,0.4,1.1,0.7,1.6,0.9c0.6,0.2,1,0.3,1.4,0.3c0.4,0,0.7-0.1,1-0.3c0.3-0.2,0.4-0.4,0.4-0.7
	c0-0.3-0.1-0.5-0.3-0.7c-0.2-0.2-0.6-0.4-1.2-0.8c-1.2-0.7-2-1.3-2.4-1.7c-0.4-0.5-0.6-1-0.6-1.6c0-0.7,0.3-1.3,0.9-1.8
	s1.3-0.7,2.2-0.7c0.9,0,1.9,0.3,2.9,0.8v1.9c-1.1-0.7-2-1-2.7-1c-0.4,0-0.7,0.1-0.9,0.2c-0.2,0.2-0.3,0.4-0.3,0.6
	c0,0.2,0.1,0.4,0.3,0.6c0.2,0.2,0.6,0.4,1.1,0.7l0.7,0.4c1.6,0.9,2.4,1.9,2.4,3c0,0.8-0.3,1.4-0.9,1.9c-0.6,0.5-1.4,0.7-2.3,0.7
	c-0.6,0-1.1-0.1-1.5-0.2S362,116.4,361.3,116.1z"/>
<path d="M370.9,103.2c0.3,0,0.6,0.1,0.8,0.3c0.2,0.2,0.3,0.5,0.3,0.8c0,0.3-0.1,0.6-0.3,0.8c-0.2,0.2-0.5,0.3-0.8,0.3
	c-0.3,0-0.5-0.1-0.8-0.3c-0.2-0.2-0.3-0.5-0.3-0.8c0-0.3,0.1-0.5,0.3-0.8C370.4,103.4,370.6,103.2,370.9,103.2z M370,107.2h1.9v9.5
	H370V107.2z"/>
<path d="M373.2,108.7l3.5-3.5v2h3v1.7h-3v4.6c0,1.1,0.5,1.6,1.4,1.6c0.7,0,1.4-0.2,2.1-0.7v1.8c-0.7,0.4-1.5,0.6-2.4,0.6
	c-0.9,0-1.6-0.3-2.1-0.8c-0.2-0.2-0.3-0.3-0.4-0.5c-0.1-0.2-0.2-0.4-0.3-0.7c-0.1-0.3-0.1-0.9-0.1-1.7v-4.2h-1.7V108.7z"/>
<path d="M386.2,107.2c1.4,0,2.6,0.5,3.6,1.4c1,0.9,1.4,2.1,1.4,3.5c0,1.4-0.5,2.5-1.5,3.4c-1,0.9-2.2,1.4-3.7,1.4
	c-1.4,0-2.6-0.5-3.6-1.4c-1-0.9-1.4-2.1-1.4-3.4c0-1.4,0.5-2.5,1.5-3.5S384.7,107.2,386.2,107.2z M386.1,108.9
	c-0.9,0-1.6,0.3-2.2,0.9s-0.9,1.3-0.9,2.3c0,0.9,0.3,1.6,0.9,2.2c0.6,0.6,1.4,0.9,2.3,0.9c0.9,0,1.7-0.3,2.3-0.9
	c0.6-0.6,0.9-1.3,0.9-2.2c0-0.9-0.3-1.6-0.9-2.2S387,108.9,386.1,108.9z"/>
<path d="M395.3,107.2v2.2l0.1-0.2c0.9-1.5,1.8-2.2,2.7-2.2c0.7,0,1.4,0.4,2.2,1.1l-1,1.7c-0.7-0.6-1.3-0.9-1.8-0.9
	c-0.6,0-1.1,0.3-1.6,0.9c-0.4,0.6-0.7,1.3-0.7,2.1v5h-1.9v-9.5H395.3z"/>
<path d="M420.2,113.4v2.3c-1.5,0.8-3.3,1.2-5.2,1.2c-1.6,0-3-0.3-4.1-1c-1.1-0.6-2-1.5-2.7-2.7c-0.7-1.1-1-2.4-1-3.7
	c0-2.1,0.7-3.9,2.2-5.3c1.5-1.4,3.3-2.1,5.5-2.1c1.5,0,3.2,0.4,5,1.2v2.2c-1.7-1-3.3-1.4-4.9-1.4c-1.7,0-3,0.5-4.1,1.6
	c-1.1,1-1.6,2.3-1.6,3.9c0,1.6,0.5,2.9,1.6,3.9s2.4,1.5,4.1,1.5C416.8,115,418.5,114.5,420.2,113.4z"/>
<path d="M427,107.2c1.4,0,2.6,0.5,3.6,1.4c1,0.9,1.4,2.1,1.4,3.5c0,1.4-0.5,2.5-1.5,3.4c-1,0.9-2.2,1.4-3.7,1.4
	c-1.4,0-2.6-0.5-3.6-1.4c-1-0.9-1.4-2.1-1.4-3.4c0-1.4,0.5-2.5,1.5-3.5S425.6,107.2,427,107.2z M426.9,108.9c-0.9,0-1.6,0.3-2.2,0.9
	s-0.9,1.3-0.9,2.3c0,0.9,0.3,1.6,0.9,2.2c0.6,0.6,1.4,0.9,2.3,0.9c0.9,0,1.7-0.3,2.3-0.9c0.6-0.6,0.9-1.3,0.9-2.2
	c0-0.9-0.3-1.6-0.9-2.2S427.9,108.9,426.9,108.9z"/>
<path d="M441.9,109.8v6.9H440v-5.3c0-1.1-0.1-1.8-0.4-2.2c-0.3-0.4-0.8-0.6-1.5-0.6c-0.4,0-0.8,0.1-1.1,0.3
	c-0.3,0.2-0.7,0.5-1.1,0.9v6.9h-1.9v-9.5h1.9v1.2c1-1,1.9-1.4,2.8-1.4c1.2,0,2.1,0.6,2.8,1.7c1-1.2,2.1-1.7,3.1-1.7
	c0.9,0,1.7,0.3,2.3,1c0.6,0.7,0.9,1.7,0.9,3.1v5.6H446v-5.6c0-0.8-0.2-1.4-0.5-1.8s-0.8-0.6-1.4-0.6
	C443.3,108.7,442.6,109.1,441.9,109.8z"/>
<path d="M450.3,121.6v-14.3h3.3c1.7,0,3,0.4,3.9,1.3c0.9,0.8,1.4,2,1.4,3.5c0,1.4-0.4,2.6-1.3,3.5c-0.9,0.9-2,1.4-3.4,1.4
	c-0.6,0-1.3-0.1-2-0.4v5.1H450.3z M453.6,109h-1.3v5.8c0.6,0.3,1.2,0.4,1.8,0.4c0.9,0,1.6-0.3,2.2-0.9c0.6-0.6,0.8-1.4,0.8-2.4
	c0-0.6-0.1-1.2-0.4-1.6s-0.6-0.8-1.1-1C455.1,109.1,454.5,109,453.6,109z"/>
<path d="M467.1,116.7v-1.2c-0.4,0.4-0.9,0.8-1.4,1c-0.5,0.2-1,0.4-1.5,0.4c-0.6,0-1.2-0.1-1.7-0.4c-0.5-0.3-0.9-0.7-1.1-1.2
	c-0.3-0.5-0.4-1.4-0.4-2.6v-5.4h1.9v5.4c0,1,0.1,1.7,0.4,2.1c0.3,0.4,0.8,0.6,1.5,0.6c0.9,0,1.7-0.4,2.3-1.3v-6.8h1.9v9.5H467.1z"/>
<path d="M470.3,108.7l3.5-3.5v2h3v1.7h-3v4.6c0,1.1,0.5,1.6,1.4,1.6c0.7,0,1.4-0.2,2.1-0.7v1.8c-0.7,0.4-1.5,0.6-2.4,0.6
	c-0.9,0-1.6-0.3-2.1-0.8c-0.2-0.2-0.3-0.3-0.4-0.5c-0.1-0.2-0.2-0.4-0.3-0.7c-0.1-0.3-0.1-0.9-0.1-1.7v-4.2h-1.7V108.7z"/>
<path d="M486.7,112.2H480c0,0.9,0.4,1.6,0.9,2.2c0.6,0.5,1.3,0.8,2.2,0.8c1.2,0,2.4-0.4,3.4-1.2v1.8c-0.6,0.4-1.2,0.7-1.7,0.8
	s-1.2,0.2-2,0.2c-1,0-1.9-0.2-2.5-0.7c-0.6-0.4-1.2-1-1.6-1.8c-0.4-0.7-0.6-1.6-0.6-2.5c0-1.4,0.4-2.6,1.2-3.5
	c0.8-0.9,1.9-1.4,3.2-1.4c1.3,0,2.3,0.4,3,1.3s1.1,2.1,1.1,3.5V112.2z M480.1,111h4.8c0-0.8-0.3-1.3-0.7-1.7
	c-0.4-0.4-0.9-0.6-1.6-0.6c-0.7,0-1.2,0.2-1.7,0.6S480.2,110.3,480.1,111z"/>
<path d="M490.8,107.2v2.2l0.1-0.2c0.9-1.5,1.8-2.2,2.7-2.2c0.7,0,1.4,0.4,2.2,1.1l-1,1.7c-0.7-0.6-1.3-0.9-1.8-0.9
	c-0.6,0-1.1,0.3-1.6,0.9c-0.4,0.6-0.7,1.3-0.7,2.1v5h-1.9v-9.5H490.8z"/>
<path d="M342.9,136.1h10.9v1.4h-10.9V136.1z"/>
<path d="M372.6,127.7h2v14.4h-1.8l-9.6-11.1v11.1h-1.9v-14.4h1.7l9.7,11.2V127.7z"/>
<path d="M377.6,142.1v-14.4h4.9c2,0,3.5,0.3,4.7,0.9c1.1,0.6,2.1,1.5,2.7,2.6c0.7,1.1,1,2.4,1,3.7c0,1-0.2,1.9-0.6,2.8
	c-0.4,0.9-0.9,1.7-1.6,2.3c-0.7,0.7-1.5,1.2-2.4,1.6c-0.5,0.2-1,0.4-1.5,0.4s-1.3,0.1-2.6,0.1H377.6z M382.3,129.6h-2.6v10.7h2.6
	c1,0,1.8-0.1,2.4-0.2c0.6-0.1,1-0.3,1.4-0.5s0.7-0.5,1-0.8c1-1,1.5-2.3,1.5-3.9c0-1.5-0.5-2.8-1.6-3.8c-0.4-0.4-0.8-0.7-1.3-0.9
	c-0.5-0.2-1-0.4-1.4-0.5C384,129.6,383.3,129.6,382.3,129.6z"/>
<path d="M411.8,138.8v2.3c-1.5,0.8-3.3,1.2-5.2,1.2c-1.6,0-3-0.3-4.1-1c-1.1-0.6-2-1.5-2.7-2.7c-0.7-1.1-1-2.4-1-3.7
	c0-2.1,0.7-3.9,2.2-5.3c1.5-1.4,3.3-2.1,5.5-2.1c1.5,0,3.2,0.4,5,1.2v2.2c-1.7-1-3.3-1.4-4.9-1.4c-1.7,0-3,0.5-4.1,1.6
	c-1.1,1-1.6,2.3-1.6,3.9c0,1.6,0.5,2.9,1.6,3.9s2.4,1.5,4.1,1.5C408.4,140.4,410.1,139.9,411.8,138.8z"/>
<path d="M420,136.4v4c0,0.3,0.1,0.5,0.3,0.5c0.2,0,0.6-0.2,1.1-0.5v1.1c-0.4,0.3-0.8,0.5-1,0.6s-0.5,0.1-0.8,0.1
	c-0.8,0-1.3-0.3-1.4-0.9c-0.8,0.6-1.6,0.9-2.5,0.9c-0.7,0-1.2-0.2-1.7-0.7c-0.4-0.4-0.7-1-0.7-1.6c0-0.6,0.2-1.1,0.6-1.6
	c0.4-0.5,1-0.8,1.8-1.1l2.4-0.8v-0.5c0-1.1-0.6-1.7-1.7-1.7c-1,0-2,0.5-3,1.6v-2.1c0.7-0.9,1.8-1.3,3.1-1.3c1,0,1.8,0.3,2.5,0.8
	c0.2,0.2,0.4,0.4,0.6,0.7c0.2,0.3,0.3,0.6,0.3,0.9C420,135.1,420,135.6,420,136.4z M418.2,140.3v-2.8l-1.3,0.5
	c-0.6,0.3-1.1,0.5-1.4,0.8s-0.4,0.6-0.4,1c0,0.4,0.1,0.7,0.4,1c0.3,0.2,0.6,0.4,1,0.4C417.1,141,417.7,140.7,418.2,140.3z"/>
<path d="M421.7,134.1l3.5-3.5v2h3v1.7h-3v4.6c0,1.1,0.5,1.6,1.4,1.6c0.7,0,1.4-0.2,2.1-0.7v1.8c-0.7,0.4-1.5,0.6-2.4,0.6
	c-0.9,0-1.6-0.3-2.1-0.8c-0.2-0.2-0.3-0.3-0.4-0.5c-0.1-0.2-0.2-0.4-0.3-0.7c-0.1-0.3-0.1-0.9-0.1-1.7v-4.2h-1.7V134.1z"/>
<path d="M436.1,136.4v4c0,0.3,0.1,0.5,0.3,0.5c0.2,0,0.6-0.2,1.1-0.5v1.1c-0.4,0.3-0.8,0.5-1,0.6c-0.3,0.1-0.5,0.1-0.8,0.1
	c-0.8,0-1.3-0.3-1.4-0.9c-0.8,0.6-1.6,0.9-2.5,0.9c-0.7,0-1.2-0.2-1.7-0.7c-0.4-0.4-0.7-1-0.7-1.6c0-0.6,0.2-1.1,0.6-1.6
	c0.4-0.5,1-0.8,1.8-1.1l2.4-0.8v-0.5c0-1.1-0.6-1.7-1.7-1.7c-1,0-2,0.5-3,1.6v-2.1c0.7-0.9,1.8-1.3,3.1-1.3c1,0,1.8,0.3,2.5,0.8
	c0.2,0.2,0.4,0.4,0.6,0.7c0.2,0.3,0.3,0.6,0.3,0.9C436.1,135.1,436.1,135.6,436.1,136.4z M434.2,140.3v-2.8l-1.3,0.5
	c-0.6,0.3-1.1,0.5-1.4,0.8c-0.3,0.3-0.4,0.6-0.4,1c0,0.4,0.1,0.7,0.4,1c0.3,0.2,0.6,0.4,1,0.4C433.2,141,433.7,140.7,434.2,140.3z"
	/>
<path d="M439.2,127.7h1.9v14.4h-1.9V127.7z"/>
<path d="M448.3,132.6c1.4,0,2.6,0.5,3.6,1.4c1,0.9,1.4,2.1,1.4,3.5c0,1.4-0.5,2.5-1.5,3.4c-1,0.9-2.2,1.4-3.7,1.4
	c-1.4,0-2.6-0.5-3.6-1.4c-1-0.9-1.4-2.1-1.4-3.4c0-1.4,0.5-2.5,1.5-3.5S446.8,132.6,448.3,132.6z M448.2,134.3
	c-0.9,0-1.6,0.3-2.2,0.9s-0.9,1.3-0.9,2.3c0,0.9,0.3,1.6,0.9,2.2c0.6,0.6,1.4,0.9,2.3,0.9c0.9,0,1.7-0.3,2.3-0.9
	c0.6-0.6,0.9-1.3,0.9-2.2c0-0.9-0.3-1.6-0.9-2.2S449.1,134.3,448.2,134.3z"/>
<path d="M454.9,135.9c0-1,0.4-1.8,1.1-2.4c0.7-0.6,1.7-0.9,3-0.9h3.9v1.5h-1.9c0.4,0.4,0.6,0.7,0.8,1c0.1,0.3,0.2,0.7,0.2,1.1
	c0,0.5-0.1,1-0.4,1.5s-0.6,0.8-1.1,1.1c-0.4,0.3-1.2,0.5-2.2,0.6c-0.7,0.1-1.1,0.3-1.1,0.7c0,0.2,0.1,0.4,0.4,0.5
	c0.3,0.1,0.7,0.3,1.4,0.4c1.2,0.3,1.9,0.5,2.2,0.6c0.3,0.1,0.6,0.4,0.9,0.6c0.5,0.5,0.7,1,0.7,1.7c0,0.9-0.4,1.6-1.2,2.2
	c-0.8,0.5-1.9,0.8-3.2,0.8c-1.4,0-2.4-0.3-3.2-0.8c-0.8-0.5-1.2-1.3-1.2-2.2c0-1.3,0.8-2.1,2.4-2.5c-0.6-0.4-0.9-0.8-0.9-1.2
	c0-0.3,0.1-0.6,0.4-0.8c0.3-0.2,0.6-0.4,1.1-0.5C455.6,138.3,454.9,137.3,454.9,135.9z M458,142.6c-0.6,0-1.2,0.1-1.6,0.4
	s-0.6,0.6-0.6,1c0,1,0.9,1.5,2.6,1.5c0.8,0,1.5-0.1,1.9-0.4c0.5-0.2,0.7-0.6,0.7-1c0-0.4-0.3-0.8-0.9-1.1
	C459.7,142.7,458.9,142.6,458,142.6z M458.5,134.3c-0.5,0-0.9,0.2-1.3,0.5c-0.4,0.3-0.5,0.8-0.5,1.2c0,0.5,0.2,0.9,0.5,1.2
	c0.4,0.3,0.8,0.5,1.3,0.5c0.5,0,1-0.2,1.3-0.5s0.5-0.7,0.5-1.2c0-0.5-0.2-0.9-0.5-1.2C459.5,134.4,459,134.3,458.5,134.3z"/>
<path class="st6" d="M319.2,6.6h1.1v14.9h-1.1V6.6C319.2,6.6,319.2,6.6,319.2,6.6z"/>
<path class="st6" d="M325.5,6.6c0.7,0,1.2,0.4,1.3,1.1l0,0c0,0.7-0.6,1.2-1.3,1.1c-0.6,0-1.1-0.5-1.1-1.1
	C324.3,7.2,324.8,6.6,325.5,6.6L325.5,6.6z"/>
<path class="st6" d="M313.6,6.7c0.6-0.2,1.3,0.2,1.5,0.9c0.1,0.3,0.1,0.5-0.1,0.8c-0.3,0.6-1.1,0.8-1.7,0.5
	c-0.5-0.3-0.8-0.9-0.6-1.4C312.9,7,313.2,6.7,313.6,6.7z"/>
<path class="st6" d="M327.8,10.9h-0.5c-0.2,2.7,0.1,6,0,9c0,0.8,0,1.4-0.7,1.5c-1,0-0.7-1.8-0.7-2.8v-3.5h-0.5c-0.1,1.1,0,2.3,0,3.5
	c0,1,0.3,2.9-0.7,2.8c-0.8,0-0.6-1.2-0.6-2.2v-8.3h-0.6c-0.1,0.7,0,1.6,0,2.3s0.2,1.9-0.6,1.8c-0.5-0.1-0.3-1.3-0.3-2.2
	c0-2.1-0.2-3.4,1.4-3.6c1.1-0.1,2.3-0.1,3.4,0c0.7,0.1,1.3,0.6,1.5,1.3c0.1,0.6,0,1.6,0,2.4s0.1,1.9-0.3,2.1
	c-0.8,0.2-0.6-0.9-0.6-1.7L327.8,10.9z"/>
<path class="st6" d="M315.7,11h-0.5c0.4,1.8,1,3.7,1.5,5.5h-1.5c-0.1,0.8,0,1.6,0,2.5c0,0.7,0.2,2.1-0.2,2.3c-0.2,0.1-0.5,0.1-0.7,0
	c-0.4-0.3-0.2-1.6-0.2-2.3v-2.5c-0.1-0.1-0.4,0-0.6,0V19c0,0.7,0.2,2.1-0.2,2.3c-0.2,0.1-0.5,0.1-0.7,0c-0.4-0.2-0.2-1.6-0.2-2.3
	v-2.5H311c0.5-1.8,1-3.7,1.5-5.5c-0.1-0.1-0.3,0-0.5,0c-0.2,0.7-0.4,1.2-0.6,1.9c-0.1,0.4-0.3,1.6-0.8,1.7c-1.1,0.1-0.1-2,0-2.4
	c0.4-1.2,0.5-2.6,1.8-2.8c0.5,0,1,0,1.5,0c1.3,0,2.2,0,2.7,0.9c0.2,0.6,0.4,1.2,0.6,1.9c0.1,0.3,0.2,0.6,0.3,1s0.5,1.4-0.3,1.4
	c-0.5,0-0.7-1.2-0.8-1.6C316,12.2,315.9,11.6,315.7,11z"/>
<path class="st6" d="M312.6,51.4V41.3l3.1,3.1c0.3,0.4,0.8,0.4,1.2,0.1s0.4-0.8,0.1-1.2l-0.1-0.1l-4.4-4.3l-0.9-0.9l-0.9,0.9
	l-4.3,4.3c-0.3,0.4-0.2,0.9,0.1,1.2c0.3,0.3,0.8,0.3,1.1,0l3.1-3.1v10.1c0,0.5,0.4,0.9,0.9,0.9C312.2,52.3,312.6,51.9,312.6,51.4
	L312.6,51.4z"/>
<path class="st6" d="M324.4,38.9V49l-3.1-3.1c-0.4-0.3-0.9-0.2-1.2,0.1c-0.3,0.3-0.3,0.8,0,1.1l4.4,4.3l0.9,0.8l0.9-0.8l4.4-4.3
	c0.3-0.3,0.3-0.9,0-1.2s-0.9-0.3-1.2,0l0,0l-3.1,3.1V38.9c0.1-0.5-0.3-0.9-0.8-0.9c-0.5-0.1-0.9,0.3-0.9,0.8
	C324.4,38.8,324.4,38.8,324.4,38.9L324.4,38.9z"/>
<rect x="303.3" y="70.7" class="st7" width="31.6" height="14.8"/>
<line class="st7" x1="316.3" y1="70.7" x2="316.3" y2="85.4"/>
<line class="st7" x1="320.1" y1="71.3" x2="320.1" y2="85.4"/>
<line class="st7" x1="323.8" y1="71.3" x2="323.8" y2="84.8"/>
<line class="st7" x1="327.6" y1="71.3" x2="327.6" y2="85.4"/>
<line class="st7" x1="331.4" y1="70.7" x2="331.4" y2="84.8"/>
<g class="st0">
	<path d="M41.7,122.8c2.4,0,4.4,0.8,6,2.3c1.6,1.5,2.4,3.4,2.4,5.7c0,2.3-0.8,4.2-2.4,5.7s-3.6,2.2-6.1,2.2c-2.3,0-4.3-0.7-5.8-2.2
		c-1.6-1.5-2.3-3.4-2.3-5.6c0-2.3,0.8-4.2,2.3-5.7C37.4,123.5,39.3,122.8,41.7,122.8z M41.8,124.9c-1.8,0-3.2,0.6-4.4,1.7
		c-1.1,1.1-1.7,2.5-1.7,4.2c0,1.7,0.6,3.1,1.7,4.2c1.1,1.1,2.6,1.7,4.3,1.7c1.7,0,3.2-0.6,4.3-1.7c1.2-1.1,1.7-2.5,1.7-4.2
		c0-1.6-0.6-3-1.7-4.1C44.9,125.4,43.5,124.9,41.8,124.9z"/>
</g>
<g class="st0">
	<path d="M52.8,128.3v-0.6c0-1.6,0.3-2.9,1-3.7c0.7-0.8,1.5-1.2,2.5-1.2c0.4,0,0.9,0.1,1.5,0.2v2c-0.3-0.1-0.6-0.2-0.9-0.2
		c-0.8,0-1.3,0.2-1.6,0.6c-0.3,0.4-0.5,1.2-0.5,2.2v0.6h1.8v1.8h-1.8v8.4h-2v-8.4h-1.5v-1.8H52.8z"/>
</g>
<g class="st0">
	<path d="M58.5,128.3v-0.6c0-1.6,0.3-2.9,1-3.7c0.7-0.8,1.5-1.2,2.5-1.2c0.4,0,0.9,0.1,1.5,0.2v2c-0.3-0.1-0.6-0.2-0.9-0.2
		c-0.8,0-1.3,0.2-1.6,0.6c-0.3,0.4-0.5,1.2-0.5,2.2v0.6h1.8v1.8h-1.8v8.4h-2v-8.4H57v-1.8H58.5z"/>
</g>
<g class="st0">
	<path d="M64.9,124c0.3,0,0.6,0.1,0.9,0.3c0.2,0.2,0.4,0.5,0.4,0.8c0,0.3-0.1,0.6-0.4,0.8s-0.5,0.4-0.9,0.4c-0.3,0-0.6-0.1-0.8-0.4
		s-0.4-0.5-0.4-0.8c0-0.3,0.1-0.6,0.4-0.8S64.6,124,64.9,124z M63.9,128.3h2v10.2h-2V128.3z"/>
</g>
<g class="st0">
	<path d="M76.5,136.1v2c-1,0.4-2,0.6-3,0.6c-1.6,0-2.9-0.5-3.8-1.4c-0.9-0.9-1.4-2.2-1.4-3.8c0-1.6,0.5-2.9,1.4-3.9s2.1-1.5,3.6-1.5
		c0.5,0,1,0,1.4,0.2c0.4,0.1,0.9,0.3,1.5,0.6v2.1c-1-0.6-2-1-2.8-1c-0.9,0-1.7,0.3-2.2,1s-0.9,1.5-0.9,2.4c0,1,0.3,1.9,0.9,2.5
		c0.6,0.6,1.5,0.9,2.6,0.9C74.6,136.8,75.5,136.6,76.5,136.1z"/>
	<path d="M87.5,133.6h-7.2c0.1,1,0.4,1.8,1,2.3c0.6,0.6,1.4,0.9,2.3,0.9c1.3,0,2.6-0.4,3.7-1.2v2c-0.6,0.4-1.2,0.7-1.8,0.9
		s-1.3,0.3-2.1,0.3c-1.1,0-2-0.2-2.7-0.7c-0.7-0.5-1.3-1.1-1.7-1.9c-0.4-0.8-0.6-1.7-0.6-2.7c0-1.6,0.4-2.8,1.3-3.8s2-1.5,3.4-1.5
		c1.4,0,2.4,0.5,3.2,1.4c0.8,0.9,1.2,2.2,1.2,3.8V133.6z M80.4,132.4h5.1c-0.1-0.8-0.3-1.4-0.7-1.9c-0.4-0.4-1-0.7-1.7-0.7
		c-0.7,0-1.3,0.2-1.8,0.7C80.8,130.9,80.5,131.6,80.4,132.4z"/>
	<path d="M89.2,137.8v-2.2c0.6,0.4,1.2,0.7,1.7,1c0.6,0.2,1.1,0.4,1.5,0.4c0.4,0,0.8-0.1,1.1-0.3c0.3-0.2,0.5-0.5,0.5-0.7
		c0-0.3-0.1-0.5-0.3-0.7c-0.2-0.2-0.6-0.5-1.3-0.8c-1.3-0.7-2.2-1.3-2.6-1.9c-0.4-0.5-0.6-1.1-0.6-1.7c0-0.8,0.3-1.4,0.9-1.9
		s1.4-0.7,2.4-0.7c1,0,2,0.3,3.1,0.8v2c-1.2-0.7-2.2-1.1-2.9-1.1c-0.4,0-0.7,0.1-0.9,0.2c-0.2,0.2-0.4,0.4-0.4,0.7
		c0,0.2,0.1,0.5,0.3,0.7c0.2,0.2,0.6,0.5,1.1,0.8l0.7,0.4c1.7,1,2.5,2,2.5,3.2c0,0.8-0.3,1.5-1,2.1c-0.7,0.5-1.5,0.8-2.5,0.8
		c-0.6,0-1.1-0.1-1.6-0.2S89.9,138.1,89.2,137.8z"/>
	<path d="M97.1,138.7l4.5-15.9h1.6l-4.4,15.9H97.1z"/>
	<path d="M118.4,134.9v2.4c-1.6,0.9-3.5,1.3-5.6,1.3c-1.7,0-3.2-0.3-4.4-1c-1.2-0.7-2.2-1.7-2.9-2.9c-0.7-1.2-1.1-2.5-1.1-4
		c0-2.3,0.8-4.1,2.4-5.7c1.6-1.5,3.6-2.3,5.9-2.3c1.6,0,3.4,0.4,5.4,1.3v2.4c-1.8-1-3.6-1.6-5.3-1.6c-1.8,0-3.2,0.6-4.4,1.7
		c-1.2,1.1-1.8,2.5-1.8,4.2c0,1.7,0.6,3.1,1.7,4.2c1.2,1.1,2.6,1.6,4.4,1.6C114.8,136.6,116.6,136,118.4,134.9z"/>
	<path d="M120.9,123h2v15.5h-2V123z"/>
	<path d="M132.2,132.4v4.3c0,0.3,0.1,0.5,0.4,0.5c0.2,0,0.6-0.2,1.1-0.5v1.2c-0.5,0.3-0.8,0.5-1.1,0.6c-0.3,0.1-0.6,0.2-0.9,0.2
		c-0.9,0-1.4-0.3-1.5-1c-0.9,0.7-1.8,1-2.7,1c-0.7,0-1.3-0.2-1.8-0.7s-0.7-1.1-0.7-1.8c0-0.6,0.2-1.2,0.7-1.7s1.1-0.9,2-1.2l2.6-0.9
		v-0.5c0-1.2-0.6-1.8-1.8-1.8c-1.1,0-2.2,0.6-3.2,1.7v-2.2c0.8-0.9,1.9-1.4,3.4-1.4c1.1,0,2,0.3,2.6,0.9c0.2,0.2,0.4,0.4,0.6,0.7
		s0.3,0.6,0.3,0.9C132.2,130.9,132.2,131.5,132.2,132.4z M130.3,136.5v-3l-1.4,0.5c-0.7,0.3-1.2,0.5-1.5,0.8c-0.3,0.3-0.4,0.6-0.4,1
		c0,0.4,0.1,0.8,0.4,1s0.6,0.4,1,0.4C129.1,137.3,129.7,137,130.3,136.5z"/>
	<path d="M135,137.8v-2.2c0.6,0.4,1.2,0.7,1.7,1c0.6,0.2,1.1,0.4,1.5,0.4c0.4,0,0.8-0.1,1.1-0.3c0.3-0.2,0.5-0.5,0.5-0.7
		c0-0.3-0.1-0.5-0.3-0.7c-0.2-0.2-0.6-0.5-1.3-0.8c-1.3-0.7-2.2-1.3-2.6-1.9c-0.4-0.5-0.6-1.1-0.6-1.7c0-0.8,0.3-1.4,0.9-1.9
		s1.4-0.7,2.4-0.7c1,0,2,0.3,3.1,0.8v2c-1.2-0.7-2.2-1.1-2.9-1.1c-0.4,0-0.7,0.1-0.9,0.2c-0.2,0.2-0.4,0.4-0.4,0.7
		c0,0.2,0.1,0.5,0.3,0.7c0.2,0.2,0.6,0.5,1.1,0.8l0.7,0.4c1.7,1,2.5,2,2.5,3.2c0,0.8-0.3,1.5-1,2.1c-0.7,0.5-1.5,0.8-2.5,0.8
		c-0.6,0-1.1-0.1-1.6-0.2S135.7,138.1,135,137.8z"/>
	<path d="M143.8,137.8v-2.2c0.6,0.4,1.2,0.7,1.7,1c0.6,0.2,1.1,0.4,1.5,0.4c0.4,0,0.8-0.1,1.1-0.3c0.3-0.2,0.5-0.5,0.5-0.7
		c0-0.3-0.1-0.5-0.3-0.7c-0.2-0.2-0.6-0.5-1.3-0.8c-1.3-0.7-2.2-1.3-2.6-1.9c-0.4-0.5-0.6-1.1-0.6-1.7c0-0.8,0.3-1.4,0.9-1.9
		s1.4-0.7,2.4-0.7c1,0,2,0.3,3.1,0.8v2c-1.2-0.7-2.2-1.1-2.9-1.1c-0.4,0-0.7,0.1-0.9,0.2c-0.2,0.2-0.4,0.4-0.4,0.7
		c0,0.2,0.1,0.5,0.3,0.7c0.2,0.2,0.6,0.5,1.1,0.8l0.7,0.4c1.7,1,2.5,2,2.5,3.2c0,0.8-0.3,1.5-1,2.1c-0.7,0.5-1.5,0.8-2.5,0.8
		c-0.6,0-1.1-0.1-1.6-0.2S144.5,138.1,143.8,137.8z"/>
	<path d="M155.2,128.3v2.3l0.1-0.2c1-1.6,2-2.4,2.9-2.4c0.8,0,1.6,0.4,2.4,1.2l-1.1,1.8c-0.7-0.7-1.4-1-2-1c-0.6,0-1.2,0.3-1.7,0.9
		c-0.5,0.6-0.7,1.4-0.7,2.2v5.3h-2v-10.2H155.2z"/>
	<path d="M166.3,128.3c1.6,0,2.8,0.5,3.9,1.5c1,1,1.5,2.3,1.5,3.8c0,1.5-0.5,2.7-1.6,3.7c-1,1-2.4,1.5-3.9,1.5
		c-1.5,0-2.8-0.5-3.8-1.5c-1-1-1.5-2.2-1.5-3.7c0-1.5,0.5-2.7,1.6-3.7C163.4,128.8,164.7,128.3,166.3,128.3z M166.2,130.1
		c-1,0-1.8,0.3-2.4,1c-0.6,0.6-0.9,1.4-0.9,2.4c0,1,0.3,1.8,1,2.4c0.6,0.6,1.5,0.9,2.4,0.9c1,0,1.8-0.3,2.4-0.9
		c0.6-0.6,0.9-1.4,0.9-2.4c0-1-0.3-1.8-1-2.4S167.2,130.1,166.2,130.1z"/>
	<path d="M178.8,128.3c1.6,0,2.8,0.5,3.9,1.5c1,1,1.5,2.3,1.5,3.8c0,1.5-0.5,2.7-1.6,3.7c-1,1-2.4,1.5-3.9,1.5
		c-1.5,0-2.8-0.5-3.8-1.5c-1-1-1.5-2.2-1.5-3.7c0-1.5,0.5-2.7,1.6-3.7C175.9,128.8,177.2,128.3,178.8,128.3z M178.7,130.1
		c-1,0-1.8,0.3-2.4,1c-0.6,0.6-0.9,1.4-0.9,2.4c0,1,0.3,1.8,1,2.4c0.6,0.6,1.5,0.9,2.4,0.9c1,0,1.8-0.3,2.4-0.9
		c0.6-0.6,0.9-1.4,0.9-2.4c0-1-0.3-1.8-1-2.4S179.7,130.1,178.7,130.1z"/>
	<path d="M194.8,131.1v7.4h-2v-5.7c0-1.1-0.2-1.9-0.5-2.4c-0.3-0.4-0.8-0.7-1.6-0.7c-0.4,0-0.8,0.1-1.2,0.3c-0.4,0.2-0.8,0.5-1.2,1
		v7.4h-2v-10.2h2v1.3c1-1,2-1.5,3-1.5c1.3,0,2.3,0.6,3,1.8c1.1-1.2,2.2-1.9,3.4-1.9c1,0,1.8,0.4,2.4,1.1c0.6,0.7,1,1.8,1,3.3v6h-2
		v-6c0-0.8-0.2-1.5-0.5-1.9s-0.8-0.7-1.5-0.7C196.3,129.8,195.5,130.2,194.8,131.1z"/>
	<path d="M203.4,137.8v-2.2c0.6,0.4,1.2,0.7,1.7,1c0.6,0.2,1.1,0.4,1.5,0.4c0.4,0,0.8-0.1,1.1-0.3c0.3-0.2,0.5-0.5,0.5-0.7
		c0-0.3-0.1-0.5-0.3-0.7c-0.2-0.2-0.6-0.5-1.3-0.8c-1.3-0.7-2.2-1.3-2.6-1.9c-0.4-0.5-0.6-1.1-0.6-1.7c0-0.8,0.3-1.4,0.9-1.9
		s1.4-0.7,2.4-0.7c1,0,2,0.3,3.1,0.8v2c-1.2-0.7-2.2-1.1-2.9-1.1c-0.4,0-0.7,0.1-0.9,0.2c-0.2,0.2-0.4,0.4-0.4,0.7
		c0,0.2,0.1,0.5,0.3,0.7c0.2,0.2,0.6,0.5,1.1,0.8l0.7,0.4c1.7,1,2.5,2,2.5,3.2c0,0.8-0.3,1.5-1,2.1c-0.7,0.5-1.5,0.8-2.5,0.8
		c-0.6,0-1.1-0.1-1.6-0.2S204.2,138.1,203.4,137.8z"/>
</g>
<rect x="0.9" y="124.2" class="st8" width="14.4" height="14.4"/>
<g class="st0">
	<path d="M47.5,167.3v2.4c-1.6,0.9-3.5,1.3-5.6,1.3c-1.7,0-3.2-0.3-4.4-1c-1.2-0.7-2.2-1.7-2.9-2.9c-0.7-1.2-1.1-2.5-1.1-4
		c0-2.3,0.8-4.1,2.4-5.7s3.6-2.3,5.9-2.3c1.6,0,3.4,0.4,5.4,1.3v2.4c-1.8-1-3.6-1.6-5.3-1.6c-1.8,0-3.2,0.6-4.4,1.7
		c-1.2,1.1-1.8,2.5-1.8,4.2c0,1.7,0.6,3.1,1.7,4.2c1.2,1.1,2.6,1.6,4.4,1.6C43.9,169,45.7,168.4,47.5,167.3z"/>
	<path d="M54.8,160.6c1.6,0,2.8,0.5,3.9,1.5c1,1,1.5,2.3,1.5,3.8c0,1.5-0.5,2.7-1.6,3.7c-1,1-2.4,1.5-3.9,1.5
		c-1.5,0-2.8-0.5-3.8-1.5c-1-1-1.5-2.2-1.5-3.7c0-1.5,0.5-2.7,1.6-3.7S53.2,160.6,54.8,160.6z M54.7,162.4c-1,0-1.8,0.3-2.4,1
		c-0.6,0.6-0.9,1.4-0.9,2.4c0,1,0.3,1.8,1,2.4c0.6,0.6,1.5,0.9,2.4,0.9c1,0,1.8-0.3,2.4-0.9c0.6-0.6,0.9-1.4,0.9-2.4
		c0-1-0.3-1.8-1-2.4C56.5,162.8,55.7,162.4,54.7,162.4z"/>
	<path d="M70.8,163.4v7.4h-2v-5.7c0-1.1-0.2-1.9-0.5-2.4c-0.3-0.4-0.8-0.7-1.6-0.7c-0.4,0-0.8,0.1-1.2,0.3c-0.4,0.2-0.8,0.5-1.2,1
		v7.4h-2v-10.2h2v1.3c1-1,2-1.5,3-1.5c1.3,0,2.3,0.6,3,1.8c1.1-1.2,2.2-1.9,3.4-1.9c1,0,1.8,0.4,2.4,1.1c0.6,0.7,1,1.8,1,3.3v6h-2
		v-6c0-0.8-0.2-1.5-0.5-2c-0.3-0.5-0.8-0.7-1.5-0.7C72.3,162.2,71.5,162.6,70.8,163.4z"/>
	<path d="M79.8,176v-15.4h3.5c1.8,0,3.2,0.5,4.2,1.4s1.5,2.2,1.5,3.8c0,1.5-0.5,2.8-1.4,3.8S85.5,171,84,171c-0.6,0-1.4-0.1-2.2-0.4
		v5.5H79.8z M83.3,162.5h-1.4v6.3c0.6,0.3,1.3,0.5,1.9,0.5c0.9,0,1.7-0.3,2.3-1s0.9-1.5,0.9-2.5c0-0.7-0.1-1.3-0.4-1.8
		s-0.7-0.9-1.2-1.1C85,162.6,84.2,162.5,83.3,162.5z"/>
	<path d="M97.8,170.8v-1.3c-0.4,0.5-0.9,0.8-1.5,1.1c-0.6,0.3-1.1,0.4-1.6,0.4c-0.6,0-1.2-0.2-1.8-0.5s-1-0.8-1.2-1.3
		c-0.3-0.5-0.4-1.5-0.4-2.7v-5.8h2v5.8c0,1.1,0.2,1.8,0.5,2.2c0.3,0.4,0.8,0.6,1.6,0.6c1,0,1.8-0.5,2.4-1.4v-7.3h2v10.2H97.8z"/>
	<path d="M101.2,162.3l3.8-3.7v2.1h3.2v1.8H105v5c0,1.2,0.5,1.7,1.5,1.7c0.7,0,1.5-0.2,2.3-0.7v1.9c-0.8,0.4-1.6,0.7-2.5,0.7
		c-0.9,0-1.7-0.3-2.3-0.8c-0.2-0.2-0.4-0.3-0.5-0.5s-0.2-0.5-0.3-0.8s-0.1-1-0.1-1.9v-4.5h-1.8V162.3z"/>
	<path d="M118.9,165.9h-7.2c0.1,1,0.4,1.8,1,2.3c0.6,0.6,1.4,0.9,2.3,0.9c1.3,0,2.6-0.4,3.7-1.2v2c-0.6,0.4-1.2,0.7-1.8,0.9
		c-0.6,0.2-1.3,0.3-2.1,0.3c-1.1,0-2-0.2-2.7-0.7c-0.7-0.5-1.3-1.1-1.7-1.9c-0.4-0.8-0.6-1.7-0.6-2.7c0-1.6,0.4-2.8,1.3-3.8
		c0.9-1,2-1.5,3.4-1.5c1.4,0,2.4,0.5,3.2,1.4c0.8,0.9,1.2,2.2,1.2,3.8V165.9z M111.7,164.7h5.1c-0.1-0.8-0.3-1.4-0.7-1.9
		c-0.4-0.4-1-0.7-1.7-0.7c-0.7,0-1.3,0.2-1.8,0.7C112.2,163.3,111.9,163.9,111.7,164.7z"/>
	<path d="M123.2,160.6v2.3l0.1-0.2c1-1.6,2-2.4,2.9-2.4c0.8,0,1.6,0.4,2.4,1.2l-1.1,1.8c-0.7-0.7-1.4-1-2-1c-0.6,0-1.2,0.3-1.7,0.9
		c-0.5,0.6-0.7,1.4-0.7,2.2v5.3h-2v-10.2H123.2z"/>
	<path d="M150,167.3v2.4c-1.6,0.9-3.5,1.3-5.6,1.3c-1.7,0-3.2-0.3-4.4-1c-1.2-0.7-2.2-1.7-2.9-2.9c-0.7-1.2-1.1-2.5-1.1-4
		c0-2.3,0.8-4.1,2.4-5.7s3.6-2.3,5.9-2.3c1.6,0,3.4,0.4,5.4,1.3v2.4c-1.8-1-3.6-1.6-5.3-1.6c-1.8,0-3.2,0.6-4.4,1.7
		c-1.2,1.1-1.8,2.5-1.8,4.2c0,1.7,0.6,3.1,1.7,4.2c1.2,1.1,2.6,1.6,4.4,1.6C146.3,169,148.2,168.4,150,167.3z"/>
	<path d="M152.5,155.4h2v15.5h-2V155.4z"/>
	<path d="M163.9,170.8v-1.3c-0.4,0.5-0.9,0.8-1.5,1.1c-0.6,0.3-1.1,0.4-1.6,0.4c-0.6,0-1.2-0.2-1.8-0.5s-1-0.8-1.2-1.3
		c-0.3-0.5-0.4-1.5-0.4-2.7v-5.8h2v5.8c0,1.1,0.2,1.8,0.5,2.2c0.3,0.4,0.8,0.6,1.6,0.6c1,0,1.8-0.5,2.4-1.4v-7.3h2v10.2H163.9z"/>
	<path d="M168.2,170.1v-2.2c0.6,0.4,1.2,0.7,1.7,1c0.6,0.2,1.1,0.4,1.5,0.4c0.4,0,0.8-0.1,1.1-0.3c0.3-0.2,0.5-0.5,0.5-0.7
		c0-0.3-0.1-0.5-0.3-0.7c-0.2-0.2-0.6-0.5-1.3-0.8c-1.3-0.7-2.2-1.3-2.6-1.9c-0.4-0.5-0.6-1.1-0.6-1.7c0-0.8,0.3-1.4,0.9-1.9
		c0.6-0.5,1.4-0.7,2.4-0.7c1,0,2,0.3,3.1,0.8v2c-1.2-0.7-2.2-1.1-2.9-1.1c-0.4,0-0.7,0.1-0.9,0.2c-0.2,0.2-0.4,0.4-0.4,0.7
		c0,0.2,0.1,0.5,0.3,0.7c0.2,0.2,0.6,0.5,1.1,0.8l0.7,0.4c1.7,1,2.5,2,2.5,3.2c0,0.8-0.3,1.5-1,2.1c-0.7,0.5-1.5,0.8-2.5,0.8
		c-0.6,0-1.1-0.1-1.6-0.2S168.9,170.5,168.2,170.1z"/>
	<path d="M176,162.3l3.8-3.7v2.1h3.2v1.8h-3.2v5c0,1.2,0.5,1.7,1.5,1.7c0.7,0,1.5-0.2,2.3-0.7v1.9c-0.8,0.4-1.6,0.7-2.5,0.7
		c-0.9,0-1.7-0.3-2.3-0.8c-0.2-0.2-0.4-0.3-0.5-0.5s-0.2-0.5-0.3-0.8s-0.1-1-0.1-1.9v-4.5H176V162.3z"/>
	<path d="M193.7,165.9h-7.2c0.1,1,0.4,1.8,1,2.3c0.6,0.6,1.4,0.9,2.3,0.9c1.3,0,2.6-0.4,3.7-1.2v2c-0.6,0.4-1.2,0.7-1.8,0.9
		c-0.6,0.2-1.3,0.3-2.1,0.3c-1.1,0-2-0.2-2.7-0.7c-0.7-0.5-1.3-1.1-1.7-1.9c-0.4-0.8-0.6-1.7-0.6-2.7c0-1.6,0.4-2.8,1.3-3.8
		c0.9-1,2-1.5,3.4-1.5c1.4,0,2.4,0.5,3.2,1.4c0.8,0.9,1.2,2.2,1.2,3.8V165.9z M186.6,164.7h5.1c-0.1-0.8-0.3-1.4-0.7-1.9
		c-0.4-0.4-1-0.7-1.7-0.7c-0.7,0-1.3,0.2-1.8,0.7C187,163.3,186.7,163.9,186.6,164.7z"/>
	<path d="M198,160.6v2.3l0.1-0.2c1-1.6,2-2.4,2.9-2.4c0.8,0,1.6,0.4,2.4,1.2l-1.1,1.8c-0.7-0.7-1.4-1-2-1c-0.6,0-1.2,0.3-1.7,0.9
		c-0.5,0.6-0.7,1.4-0.7,2.2v5.3h-2v-10.2H198z"/>
</g>
<rect x="0.9" y="156.5" class="st9" width="14.4" height="14.4"/>
<path class="st6" d="M328.1,100.7H310c-1,0-1.8,0.8-1.8,1.8v12c0,1,0.8,1.8,1.8,1.8h7.2l-0.6,1.8H314c-0.5,0-0.9,0.4-0.9,0.9
	s0.4,0.9,0.9,0.9h10.2c0.5,0,0.9-0.4,0.9-0.9s-0.4-0.9-0.9-0.9h-2.7l-0.6-1.8h7.2c1,0,1.8-0.8,1.8-1.8v-12
	C329.9,101.5,329.1,100.7,328.1,100.7z M327.5,113.9h-16.9v-10.8h16.9V113.9z"/>
</svg>
