<?xml version="1.0" encoding="utf-8"?>
<!-- Generator: Adobe Illustrator 24.0.1, SVG Export Plug-In . SVG Version: 6.00 Build 0)  -->
<svg version="1.1" id="Layer_1" xmlns="http://www.w3.org/2000/svg" xmlns:xlink="http://www.w3.org/1999/xlink" x="0px" y="0px"
	 viewBox="0 0 113.4 113.64" style="enable-background:new 0 0 113.4 113.64;" xml:space="preserve">
<style type="text/css">
	.st0{fill:#FFFFFF;}
</style>
<g>
	<g>
		<path class="st0" d="M39.57,93.12c14.66,8.08,35.49,3.99,46.77-8.64c5.31-5.95,8.98-12.74,10.9-20.52
			c1.47-5.97,6.28-8.6,11.35-6.47c3.33,1.4,5.03,4.2,4.79,8.42c-0.36,6.2-2.97,11.69-6.01,16.92
			c-11.48,19.67-28.23,30.75-51.44,30.75c-9.08,0-17.74-2.26-25.69-6.74c-2.08-1.17-3.34-1.05-4.79,0.78
			c-1.1,1.39-2.46,2.6-3.79,3.79c-2.47,2.2-5.33,2.85-8.41,1.59c-3.18-1.3-5.11-3.84-5.18-7.23c-0.17-8.28-0.21-16.56,0-24.84
			c0.12-4.71,3.58-7.88,8.32-7.94c7.94-0.1,15.89-0.07,23.83-0.01c3.71,0.03,6.37,1.83,7.84,5.28c1.47,3.45,0.39,6.38-2.06,8.87
			C44.06,89.13,41.93,90.94,39.57,93.12z"/>
		<path class="st0" d="M105.3,20.35c0,4.03,0.08,8.06-0.02,12.08c-0.12,4.98-3.29,8.13-8.3,8.17c-7.94,0.07-15.89,0.04-23.83,0.01
			c-3.6-0.02-6.2-1.74-7.62-5.04c-1.38-3.21-0.7-6.15,1.61-8.69c1.51-1.65,3.05-3.29,4.72-4.76c1.78-1.57,1.47-2.37-0.66-3.1
			c-14.12-4.83-27.38-3.43-39.32,5.82c-8.04,6.24-13.06,14.59-15.54,24.46c-0.96,3.84-2.79,6.9-7.13,7.45
			c-5.69,0.72-10.07-3.97-9.09-9.95C1.67,37.39,6.16,29.27,12.08,22C30.42-0.53,57.9-6.21,83.82,7.06c1.61,0.82,2.55,0.77,3.72-0.55
			c1.4-1.59,2.96-3.06,4.54-4.47c2.53-2.25,5.48-2.47,8.47-1.21c3.05,1.29,4.68,3.76,4.73,7.1C105.35,12.07,105.3,16.21,105.3,20.35
			z"/>
	</g>
</g>
</svg>
